<?xml version="1.0" encoding="utf-8"?>
<!-- Generator: Adobe Illustrator 23.1.0, SVG Export Plug-In . SVG Version: 6.00 Build 0)  -->
<svg version="1.1" id="Capa_1" xmlns="http://www.w3.org/2000/svg" xmlns:xlink="http://www.w3.org/1999/xlink" x="0px" y="0px"
	 viewBox="0 0 512 512" style="enable-background:new 0 0 512 512;" xml:space="preserve">
<style type="text/css">
	.st0{fill:#FFFFFF;}
	.st1{clip-path:url(#SVGID_2_);fill:#FFFFFF;}
	.st2{fill:#959494;}
	.st3{clip-path:url(#SVGID_4_);fill:#959494;}
	.st4{fill:#FDA216;}
	.st5{clip-path:url(#SVGID_6_);fill:#FDA216;}
</style>
<g>
	<path class="st0" d="M424.3,390.9c0,8.3-6.7,15-15,15h-15v15c0,8.3-6.7,15-15,15c-8.3,0-15-6.7-15-15v-15h-15c-8.3,0-15-6.7-15-15
		s6.7-15,15-15h15v-15c0-8.3,6.7-15,15-15c8.3,0,15,6.7,15,15v15h15C417.6,375.9,424.3,382.6,424.3,390.9L424.3,390.9z M424.3,156.9
		v144c0,8.3-6.7,15-15,15c-8.3,0-15-6.7-15-15v-129h-30v45c0,8.3-6.7,15-15,15c-8.3,0-15-6.7-15-15v-45h-144v45c0,8.3-6.7,15-15,15
		c-8.3,0-15-6.7-15-15v-45h-30v234h159c8.3,0,15,6.7,15,15s-6.7,15-15,15h-174c-8.3,0-15-6.7-15-15v-264c0-8.3,6.7-15,15-15H161
		c6-50.6,49.1-90,101.3-90s95.3,39.4,101.3,90h45.7C417.6,141.9,424.3,148.6,424.3,156.9L424.3,156.9z M333.3,141.9
		c-5.7-34-35.4-60-71-60s-65.3,26-71,60H333.3z M333.3,141.9"/>
</g>
</svg>
