<?xml version="1.0"?>
<svg xmlns="http://www.w3.org/2000/svg" xmlns:xlink="http://www.w3.org/1999/xlink" xmlns:svgjs="http://svgjs.com/svgjs" version="1.1" width="512" height="512" x="0" y="0" viewBox="0 0 15.86 15.86" style="enable-background:new 0 0 512 512" xml:space="preserve" class=""><g>
<g xmlns="http://www.w3.org/2000/svg">
	<g>
		<rect x="0.02" y="11.857" style="" width="15.262" height="2.575" fill="#304367" data-original="#030104" class=""/>
		<rect x="0" y="6.47" style="" width="8.343" height="2.574" fill="#304367" data-original="#030104" class=""/>
		<rect x="0" y="1.427" style="" width="4.171" height="2.574" fill="#304367" data-original="#030104" class=""/>
		<path style="" d="M10.174,5.738l2.639,2.567c0,0,0.177,0.204,0.357,0.021c0.253-0.251,2.574-2.65,2.574-2.65    s0.321-0.319-0.105-0.319c-0.424,0-1.104,0-1.104,0s0-0.185,0-0.469c0-0.873,0-2.571,0-3.222c0,0,0.004-0.153-0.192-0.153    c-0.195,0-2.44,0-2.716,0c-0.278,0-0.228,0.183-0.228,0.183c0,0.667,0,2.312,0,3.217c0,0.315,0,0.52,0,0.52s-0.848,0-1.196,0    C9.851,5.433,10.174,5.738,10.174,5.738z" fill="#304367" data-original="#030104" class=""/>
	</g>
</g>
<g xmlns="http://www.w3.org/2000/svg">
</g>
<g xmlns="http://www.w3.org/2000/svg">
</g>
<g xmlns="http://www.w3.org/2000/svg">
</g>
<g xmlns="http://www.w3.org/2000/svg">
</g>
<g xmlns="http://www.w3.org/2000/svg">
</g>
<g xmlns="http://www.w3.org/2000/svg">
</g>
<g xmlns="http://www.w3.org/2000/svg">
</g>
<g xmlns="http://www.w3.org/2000/svg">
</g>
<g xmlns="http://www.w3.org/2000/svg">
</g>
<g xmlns="http://www.w3.org/2000/svg">
</g>
<g xmlns="http://www.w3.org/2000/svg">
</g>
<g xmlns="http://www.w3.org/2000/svg">
</g>
<g xmlns="http://www.w3.org/2000/svg">
</g>
<g xmlns="http://www.w3.org/2000/svg">
</g>
<g xmlns="http://www.w3.org/2000/svg">
</g>
</g></svg>
