<svg id="Capa_1" data-name="Capa 1" xmlns="http://www.w3.org/2000/svg" viewBox="0 0 512 512"><defs><style>.cls-1{fill:#fff;fill-rule:evenodd;}</style></defs><title>instagram_1</title><path class="cls-1" d="M343.81,117.36H168.19a50.9,50.9,0,0,0-50.83,50.83V343.81a50.9,50.9,0,0,0,50.83,50.83H343.81a50.9,50.9,0,0,0,50.83-50.83V168.19a50.9,50.9,0,0,0-50.83-50.83ZM256,347.28A91.28,91.28,0,1,1,347.28,256,91.39,91.39,0,0,1,256,347.28ZM350.22,183.6A21.6,21.6,0,1,1,371.81,162a21.63,21.63,0,0,1-21.59,21.6Zm0,0"/><path class="cls-1" d="M256,203.3A52.71,52.71,0,1,0,308.7,256,52.78,52.78,0,0,0,256,203.3Zm0,0"/><path class="cls-1" d="M0,0V512H512V0ZM433.21,343.81a89.5,89.5,0,0,1-89.4,89.4H168.19a89.5,89.5,0,0,1-89.4-89.4V168.19a89.5,89.5,0,0,1,89.4-89.4H343.81a89.5,89.5,0,0,1,89.4,89.4Zm0,0"/></svg>