<?xml version="1.0" standalone="no"?>
<!DOCTYPE svg PUBLIC "-//W3C//DTD SVG 20010904//EN"
 "http://www.w3.org/TR/2001/REC-SVG-20010904/DTD/svg10.dtd">
<svg version="1.0" xmlns="http://www.w3.org/2000/svg"
 width="431.000000pt" height="96.000000pt" viewBox="0 0 431.000000 96.000000"
 preserveAspectRatio="xMidYMid meet">

<g transform="translate(0.000000,96.000000) scale(0.100000,-0.100000)"
fill="#000000" stroke="none">
<path d="M313 776 c-60 -27 -84 -92 -57 -152 9 -21 18 -43 18 -47 1 -11 37
-37 50 -37 6 1 -2 8 -17 16 -46 25 -27 25 62 -1 96 -27 131 -54 131 -101 0
-102 -182 -96 -217 6 l-11 35 -11 -28 c-6 -15 -17 -40 -25 -56 -15 -27 -14
-28 9 -23 13 2 54 -4 91 -13 111 -28 190 -2 214 70 26 80 -16 133 -129 164
-114 32 -147 75 -96 126 25 26 76 33 104 16 10 -6 0 -8 -27 -4 -48 6 -83 -15
-81 -51 0 -15 2 -16 6 -6 23 64 99 65 150 3 9 -12 15 -6 32 32 12 26 21 48 21
49 0 0 -15 1 -32 2 -18 0 -60 4 -93 8 -43 5 -69 2 -92 -8z"/>
<path d="M726 780 c-72 -22 -116 -99 -116 -205 0 -144 83 -229 206 -210 86 13
143 91 144 199 0 165 -98 256 -234 216z m117 -40 c71 -56 57 -308 -20 -343
-34 -15 -92 2 -117 36 -17 23 -22 46 -25 119 -5 139 30 208 105 208 17 0 43
-9 57 -20z"/>
<path d="M751 724 c-35 -25 -51 -75 -51 -159 0 -72 16 -135 38 -149 5 -3 1 11
-9 31 -35 68 -21 242 22 268 7 5 26 12 43 16 28 6 29 7 6 8 -14 1 -36 -6 -49
-15z"/>
<path d="M1059 764 c16 -21 21 -41 21 -90 0 -60 -2 -64 -25 -70 -14 -3 -30
-15 -36 -26 -9 -17 -8 -18 10 -9 41 22 47 15 50 -65 2 -72 1 -78 -26 -106
l-28 -29 84 2 c55 1 86 -2 89 -9 2 -8 -26 -12 -85 -15 l-88 -3 98 -2 c92 -2
97 -1 88 16 -5 10 -17 24 -25 32 -12 9 -16 32 -16 86 l0 73 33 4 c31 4 31 4
-5 5 l-38 2 0 -78 c0 -48 5 -83 13 -92 6 -8 2 -6 -10 4 -21 17 -23 28 -23 103
l0 83 37 0 c26 0 45 -8 65 -27 l28 -27 0 63 0 62 -29 -20 c-16 -12 -39 -21
-50 -21 -19 0 -21 6 -21 59 l0 60 43 4 42 4 -47 1 -48 2 0 -65 c0 -37 -4 -65
-10 -65 -6 0 -10 32 -10 75 l0 75 58 0 c60 0 78 -8 104 -48 15 -22 15 -22 33
18 10 22 21 40 25 40 3 0 12 -16 19 -35 12 -35 31 -48 31 -22 0 24 36 47 73
47 20 0 37 -4 37 -10 0 -5 -13 -10 -30 -10 -33 0 -70 -31 -69 -57 0 -13 3 -11
10 7 12 31 26 40 62 40 l27 0 0 -157 c0 -147 -1 -158 -22 -180 l-21 -23 76 0
c102 0 110 -18 10 -23 l-78 -3 89 -2 90 -2 -27 28 -27 28 0 168 0 168 29 -4
c17 -2 28 -1 25 4 -3 4 -19 8 -35 8 l-30 0 3 -179 c2 -143 0 -177 -9 -169 -10
8 -13 58 -13 189 l0 179 35 0 c34 0 75 -27 75 -50 0 -23 17 -7 30 28 8 20 16
40 18 45 2 4 -155 7 -348 7 l-351 0 20 -26z"/>
<path d="M2009 766 c22 -23 22 -29 19 -186 l-3 -162 -27 -23 -27 -23 74 -4
c77 -3 80 -2 43 16 -12 6 -25 22 -29 36 -11 40 -10 277 1 260 5 -8 11 -71 12
-140 l2 -125 5 100 6 100 41 -119 c22 -66 46 -122 52 -124 14 -4 18 4 81 178
l49 135 1 -142 c1 -137 1 -142 -21 -158 -22 -15 -19 -16 53 -14 107 3 126 -14
24 -22 l-80 -5 89 -2 90 -2 -30 32 c-16 18 -31 35 -33 38 -2 3 -1 -4 3 -14 5
-16 4 -17 -9 -6 -12 10 -15 42 -15 183 0 162 1 172 22 194 l21 23 -83 0 -83 0
20 -22 21 -23 -40 -112 c-22 -62 -44 -110 -49 -107 -6 3 -7 -5 -3 -20 3 -14 2
-26 -3 -26 -5 0 -28 59 -52 131 l-43 131 23 24 22 24 -83 0 -83 0 22 -24z"/>
<path d="M2494 769 c24 -19 26 -27 26 -90 0 -51 -3 -69 -13 -69 -8 0 -21 -8
-30 -18 -19 -21 -23 -42 -5 -24 14 14 48 16 48 3 0 -5 -6 -12 -12 -14 -10 -4
-10 -6 0 -6 8 -1 12 -23 12 -75 0 -65 -3 -75 -22 -89 -21 -15 -10 -16 155 -16
l178 -1 -25 33 c-15 19 -26 42 -26 51 0 12 -11 5 -38 -24 -35 -36 -44 -40 -85
-40 l-47 0 0 79 0 79 41 4 c29 3 43 -1 49 -12 6 -10 9 7 9 50 0 65 0 65 -18
43 -12 -15 -30 -23 -50 -23 l-31 0 0 59 0 60 43 4 42 4 -47 1 -48 2 0 -65 c0
-37 -4 -65 -10 -65 -6 0 -10 32 -10 75 l0 75 61 0 c54 0 64 -3 91 -30 17 -17
31 -30 32 -28 11 15 46 80 46 84 0 2 -77 4 -171 4 l-172 0 27 -21z m186 -199
c0 -5 -18 -10 -40 -10 l-40 0 0 -85 c0 -50 -4 -85 -10 -85 -6 0 -10 38 -10 95
l0 95 50 0 c28 0 50 -4 50 -10z"/>
<path d="M2971 774 c-70 -19 -75 -23 -56 -44 12 -13 15 -33 13 -76 -3 -52 -6
-59 -25 -62 -31 -5 -29 -22 2 -22 34 0 32 -18 -2 -23 l-28 -4 28 -2 c27 -1 27
-2 27 -70 0 -60 -3 -71 -22 -84 -21 -15 -14 -16 110 -16 156 -1 193 10 218 62
20 42 13 79 -22 114 -13 13 -22 28 -19 32 2 5 -8 6 -23 3 -26 -4 -26 -4 8 20
30 21 35 30 38 71 3 39 -1 51 -21 71 -45 45 -129 56 -226 30z m155 -28 c21
-18 28 -32 28 -60 0 -49 -29 -77 -88 -83 l-46 -6 0 66 c0 68 6 77 52 77 12 0
19 3 15 6 -3 4 -22 3 -42 0 l-35 -7 0 -69 c0 -40 -4 -70 -10 -70 -6 0 -10 31
-10 73 0 67 2 75 23 85 38 18 84 14 113 -12z m-9 -176 c59 -21 72 -103 24
-151 -24 -24 -38 -29 -75 -29 l-46 0 0 74 0 75 43 4 42 4 -47 1 -48 2 0 -80
c0 -47 -4 -80 -10 -80 -15 0 -13 177 3 183 22 9 83 7 114 -3z"/>
<path d="M3105 730 c3 -5 11 -10 16 -10 6 0 7 5 4 10 -3 6 -11 10 -16 10 -6 0
-7 -4 -4 -10z"/>
<path d="M3110 536 c0 -2 7 -7 16 -10 8 -3 12 -2 9 4 -6 10 -25 14 -25 6z"/>
<path d="M3344 769 c24 -19 26 -27 26 -90 0 -51 -3 -69 -13 -69 -8 0 -21 -8
-30 -18 -19 -21 -23 -42 -5 -24 14 14 48 16 48 3 0 -5 -6 -12 -12 -14 -10 -4
-10 -6 0 -6 8 -1 12 -23 12 -75 0 -65 -3 -75 -22 -89 -21 -15 -10 -16 155 -16
l178 -1 -25 33 c-15 19 -26 42 -26 51 0 12 -11 5 -38 -24 -35 -36 -44 -40 -85
-40 l-47 0 0 79 0 79 41 4 c29 3 43 -1 49 -12 6 -10 9 7 9 50 0 65 0 65 -18
43 -12 -15 -30 -23 -50 -23 l-31 0 0 59 0 60 43 4 42 4 -47 1 -48 2 0 -65 c0
-37 -4 -65 -10 -65 -6 0 -10 32 -10 75 l0 75 61 0 c54 0 64 -3 91 -30 17 -17
31 -30 32 -28 11 15 46 80 46 84 0 2 -77 4 -171 4 l-172 0 27 -21z m186 -199
c0 -5 -18 -10 -40 -10 l-40 0 0 -85 c0 -50 -4 -85 -10 -85 -6 0 -10 38 -10 95
l0 95 50 0 c28 0 50 -4 50 -10z"/>
<path d="M3748 767 c21 -22 22 -32 22 -194 0 -166 -1 -171 -22 -186 -21 -15
-11 -16 143 -16 l166 -1 -26 53 -26 53 -18 -33 c-19 -36 -50 -53 -98 -53 l-29
0 0 172 c0 149 2 174 18 192 17 21 17 21 -5 2 -22 -18 -23 -25 -23 -193 0
-109 -4 -173 -10 -173 -6 0 -10 65 -10 174 0 160 2 175 21 200 l20 26 -72 0
-72 0 21 -23z"/>
<path d="M530 729 c-12 -23 -20 -43 -18 -45 3 -2 14 17 26 41 27 56 20 60 -8
4z"/>
<path d="M1740 729 c-12 -22 -20 -44 -18 -49 2 -4 13 14 25 41 26 59 21 65 -7
8z"/>
<path d="M2148 759 c-10 -5 -18 -18 -17 -27 0 -14 2 -14 6 -2 4 8 13 20 22 27
19 15 13 16 -11 2z"/>
<path d="M2416 755 c-11 -8 -17 -17 -14 -20 2 -3 13 4 23 15 21 23 18 25 -9 5z"/>
<path d="M2813 748 c-15 -20 -25 -38 -20 -38 3 0 12 11 21 25 17 26 16 35 -1
13z"/>
<path d="M3663 748 c-15 -20 -25 -38 -20 -38 3 0 12 11 21 25 17 26 16 35 -1
13z"/>
<path d="M954 696 c12 -23 22 -39 24 -35 4 9 -24 66 -36 73 -5 3 1 -14 12 -38z"/>
<path d="M1352 720 c-18 -29 -15 -38 4 -12 9 13 14 25 12 27 -2 2 -9 -5 -16
-15z"/>
<path d="M3241 704 c0 -11 3 -14 6 -6 3 7 2 16 -1 19 -3 4 -6 -2 -5 -13z"/>
<path d="M3228 622 l-17 -37 19 24 c11 13 20 29 20 37 0 21 -3 17 -22 -24z"/>
<path d="M2733 580 c0 -41 2 -58 4 -37 2 20 2 54 0 75 -2 20 -4 3 -4 -38z"/>
<path d="M3583 580 c0 -41 2 -58 4 -37 2 20 2 54 0 75 -2 20 -4 3 -4 -38z"/>
<path d="M982 574 c-3 -93 -36 -164 -95 -199 -23 -14 -37 -25 -31 -25 29 0 81
49 107 101 24 48 28 65 24 125 l-3 69 -2 -71z"/>
<path d="M2282 563 c-15 -48 -8 -55 8 -8 7 20 10 38 8 41 -3 2 -10 -13 -16
-33z"/>
<path d="M1767 570 c5 -18 14 -20 90 -20 81 0 83 1 73 20 -9 17 -21 20 -89 20
-74 0 -79 -1 -74 -20z"/>
<path d="M1035 550 c-3 -6 1 -7 9 -4 18 7 21 14 7 14 -6 0 -13 -4 -16 -10z"/>
<path d="M348 533 c7 -3 16 -2 19 1 4 3 -2 6 -13 5 -11 0 -14 -3 -6 -6z"/>
<path d="M1833 533 c26 -2 68 -2 95 0 26 2 4 3 -48 3 -52 0 -74 -1 -47 -3z"/>
<path d="M388 523 c7 -3 16 -2 19 1 4 3 -2 6 -13 5 -11 0 -14 -3 -6 -6z"/>
<path d="M571 514 c0 -11 3 -14 6 -6 3 7 2 16 -1 19 -3 4 -6 -2 -5 -13z"/>
<path d="M439 509 c14 -5 30 -13 36 -17 6 -4 2 1 -8 11 -11 9 -27 17 -36 16
-10 0 -7 -4 8 -10z"/>
<path d="M2246 464 c-9 -26 -14 -49 -12 -51 2 -2 11 17 20 43 9 26 14 49 12
51 -2 2 -11 -17 -20 -43z"/>
<path d="M3261 494 c0 -11 3 -14 6 -6 3 7 2 16 -1 19 -3 4 -6 -2 -5 -13z"/>
<path d="M300 463 c0 -6 9 -21 21 -34 l20 -24 -17 30 c-24 39 -24 40 -24 28z"/>
<path d="M571 455 c-2 -27 -29 -59 -71 -84 -19 -12 -30 -21 -25 -21 19 0 74
39 90 64 9 14 15 33 12 43 -4 16 -5 16 -6 -2z"/>
<path d="M2800 451 c0 -6 4 -13 10 -16 6 -3 7 1 4 9 -7 18 -14 21 -14 7z"/>
<path d="M3650 451 c0 -6 4 -13 10 -16 6 -3 7 1 4 9 -7 18 -14 21 -14 7z"/>
<path d="M3261 434 c0 -11 3 -14 6 -6 3 7 2 16 -1 19 -3 4 -6 -2 -5 -13z"/>
<path d="M4059 415 c17 -33 31 -51 31 -40 0 6 -10 21 -21 35 -13 17 -17 18
-10 5z"/>
<path d="M2840 397 c15 -17 20 -31 14 -37 -5 -5 -88 -11 -184 -13 l-175 -3
181 -2 c163 -2 183 0 188 15 5 11 -3 25 -21 42 l-27 26 24 -28z"/>
<path d="M3690 397 c15 -17 20 -31 14 -37 -5 -5 -88 -11 -184 -13 l-175 -3
181 -2 c163 -2 183 0 188 15 5 11 -3 25 -21 42 l-27 26 24 -28z"/>
<path d="M3244 399 c-3 -6 -20 -19 -38 -30 -34 -21 -31 -25 7 -8 20 9 55 49
43 49 -3 0 -8 -5 -12 -11z"/>
<path d="M2215 377 c-4 -14 -14 -28 -23 -30 -15 -4 -15 -5 1 -6 17 -1 44 46
33 57 -3 2 -8 -7 -11 -21z"/>
<path d="M236 362 c-2 -4 11 -6 30 -4 19 2 34 6 34 8 0 8 -59 4 -64 -4z"/>
<path d="M328 353 c7 -3 16 -2 19 1 4 3 -2 6 -13 5 -11 0 -14 -3 -6 -6z"/>
<path d="M3910 350 l-175 -6 172 -2 c106 -1 174 2 178 8 3 6 5 9 3 8 -2 -1
-82 -5 -178 -8z"/>
<path d="M393 343 c15 -2 37 -2 50 0 12 2 0 4 -28 4 -27 0 -38 -2 -22 -4z"/>
<path d="M778 343 c12 -2 32 -2 45 0 12 2 2 4 -23 4 -25 0 -35 -2 -22 -4z"/>
<path d="M2003 343 c26 -2 67 -2 90 0 23 2 2 3 -48 3 -49 0 -68 -1 -42 -3z"/>
<path d="M2962 343 c37 -2 100 -2 140 0 40 1 10 3 -67 3 -77 0 -110 -1 -73 -3z"/>
</g>
</svg>
