<?xml version="1.0" encoding="utf-8"?>
<!-- Generator: Adobe Illustrator 22.1.0, SVG Export Plug-In . SVG Version: 6.00 Build 0)  -->
<svg version="1.1" id="Layer_1" xmlns="http://www.w3.org/2000/svg" xmlns:xlink="http://www.w3.org/1999/xlink" x="0px" y="0px"
	 viewBox="0 0 137.9 30.7" style="enable-background:new 0 0 137.9 30.7;" xml:space="preserve">
<style type="text/css">
	.st0{fill:#F49520;}
	.st1{fill:#FFFFFF;}
	.st2{fill:#314368;}
</style>
<path class="st0" d="M38.8,4.8L36,17.4c-0.8,0-1.4-0.2-2-0.6c-0.5-0.3-0.9-0.9-1.2-1.5c-0.3-0.7-0.4-1.4-0.5-2.1
	c0-0.7,0-1.5,0.2-2.3c0.2-1,0.5-1.9,0.9-2.6c0.4-0.7,0.9-1.4,1.5-1.9s1.2-0.9,1.8-1.2C37.5,4.9,38.1,4.8,38.8,4.8L38.8,4.8L38.8,4.8
	z M40.9,12.6L40.9,12.6l-4.4,4.8H40L40.9,12.6L40.9,12.6z M42.3,4.8l-1,4.7l-2-4.7H42.3L42.3,4.8z M42.3,9.6C43,9.4,43.4,9.4,44,9.4
	c0.7,0,1.3,0.2,1.7,0.5s0.6,0.7,0.7,1.1c0.1,0.4,0.1,0.9,0.1,1.4v2.4h-1.7c-0.3,0-0.5-0.1-0.7-0.2c-0.2-0.2-0.3-0.4-0.3-0.6
	c0-0.4,0.1-0.6,0.4-0.8c0.2-0.1,0.5-0.2,0.9-0.2h0.8v-0.4c0-0.8-0.1-1.3-0.3-1.8h-1.2c-0.8,0-1.5,0.2-2.1,0.5
	c-0.5,0.3-0.9,0.7-1.1,1.3c-0.2,0.5-0.3,1.1-0.3,1.6c0,1.3,0.4,2.2,1.1,2.6c0.8,0.4,1.6,0.6,2.4,0.6h4.9v-5.7c0-2-0.5-3.3-1.5-3.9
	c-1-0.7-2-1-3.2-1c-0.8,0-1.3,0-2.3,0.2L42.3,9.6L42.3,9.6z M54,7v2.6c0.4-0.5,0.8-1,1.2-1.5c0.5-0.5,0.9-0.8,1.3-1.1h2.9v10.4h-2.9
	v-7.1c-1,0.8-1.8,1.8-2.5,3.2v3.9h-2.9V7H54L54,7z M53.7,4h3.1c-0.1,0.4-0.2,0.8-0.3,1.2c-0.2,0.4-0.3,0.7-0.5,0.9s-0.4,0.3-0.7,0.3
	c-0.4,0-0.7-0.2-1-0.7S53.8,4.7,53.7,4L53.7,4z M68.1,7v2.7h-2.5v7.7h-2.9V9.7h-2.5V7H68.1L68.1,7z M76,9.1l0.1,8.2h-3.8L76,9.1
	L76,9.1L76,9.1z M80.9,4.8L81,17.4h-4.1L76.8,7.3L78,4.8H80.9L80.9,4.8L80.9,4.8z M86,4.8v12.6h-4.1L81.8,7.3L83,4.8H86L86,4.8
	L86,4.8z M94.7,14.6v2.7c-0.9,0.2-1.8,0.4-2.8,0.4c-0.8,0-1.6-0.1-2.2-0.4C89,17,88.5,16.7,88,16.2s-0.8-1.1-1.1-1.7
	c-0.2-0.7-0.4-1.4-0.4-2.2c0-1.1,0.2-2.1,0.6-2.9c0.4-0.8,1-1.4,1.7-1.8C89.5,7.2,90.3,7,91.3,7c0.7,0,1.4,0.1,2,0.4
	c0.6,0.3,1.2,0.8,1.7,1.7c0.5,0.8,0.7,2,0.7,3.6c0,0.3,0,0.5,0,0.7h-5.4c-0.2-0.3-0.3-0.7-0.3-1.1c0-0.4,0-0.7,0.1-0.9H93
	c0-1.1-0.6-1.7-1.6-1.7c-0.6,0-1.1,0.2-1.5,0.7c-0.3,0.5-0.5,1.1-0.5,1.9c0,0.6,0.1,1.1,0.3,1.5c0.2,0.5,0.5,0.8,1,1.1
	s1.1,0.4,1.9,0.4C93.3,15,94,14.9,94.7,14.6L94.7,14.6z M96.5,13.1c0-0.7,0.1-1.3,0.3-1.8c0.2-0.6,0.5-1,0.8-1.5
	c0.4-0.4,0.8-0.7,1.4-1c0.5-0.2,1.1-0.3,1.8-0.3c0.8,0,1.5,0.2,2.2,0.5s1.2,0.9,1.5,1.5c0.4,0.7,0.6,1.5,0.6,2.5
	c0,0.8-0.1,1.4-0.3,2c-0.2,0.6-0.5,1-0.9,1.4s-0.9,0.7-1.4,0.9s-1.1,0.3-1.7,0.3c-0.7,0-1.3-0.1-1.8-0.3s-1-0.6-1.4-1
	s-0.6-0.9-0.8-1.5C96.6,14.3,96.5,13.7,96.5,13.1L96.5,13.1z M99.5,13.1c0,0.7,0.1,1.2,0.4,1.5s0.6,0.4,0.9,0.4s0.6-0.1,0.9-0.4
	c0.3-0.3,0.4-0.8,0.4-1.5s-0.1-1.2-0.4-1.5s-0.6-0.5-0.9-0.5c-0.2,0-0.4,0.1-0.6,0.2c-0.2,0.1-0.4,0.3-0.5,0.6
	C99.5,12.1,99.5,12.5,99.5,13.1L99.5,13.1z M99,8c0-0.2,0.1-0.3,0.2-0.5c0.1-0.1,0.3-0.2,0.6-0.2c0.1,0,0.6,0.1,1.3,0.3
	c0.7,0.2,1.2,0.3,1.6,0.3s0.7-0.1,1-0.3s0.6-0.4,0.7-0.7c0.2-0.3,0.3-0.7,0.3-1.1c0-0.6-0.2-1-0.5-1.4c-0.3-0.3-0.7-0.5-1.3-0.5
	c-0.2,0-0.4,0-0.6,0.1c0.1,0.1,0.1,0.2,0.1,0.3c0,0.3-0.2,0.4-0.6,0.4c-0.2,0-0.6-0.1-1.1-0.2c-0.3-0.1-0.5-0.2-0.8-0.2
	c-0.2-0.1-0.5-0.1-0.7-0.1c-0.7,0-1.3,0.2-1.8,0.6c-0.5,0.4-0.8,1.1-0.8,2.1c0,0.9,0.3,1.6,0.9,2.2c0.2-0.3,0.5-0.5,0.7-0.6
	C98.5,8.4,98.8,8.2,99,8L99,8L99,8z M114.3,14.6v2.7c-0.9,0.2-1.8,0.4-2.8,0.4c-0.8,0-1.6-0.1-2.2-0.4c-0.7-0.3-1.2-0.6-1.7-1.1
	s-0.8-1.1-1.1-1.7c-0.2-0.7-0.4-1.4-0.4-2.2c0-1.1,0.2-2.1,0.6-2.9c0.4-0.8,1-1.4,1.7-1.8c0.7-0.4,1.5-0.6,2.5-0.6
	c0.7,0,1.4,0.1,2,0.4c0.6,0.3,1.2,0.8,1.7,1.7c0.5,0.8,0.7,2,0.7,3.6c0,0.3,0,0.5,0,0.7h-5.4c-0.2-0.3-0.3-0.7-0.3-1.1
	c0-0.4,0-0.7,0.1-0.9h2.8c0-1.1-0.6-1.7-1.6-1.7c-0.6,0-1.1,0.2-1.5,0.7c-0.3,0.5-0.5,1.1-0.5,1.9c0,0.6,0.1,1.1,0.3,1.5
	c0.2,0.5,0.5,0.8,1,1.1s1.1,0.4,1.9,0.4C112.9,15,113.6,14.9,114.3,14.6L114.3,14.6z M121.3,17.4V9.6c-0.6,0-1.2,0.3-1.6,0.9
	c-0.4,0.6-0.7,1.7-0.7,3.2c0,0.6,0,1.3,0.1,1.8c0.1,0.6,0.1,1.2,0.3,1.8h-3c-0.1-0.4-0.1-0.7-0.2-1.2c0-0.4-0.1-0.9-0.1-1.4
	s0-0.9,0-1.3c0-1.4,0.2-2.6,0.5-3.5c0.4-0.9,0.8-1.6,1.3-2s1-0.7,1.5-0.8s0.9-0.2,1.3-0.2h3.4v10.4h-2.8V17.4z M128.8,7v2.6
	c0.4-0.5,0.8-1,1.2-1.5c0.5-0.5,0.9-0.8,1.3-1.1h2.9v10.4h-2.9v-7.1c-1,0.8-1.8,1.8-2.5,3.2v3.9h-2.9V7H128.8z"/>
<g>
	<path class="st1" d="M78.9,21.2c-0.4,0-0.8,0.2-1.1,0.5c-0.3,0.3-0.4,0.7-0.4,1.3c0,0.4,0.1,0.8,0.3,1.1c0.3,0.4,0.7,0.6,1.3,0.6
		c0.4,0,0.7-0.1,0.9-0.2c0.2-0.2,0.4-0.4,0.5-0.7l0,0l-0.9-0.2l0,0c0,0.1-0.1,0.3-0.2,0.3C79.2,24,79.1,24,79,24
		c-0.2,0-0.3-0.1-0.5-0.2c-0.1-0.1-0.2-0.3-0.2-0.5h2.1l0,0c0-0.7-0.1-1.1-0.4-1.5C79.8,21.3,79.4,21.2,78.9,21.2z M78.4,22.5
		c0-0.2,0.1-0.4,0.2-0.5s0.3-0.2,0.4-0.2c0.2,0,0.3,0.1,0.4,0.2s0.2,0.3,0.2,0.5H78.4z"/>
	<polygon class="st1" points="80.6,22 81.7,22 81.7,24.5 82.6,24.5 82.6,22 83.6,22 83.6,21.2 80.6,21.2 	"/>
	<rect x="83.9" y="22.4" class="st1" width="1.7" height="0.9"/>
	<polygon class="st1" points="63.5,22 64.5,22 64.5,24.5 65.4,24.5 65.4,22 66.4,22 66.4,21.2 63.5,21.2 	"/>
	<polygon class="st1" points="62.1,22.4 61,22.4 61,21.2 60.1,21.2 60.1,24.5 61,24.5 61,23.2 62.1,23.2 62.1,24.5 63.1,24.5 
		63.1,21.2 62.1,21.2 	"/>
	<polygon class="st1" points="57.2,23.1 57.2,21.2 56.3,21.2 56.3,24.5 57.2,24.5 58.5,22.6 58.5,24.5 59.4,24.5 59.4,21.2 
		58.5,21.2 	"/>
	<path class="st1" d="M72,21.2c-0.2,0-0.4,0.1-0.6,0.2c-0.1,0.1-0.3,0.2-0.3,0.3v-0.4h-0.9v4.4h0.9v-1.5c0.1,0.1,0.3,0.2,0.4,0.3
		c0.1,0.1,0.3,0.1,0.5,0.1c0.4,0,0.7-0.2,1-0.5s0.4-0.7,0.4-1.3c0-0.5-0.1-0.9-0.4-1.2C72.7,21.3,72.4,21.2,72,21.2z M72.5,22.8
		c0,0.3-0.1,0.6-0.2,0.7s-0.3,0.2-0.5,0.2s-0.4-0.1-0.5-0.2c-0.1-0.2-0.2-0.4-0.2-0.8c0-0.3,0.1-0.5,0.2-0.7s0.3-0.2,0.5-0.2
		s0.3,0.1,0.5,0.2C72.4,22.3,72.5,22.5,72.5,22.8z"/>
	<polygon class="st1" points="88,23.4 87.2,21.3 87.2,21.2 86.1,21.2 86.1,24.5 86.9,24.5 86.9,22.6 87.5,24.5 87.6,24.5 88.3,24.5 
		89,22.6 89,24.5 89.8,24.5 89.8,21.2 88.7,21.2 	"/>
	<path class="st1" d="M68.1,21.2c-0.4,0-0.8,0.2-1.1,0.5c-0.3,0.3-0.4,0.7-0.4,1.3c0,0.4,0.1,0.8,0.3,1.1c0.3,0.4,0.7,0.6,1.3,0.6
		c0.4,0,0.7-0.1,0.9-0.2c0.2-0.2,0.4-0.4,0.5-0.7l0,0l-0.9-0.2l0,0c0,0.1-0.1,0.3-0.2,0.3C68.4,24,68.3,24,68.2,24
		c-0.2,0-0.3-0.1-0.5-0.2c-0.1-0.1-0.2-0.3-0.2-0.5h2.1l0,0c0-0.7-0.1-1.1-0.4-1.5C69,21.3,68.6,21.2,68.1,21.2z M67.6,22.5
		c0-0.2,0.1-0.4,0.2-0.5s0.3-0.2,0.4-0.2c0.2,0,0.3,0.1,0.4,0.2s0.2,0.3,0.2,0.5H67.6z"/>
	<polygon class="st1" points="76,22.4 74.9,22.4 74.9,21.2 74,21.2 74,24.5 74.9,24.5 74.9,23.2 76,23.2 76,24.5 76.9,24.5 
		76.9,21.2 76,21.2 	"/>
	<path class="st1" d="M93.2,24c0-0.1,0-0.3,0-0.6v-1c0-0.4,0-0.6-0.1-0.8c-0.1-0.1-0.2-0.3-0.4-0.4c-0.2-0.1-0.5-0.1-0.9-0.1
		s-0.7,0.1-1,0.2c-0.2,0.2-0.4,0.4-0.5,0.7l0,0l0.8,0.2l0,0c0-0.1,0.1-0.2,0.2-0.3c0.1-0.1,0.2-0.1,0.3-0.1c0.2,0,0.4,0,0.4,0.1
		c0.1,0.1,0.1,0.2,0.1,0.3v0.1c-0.2,0.1-0.4,0.1-0.8,0.2c-0.1,0.1-0.3,0.2-0.5,0.2c-0.2,0.1-0.3,0.2-0.4,0.3
		c-0.1,0.1-0.1,0.3-0.1,0.5c0,0.3,0.1,0.5,0.3,0.7c0.2,0.2,0.5,0.3,0.8,0.3c0.2,0,0.4,0,0.5-0.1s0.3-0.2,0.4-0.3l0,0
		c0,0.1,0.1,0.2,0.1,0.3l0,0h0.9v-0.1C93.3,24.3,93.2,24.1,93.2,24z M92.3,23L92.3,23c0,0.3,0,0.4,0,0.5s-0.1,0.2-0.2,0.3
		c-0.1,0.1-0.3,0.1-0.4,0.1s-0.2,0-0.3-0.1c-0.1-0.1-0.1-0.2-0.1-0.3c0-0.1,0-0.2,0.1-0.3c0,0,0.2-0.1,0.4-0.1
		C92,23,92.2,23,92.3,23z"/>
	<path class="st1" d="M121.7,21.2c-0.3,0-0.5,0.1-0.7,0.2s-0.3,0.2-0.4,0.4c0-0.3,0.1-0.5,0.2-0.6c0.1-0.2,0.2-0.3,0.4-0.3
		c0.2-0.1,0.4-0.1,0.6-0.1h0.1c0.1,0,0.1,0,0.2,0c0.5,0,0.8-0.1,0.9-0.2s0.2-0.3,0.2-0.6l0,0h-0.6l0,0c0,0.1-0.1,0.1-0.2,0.1H122
		c-0.7,0-1.2,0.2-1.5,0.5s-0.4,0.9-0.4,1.7c0,0.7,0.1,1.1,0.2,1.4s0.3,0.5,0.6,0.7c0.3,0.2,0.6,0.2,0.9,0.2c0.5,0,0.9-0.2,1.2-0.5
		c0.3-0.3,0.5-0.7,0.5-1.2c0-0.4-0.1-0.8-0.4-1.2C122.5,21.4,122.1,21.2,121.7,21.2z M122.1,23.5c-0.1,0.2-0.3,0.2-0.5,0.2
		s-0.4-0.1-0.5-0.2c-0.1-0.2-0.2-0.4-0.2-0.7c0-0.3,0.1-0.5,0.2-0.7s0.3-0.2,0.5-0.2s0.4,0.1,0.5,0.2c0.1,0.2,0.2,0.4,0.2,0.7
		C122.3,23.1,122.2,23.4,122.1,23.5z"/>
	<path class="st1" d="M118,21.2c-0.4,0-0.8,0.2-1.1,0.5c-0.3,0.3-0.4,0.7-0.4,1.3c0,0.4,0.1,0.8,0.3,1.1c0.3,0.4,0.7,0.6,1.3,0.6
		c0.4,0,0.7-0.1,0.9-0.2c0.2-0.2,0.4-0.4,0.5-0.7l0,0l-0.9-0.2l0,0c0,0.1-0.1,0.3-0.2,0.3c-0.1,0.1-0.2,0.1-0.3,0.1
		c-0.2,0-0.3-0.1-0.5-0.2c-0.1-0.1-0.2-0.3-0.2-0.5h2.1l0,0c0-0.7-0.1-1.1-0.4-1.5C118.8,21.3,118.5,21.2,118,21.2z M118.6,22.5
		h-1.2c0-0.2,0.1-0.4,0.2-0.5s0.3-0.2,0.4-0.2c0.2,0,0.3,0.1,0.4,0.2C118.5,22.2,118.6,22.3,118.6,22.5z"/>
	<polygon class="st1" points="114.1,23.4 113.3,21.3 113.3,21.2 112.2,21.2 112.2,24.5 113,24.5 113,22.6 113.7,24.5 113.7,24.5 
		114.5,24.5 115.2,22.6 115.2,24.5 116,24.5 116,21.2 114.9,21.2 	"/>
	<path class="st1" d="M127.5,23.1c0,0.3,0,0.5,0,0.6c0,0,0,0.1-0.2,0.1c0,0-0.1,0-0.2,0s-0.1,0-0.1,0l0,0v0.7l0,0
		c0.2,0,0.4,0.1,0.5,0.1c0.2,0,0.4,0,0.5-0.1c0.1,0,0.2-0.2,0.3-0.3c0.1-0.2,0.1-0.4,0.1-0.8V22h1.1v2.5h0.9v-3.3h-2.9
		C127.5,21.2,127.5,23.1,127.5,23.1z"/>
	<polygon class="st1" points="133.2,21.2 132,23.1 132,21.2 131.1,21.2 131.1,24.5 132,24.5 133.2,22.6 133.2,24.5 134.1,24.5 
		134.1,21.2 	"/>
	<path class="st1" d="M125.1,21.2c-0.4,0-0.8,0.2-1.1,0.5s-0.4,0.7-0.4,1.3c0,0.4,0.1,0.8,0.3,1.1c0.3,0.4,0.7,0.6,1.3,0.6
		c0.4,0,0.7-0.1,0.9-0.2c0.2-0.2,0.4-0.4,0.5-0.7l0,0l-0.9-0.2l0,0c0,0.1-0.1,0.3-0.2,0.3c-0.1,0.1-0.2,0.1-0.3,0.1
		c-0.2,0-0.3-0.1-0.5-0.2c-0.1-0.1-0.2-0.3-0.2-0.5h2.1l0,0c0-0.7-0.1-1.1-0.4-1.5C126,21.3,125.6,21.2,125.1,21.2z M124.6,22.5
		c0-0.2,0.1-0.4,0.2-0.5s0.3-0.2,0.4-0.2c0.2,0,0.3,0.1,0.4,0.2s0.2,0.3,0.2,0.5H124.6z"/>
	<path class="st1" d="M99.2,24c0-0.1,0-0.3,0-0.6v-1c0-0.4,0-0.6-0.1-0.8c-0.1-0.1-0.2-0.3-0.4-0.4c-0.2-0.1-0.5-0.1-0.9-0.1
		s-0.7,0.1-1,0.2c-0.2,0.2-0.4,0.4-0.5,0.7l0,0l0.8,0.2l0,0c0-0.1,0.1-0.2,0.2-0.3c0.1-0.1,0.2-0.1,0.3-0.1c0.2,0,0.4,0,0.4,0.1
		c0.1,0.1,0.1,0.2,0.1,0.3v0.1c-0.2,0.1-0.4,0.1-0.8,0.2c-0.3,0.1-0.5,0.1-0.7,0.2s-0.3,0.2-0.4,0.3c-0.1,0.1-0.1,0.3-0.1,0.5
		c0,0.3,0.1,0.5,0.3,0.7c0.2,0.2,0.5,0.3,0.8,0.3c0.2,0,0.4,0,0.5-0.1s0.3-0.2,0.4-0.3l0,0c0,0.1,0.1,0.2,0.1,0.3l0,0h0.9v-0.1
		C99.3,24.3,99.2,24.1,99.2,24z M98.2,23L98.2,23c0,0.3,0,0.4,0,0.5s-0.1,0.2-0.2,0.3c-0.1,0.1-0.3,0.1-0.4,0.1s-0.2,0-0.3-0.1
		c-0.1-0.1-0.1-0.2-0.1-0.3c0-0.1,0-0.2,0.1-0.3c0,0,0.2-0.1,0.4-0.1C98,23,98.1,23,98.2,23z"/>
	<polygon class="st1" points="93.9,24.5 94.8,24.5 94.8,22 96.1,22 96.1,21.2 93.9,21.2 	"/>
	<path class="st1" d="M101.8,22.8c0.2-0.1,0.3-0.2,0.3-0.3c0.1-0.1,0.1-0.3,0.1-0.4c0-0.3-0.1-0.5-0.3-0.7c-0.2-0.2-0.5-0.3-0.9-0.3
		c-0.3,0-0.6,0.1-0.8,0.2c-0.2,0.1-0.4,0.4-0.5,0.7l0,0l0.8,0.2l0,0l0,0c0.1-0.2,0.1-0.3,0.2-0.3s0.2-0.1,0.3-0.1
		c0.1,0,0.2,0,0.3,0.1c0.1,0.1,0.1,0.2,0.1,0.3c0,0.1,0,0.2-0.1,0.2c-0.1,0.1-0.1,0.1-0.2,0.1s-0.2,0-0.3,0l0,0v0.6h0.2
		c0.2,0,0.3,0,0.4,0.1s0.1,0.1,0.1,0.3c0,0.1,0,0.2-0.1,0.3s-0.2,0.1-0.4,0.1c-0.3,0-0.5-0.1-0.6-0.4l0,0l-0.8,0.1l0,0l0,0
		c0.2,0.6,0.7,0.9,1.4,0.9c0.4,0,0.8-0.1,1-0.3c0.2-0.2,0.4-0.4,0.4-0.7c0-0.2-0.1-0.4-0.2-0.5C102.1,23,102,22.9,101.8,22.8z"/>
	<polygon class="st1" points="103.9,23.1 103.9,21.2 103,21.2 103,24.5 103.9,24.5 105.1,22.6 105.1,24.5 106,24.5 106,21.2 
		105.1,21.2 	"/>
	<polygon class="st1" points="108.8,22.4 107.7,22.4 107.7,21.2 106.7,21.2 106.7,24.5 107.7,24.5 107.7,23.2 108.8,23.2 
		108.8,24.5 109.7,24.5 109.7,21.2 108.8,21.2 	"/>
</g>
<g>
	<rect x="2.5" y="3.9" class="st1" width="26.1" height="23"/>
	<path class="st2" d="M29.4,27.6H1.8V3.2h27.5v24.4H29.4z M3.3,26.2H28V4.6H3.3V26.2z"/>
</g>
<g>
	<path class="st2" d="M4.7,24.4H5c0,0.1,0,0.2,0,0.2c0,0.1,0.1,0.1,0.2,0.2c0.1,0,0.2,0.1,0.3,0.1c0.1,0,0.3,0,0.3-0.1
		C5.9,24.7,6,24.6,6,24.5s0-0.1-0.1-0.2c0-0.1-0.2-0.1-0.3-0.2C5.4,24,5.3,24,5.3,23.9c-0.1,0-0.1-0.1-0.2-0.2C5,23.8,5,23.7,5,23.6
		c0-0.2,0.1-0.3,0.2-0.4S5.5,23,5.7,23s0.4,0.1,0.6,0.2c0.1,0.1,0.2,0.3,0.2,0.4H6.2c0-0.1,0-0.2-0.1-0.3c-0.1-0.1-0.2-0.1-0.3-0.1
		c-0.1,0-0.2,0-0.3,0.1c-0.1,0.1-0.1,0.1-0.1,0.2s0,0.1,0.1,0.2c0,0,0.1,0.1,0.3,0.1c0.3,0.1,0.4,0.2,0.5,0.3
		c0.1,0.1,0.2,0.2,0.2,0.4c0,0.1,0,0.2-0.1,0.3C6.3,24.9,6.3,25,6.1,25c-0.1,0.1-0.3,0.1-0.4,0.1c-0.2,0-0.4-0.1-0.6-0.2
		C4.8,24.8,4.7,24.6,4.7,24.4L4.7,24.4z M7.9,24.8C7.8,24.9,7.7,25,7.6,25c-0.1,0-0.2,0.1-0.3,0.1c-0.2,0-0.3-0.1-0.4-0.2
		s-0.2-0.2-0.2-0.4c0-0.1,0-0.2,0.1-0.3c0-0.1,0.1-0.1,0.2-0.2c0.1,0,0.2-0.1,0.3-0.1c0.1,0,0.2,0,0.4,0c0.2,0,0.4,0,0.4-0.1
		s0-0.2,0-0.2c0-0.1,0-0.1-0.1-0.2s-0.2-0.1-0.3-0.1c-0.1,0-0.3,0-0.3,0.1c-0.1,0.1-0.2,0.1-0.2,0.3H6.9c0.1-0.2,0.2-0.3,0.3-0.4
		c0.1-0.1,0.3-0.2,0.6-0.2c0.2,0,0.4,0.1,0.6,0.2c0.1,0.1,0.2,0.2,0.2,0.3c0,0.1,0,0.2,0,0.4l-0.1,0.5c0,0.2-0.1,0.3-0.1,0.4
		s0,0.1,0,0.3H7.9C7.9,25,7.9,24.9,7.9,24.8L7.9,24.8z M8,24.1L8,24.1c-0.2,0-0.2,0-0.4,0c-0.2,0-0.3,0-0.4,0.1
		c-0.1,0-0.1,0.1-0.2,0.1c0,0.1-0.1,0.1-0.1,0.2c0,0.1,0.1,0.2,0.1,0.2c0.1,0.1,0.2,0.1,0.3,0.1c0.1,0,0.2,0,0.3-0.1
		c0.1-0.1,0.2-0.1,0.2-0.2C7.9,24.4,7.9,24.3,8,24.1L8,24.1z M8.5,25.8v-0.3c0.1,0,0.1,0,0.2,0c0.1,0,0.1,0,0.2,0
		c0.1,0,0.1-0.1,0.2-0.2l0.1-0.2l-0.3-1.9h0.3l0.1,1c0,0.2,0.1,0.4,0.1,0.6l0.9-1.5h0.3l-1.2,2.2c-0.2,0-0.3,0.1-0.4,0.2
		s-0.2,0.1-0.3,0.1C8.6,25.8,8.6,25.8,8.5,25.8L8.5,25.8z M11.2,24.8c-0.1,0-0.1,0-0.2,0c-0.1,0-0.1,0-0.1,0v-0.1c0,0,0-0.1,0-0.2
		l0.2-1.1h0.3l0.1-0.3h-0.3l0.1-0.7L11,22.6l-0.1,0.5h-0.3l-0.1,0.3h0.3l-0.2,1.1c0,0.2,0,0.2,0,0.3c0,0.1,0,0.1,0.1,0.2
		s0.2,0.1,0.3,0.1s0.1,0,0.2,0V24.8L11.2,24.8z M11.5,25l0.4-1.9h0.3l-0.1,0.3c0.1-0.1,0.2-0.2,0.3-0.3c0.1-0.1,0.2-0.1,0.3-0.1
		s0.2,0,0.3,0.1s0.1,0.2,0.2,0.3c0.1-0.1,0.2-0.2,0.3-0.3c0.1-0.1,0.2-0.1,0.3-0.1c0.2,0,0.3,0,0.4,0.1c0.1,0.1,0.1,0.2,0.1,0.3
		c0,0.1,0,0.2,0,0.3L14,24.9h-0.3l0.3-1.3c0-0.1,0-0.2,0-0.2c0-0.1,0-0.1-0.1-0.1c0,0-0.1-0.1-0.2-0.1c-0.1,0-0.2,0-0.3,0.1
		s-0.2,0.1-0.2,0.2c-0.1,0.1-0.1,0.2-0.1,0.4L13,25h-0.3l0.3-1.3c0-0.1,0-0.2,0-0.2c0-0.1,0-0.1-0.1-0.2c0,0-0.1-0.1-0.2-0.1
		c-0.1,0-0.2,0-0.3,0.1s-0.2,0.1-0.2,0.2c-0.1,0.1-0.1,0.3-0.2,0.5l-0.2,0.9L11.5,25L11.5,25z M16,24.4h0.3c0,0.2-0.2,0.3-0.3,0.5
		c-0.2,0.1-0.4,0.2-0.6,0.2c-0.1,0-0.3,0-0.4-0.1c-0.1-0.1-0.2-0.2-0.3-0.3c-0.1-0.1-0.1-0.3-0.1-0.4c0-0.2,0-0.4,0.1-0.6
		s0.2-0.3,0.4-0.4s0.3-0.1,0.5-0.1s0.4,0.1,0.5,0.2s0.2,0.3,0.2,0.6c0,0.1,0,0.2,0,0.3H15v0.1c0,0.2,0,0.3,0.1,0.4s0.2,0.1,0.3,0.1
		s0.2,0,0.3-0.1C15.9,24.6,15.9,24.5,16,24.4L16,24.4z M15.1,23.9h1.1v-0.1c0-0.2,0-0.3-0.1-0.4s-0.2-0.1-0.3-0.1s-0.3,0-0.4,0.1
		C15.2,23.6,15.1,23.7,15.1,23.9L15.1,23.9z M16.7,25l0.6-2.7h0.3l-0.2,0.9c0.1-0.1,0.2-0.2,0.3-0.2c0.1,0,0.2-0.1,0.3-0.1
		c0.2,0,0.3,0.1,0.4,0.2s0.2,0.3,0.2,0.6c0,0.2,0,0.3-0.1,0.5c0,0.1-0.1,0.3-0.2,0.4s-0.1,0.2-0.2,0.2c-0.1,0.1-0.2,0.1-0.2,0.1
		c-0.1,0-0.2,0-0.2,0c-0.1,0-0.2,0-0.3-0.1c-0.1-0.1-0.2-0.2-0.2-0.3l-0.1,0.4L16.7,25L16.7,25z M17.1,24.3L17.1,24.3
		c0,0.2,0,0.4,0.1,0.4c0.1,0.1,0.2,0.1,0.3,0.1c0.1,0,0.2,0,0.3-0.1c0.1-0.1,0.2-0.2,0.2-0.4c0.1-0.2,0.1-0.3,0.1-0.5s0-0.3-0.1-0.4
		s-0.2-0.1-0.3-0.1c-0.1,0-0.2,0-0.3,0.1c-0.1,0.1-0.2,0.2-0.2,0.4S17.1,24.2,17.1,24.3L17.1,24.3z M20.1,24.4h0.3
		c0,0.2-0.2,0.3-0.3,0.5c-0.2,0.1-0.4,0.2-0.6,0.2c-0.1,0-0.3,0-0.4-0.1s-0.2-0.2-0.3-0.3c-0.1-0.1-0.1-0.3-0.1-0.4
		c0-0.2,0-0.4,0.1-0.6s0.2-0.3,0.4-0.4c0.2-0.1,0.3-0.1,0.5-0.1s0.4,0.1,0.5,0.2s0.2,0.3,0.2,0.6c0,0.1,0,0.2,0,0.3H19v0.1
		c0,0.2,0,0.3,0.1,0.4s0.2,0.1,0.3,0.1c0.1,0,0.2,0,0.3-0.1C20,24.6,20.1,24.5,20.1,24.4L20.1,24.4z M19.2,23.9h1.1v-0.1
		c0-0.2,0-0.3-0.1-0.4s-0.2-0.1-0.3-0.1c-0.1,0-0.3,0-0.4,0.1C19.3,23.6,19.2,23.7,19.2,23.9L19.2,23.9z M20.8,25l0.6-2.7h0.3
		L21.1,25H20.8L20.8,25z M22.1,22.8l0.1-0.4h0.3l-0.1,0.4H22.1L22.1,22.8z M21.6,25h0.3l0.4-1.9H22L21.6,25L21.6,25z M22.5,25
		l0.1-0.4H23L22.9,25H22.5L22.5,25z M23.5,25l0.4-1.9h0.3l-0.1,0.4c0.1-0.1,0.2-0.3,0.3-0.3c0.1-0.1,0.2-0.1,0.3-0.1
		c0.1,0,0.1,0,0.2,0.1l-0.1,0.3c-0.1,0-0.1-0.1-0.2-0.1s-0.2,0.1-0.4,0.2c-0.1,0.1-0.2,0.4-0.3,0.7l-0.2,0.8L23.5,25L23.5,25z
		 M26,24.7L25.9,25h0.3l0.4-1.9h-0.3l-0.2,0.8c0,0.2-0.1,0.3-0.1,0.3c0,0.1-0.1,0.2-0.2,0.3c-0.1,0.1-0.1,0.1-0.2,0.2
		c-0.1,0-0.2,0.1-0.3,0.1c-0.1,0-0.2,0-0.2-0.1c0,0-0.1-0.1-0.1-0.2s0-0.1,0-0.2l0.3-1.2H25l-0.2,1.1c0,0.2-0.1,0.3-0.1,0.4
		s0,0.2,0.1,0.3C24.9,25,25,25,25.2,25C25.5,25.1,25.8,25,26,24.7z"/>
	<path class="st2" d="M8.7,25.9c-0.1,0-0.2,0-0.3,0H8.3v-0.5h0.1c0.1,0,0.2,0.1,0.3,0c0,0,0.1-0.1,0.1-0.2L9,25l-0.3-2h0.5l0.2,1.1
		c0,0.1,0,0.2,0,0.2l0.7-1.3h0.6l0.1-0.4l0.6-0.4L11.2,23h0.3l-0.1,0.5h-0.3l-0.2,1c0,0.2,0,0.2,0,0.2l0,0c0.1,0,0.1,0,0.2,0h0.2
		l-0.1,0.5h-0.1c-0.2,0.1-0.5,0-0.6-0.1s-0.1-0.2-0.1-0.3c0,0,0-0.1,0-0.3l0.2-1h-0.2l-1.1,1.9c-0.1,0.2-0.2,0.4-0.3,0.5
		C9,25.9,8.9,25.9,8.7,25.9z M8.6,25.7c0.1,0,0.3,0,0.4-0.1c0.1,0,0.1-0.1,0.3-0.4l1.1-2h-0.1l-1,1.8v-0.3c0-0.2,0-0.4-0.1-0.6
		l-0.1-0.9H9L9.3,25l-0.1,0.2c-0.1,0.1-0.1,0.2-0.2,0.3C8.9,25.6,8.7,25.6,8.6,25.7L8.6,25.7z M10.7,23.3H11l-0.3,1.2
		c0,0.2,0,0.3,0,0.3c0,0.1,0,0.1,0,0.1c0.1,0.1,0.2,0.1,0.4,0.1v-0.1c-0.1,0-0.2,0-0.2-0.1c0,0-0.1-0.1-0.1-0.2c0,0,0-0.1,0-0.3
		l0.2-1.1h0.3l0,0H11l0.1-0.6l0,0.1L11,23.2L10.7,23.3L10.7,23.3z M25.3,25.2c-0.2,0-0.3-0.1-0.4-0.2s-0.2-0.2-0.2-0.4
		c0-0.1,0-0.2,0.1-0.4l0.2-0.9l-0.2,0.3l-0.1-0.1c-0.1-0.1-0.2,0-0.4,0.1c-0.1,0.1-0.2,0.3-0.3,0.6l-0.2,0.9h-0.5l0.4-2.1h0.5v0.1
		l0,0c0.2-0.1,0.4-0.2,0.6,0h0.1V23h0.5l-0.3,1.4c0,0.1,0,0.2,0,0.2c0,0.1,0,0.1,0,0.1h0.1c0.1,0,0.1,0,0.2-0.1
		c0.1,0,0.1-0.1,0.2-0.2s0.1-0.1,0.1-0.2c0,0,0-0.1,0.1-0.3L26,23h0.5l-0.4,2.1h-0.5V25C25.7,25.1,25.5,25.2,25.3,25.2z M25.2,23.2
		l-0.2,1c0,0.2-0.1,0.3-0.1,0.4s0,0.2,0.1,0.2c0.1,0.1,0.4,0.1,0.6,0c-0.2,0.1-0.4,0-0.5-0.1c0,0.1-0.1,0-0.1-0.1s0-0.1,0-0.3
		L25.2,23.2L25.2,23.2z M26.1,24.9L26.1,24.9l0.4-1.7h-0.1l-0.2,0.7c0,0.2-0.1,0.3-0.1,0.4c0,0,0,0,0,0.1l0.1-0.1L26.1,24.9z
		 M23.6,24.9L23.6,24.9l0.2-0.7c0-0.1,0-0.2,0.1-0.3L23.8,24l0.2-0.8h-0.1L23.6,24.9z M24.6,23.2c-0.1,0-0.2,0-0.2,0.1
		c0,0-0.1,0-0.1,0.1c0.1-0.1,0.3-0.1,0.4,0L24.6,23.2C24.7,23.2,24.7,23.2,24.6,23.2z M19.5,25.2c-0.2,0-0.3,0-0.4-0.1
		s-0.2-0.2-0.3-0.3c-0.1-0.1-0.1-0.3-0.1-0.5s0.1-0.4,0.2-0.7c0.1-0.2,0.2-0.4,0.4-0.5c0.2-0.1,0.4-0.2,0.6-0.2
		c0.3,0,0.5,0.1,0.6,0.2c0.2,0.2,0.2,0.4,0.2,0.7c0,0.1,0,0.2,0,0.3v0.1h-1.4c0,0.1,0,0.3,0.1,0.3c0.1,0.1,0.3,0.1,0.5,0
		c0.1-0.1,0.2-0.2,0.2-0.3v-0.1l0.5,0.1v0.1c-0.1,0.2-0.2,0.3-0.3,0.5C20,25.1,19.8,25.2,19.5,25.2z M19.8,23.2
		c-0.2,0-0.3,0-0.4,0.1s-0.2,0.2-0.3,0.4C19,23.9,19,24.1,19,24.3c0,0.1,0,0.3,0.1,0.4s0.1,0.2,0.2,0.2c0.1,0.1,0.2,0.1,0.3,0.1
		c0.2,0,0.4-0.1,0.5-0.2s0.2-0.2,0.2-0.3h-0.1c-0.1,0.1-0.2,0.2-0.3,0.3c-0.3,0.2-0.6,0.2-0.8,0C19,24.7,19,24.5,19,24.3v-0.1v-0.1
		h1.4c0-0.1,0-0.1,0-0.2c0-0.2-0.1-0.4-0.2-0.5C20.2,23.2,20,23.2,19.8,23.2z M17.6,25.2c-0.1,0-0.3,0-0.4-0.1L17.1,25v0.2h-0.5
		l0.6-2.9h0.5l-0.2,0.8c0,0,0,0,0.1,0s0.2-0.1,0.3-0.1c0.2,0,0.4,0.1,0.5,0.2c0.1,0.2,0.2,0.4,0.2,0.7c0,0.2,0,0.4-0.1,0.5
		c-0.1,0.2-0.1,0.3-0.2,0.4s-0.2,0.2-0.2,0.3c-0.1,0.1-0.2,0.1-0.3,0.1C17.8,25.2,17.7,25.2,17.6,25.2z M17.2,24.8l0.1,0.1
		c0.1,0.1,0.3,0.1,0.5,0c0.1,0,0.1-0.1,0.2-0.1c0.1-0.1,0.1-0.1,0.2-0.2s0.1-0.2,0.2-0.3c0-0.1,0.1-0.3,0.1-0.4
		c0-0.2-0.1-0.4-0.2-0.5s-0.2-0.2-0.4-0.2c-0.1,0-0.1,0-0.2,0c0,0,0,0-0.1,0c0.2-0.1,0.4,0,0.5,0.1s0.1,0.3,0.1,0.4
		c0,0.2,0,0.3-0.1,0.5s-0.2,0.3-0.3,0.4C17.7,25,17.4,25,17.2,24.8z M16.8,24.9L16.8,24.9l0.2-0.6l0.1,0.1v-0.1v-0.1
		c0-0.1,0-0.2,0.1-0.4c0-0.1,0.1-0.2,0.1-0.3l-0.1,0.1l0.2-1.1h-0.1L16.8,24.9z M17.8,23.4c-0.1,0-0.2,0-0.3,0.1
		c-0.1,0.1-0.2,0.2-0.2,0.4c0,0.1-0.1,0.2-0.1,0.3v0.1c0,0.1,0,0.2,0.1,0.3c0.1,0.1,0.3,0.1,0.5,0c0.1-0.1,0.1-0.2,0.2-0.3
		c0.1-0.2,0.1-0.3,0.1-0.4s0-0.2-0.1-0.3C17.9,23.5,17.9,23.4,17.8,23.4z M15.4,25.2c-0.2,0-0.3,0-0.4-0.1c-0.1-0.1-0.2-0.2-0.3-0.3
		c-0.1-0.1-0.1-0.3-0.1-0.5s0.1-0.4,0.2-0.7c0.1-0.2,0.2-0.4,0.4-0.5s0.4-0.2,0.6-0.2c0.3,0,0.5,0.1,0.6,0.2
		c0.2,0.2,0.2,0.4,0.2,0.7c0,0.1,0,0.2,0,0.3v0.1h-1.4c0,0.1,0,0.3,0.1,0.3c0.1,0.1,0.3,0.1,0.5,0c0.1-0.1,0.2-0.2,0.2-0.3v-0.1
		l0.5,0.1v0.1c-0.1,0.2-0.2,0.3-0.3,0.5C15.9,25.1,15.7,25.2,15.4,25.2z M15.7,23.2c-0.2,0-0.3,0-0.4,0.1c-0.1,0.1-0.2,0.2-0.3,0.4
		c-0.1,0.2-0.1,0.4-0.1,0.6c0,0.1,0,0.3,0.1,0.4s0.1,0.2,0.2,0.2c0.1,0.1,0.2,0.1,0.3,0.1c0.2,0,0.4-0.1,0.5-0.2s0.2-0.2,0.2-0.3
		h-0.1c-0.1,0.1-0.2,0.2-0.3,0.3C15.5,25,15.2,25,15,24.7c-0.1-0.1-0.1-0.3-0.1-0.5v-0.1V24h1.4c0-0.1,0-0.1,0-0.2
		c0-0.2-0.1-0.4-0.2-0.5C16,23.2,15.9,23.2,15.7,23.2z M7.2,25.2c-0.2,0-0.4-0.1-0.5-0.2s-0.2-0.3-0.2-0.5c0-0.1,0-0.2,0.1-0.3
		C6.7,24.1,6.7,24,6.8,24c0.1-0.1,0.2-0.1,0.3-0.1c0.1,0,0.2,0,0.4,0c0.2,0,0.3,0,0.4,0c0-0.1,0-0.1,0-0.1v-0.1
		c-0.1,0-0.1-0.1-0.3-0.1c-0.1,0-0.2,0-0.3,0.1c-0.1,0-0.1,0.1-0.2,0.2V24H6.5v-0.1c0.1-0.2,0.2-0.4,0.4-0.5s0.4-0.2,0.6-0.2
		c0.3,0,0.5,0.1,0.6,0.2s0.2,0.2,0.2,0.4c0,0.1,0,0.2,0,0.4l-0.1,0.5c0,0.1,0,0.3,0,0.3c0,0.1,0,0.1,0,0.2v0.1H7.8v-0.1
		c0,0,0,0,0-0.1c-0.1,0-0.1,0.1-0.2,0.1C7.5,25.2,7.3,25.2,7.2,25.2z M7.9,24c-0.1,0-0.2,0-0.3,0c-0.2,0-0.4,0-0.4,0
		c-0.1,0-0.2,0.1-0.3,0.1c-0.1,0-0.1,0.1-0.2,0.2c0,0.1-0.1,0.1-0.1,0.2s0,0.2,0.1,0.3c0.1,0.1,0.2,0.1,0.4,0.1c0.1,0,0.2,0,0.3-0.1
		l0,0c-0.2,0.1-0.4,0-0.6-0.1c-0.1-0.1-0.1-0.2-0.1-0.3c0-0.1,0-0.2,0.1-0.3c0.2,0.1,0.2,0,0.3,0S7.3,24,7.5,24
		C7.7,24,7.8,24,7.9,24C7.8,24,7.9,24,7.9,24z M8,24.9h0.1c0-0.1,0-0.1,0-0.2s0-0.2,0.1-0.4l0.1-0.5c0-0.1,0-0.2,0-0.3
		c0-0.1,0-0.2-0.1-0.2c-0.1-0.1-0.3-0.1-0.5-0.1s-0.4,0-0.5,0.1S7,23.4,7,23.6h0.1c0-0.1,0.1-0.2,0.2-0.2c0.1-0.1,0.2-0.1,0.4-0.1
		c0.2,0,0.3,0,0.4,0.1c0.1,0.1,0.1,0.2,0.1,0.3c0,0.1,0,0.2,0,0.3v0.1v0.2c0,0.2-0.1,0.4-0.1,0.5c0,0,0,0,0,0.1h0.1v0.2
		C8,24.8,8,24.9,8,24.9z M7.8,24.2c-0.1,0-0.1,0-0.3,0c-0.2,0-0.3,0-0.4,0.1c-0.1,0-0.1,0-0.1,0.1v0.1c0,0.1,0,0.1,0.1,0.1
		c0.1,0.1,0.3,0.1,0.5,0.1c0.1,0,0.1-0.1,0.2-0.2C7.8,24.4,7.8,24.3,7.8,24.2z M5.5,25.2c-0.2,0-0.5-0.1-0.6-0.2
		c-0.2-0.1-0.3-0.3-0.3-0.6v-0.1h0.5v0.1c0,0.1,0,0.1,0,0.2l0.1,0.1c0.1,0,0.1,0,0.2,0s0.2,0,0.3-0.1c0.1,0,0.1-0.1,0.1-0.1v-0.1
		c0,0-0.1-0.1-0.3-0.2c-0.2-0.1-0.3-0.1-0.3-0.2C5.1,24.1,5,24,5,23.9c-0.1-0.1-0.1-0.2-0.1-0.3c0-0.2,0.1-0.3,0.2-0.5
		c0.1-0.1,0.3-0.2,0.6-0.2c0.3,0,0.5,0.1,0.6,0.2s0.2,0.3,0.2,0.5v0.1H6l0,0c0-0.1,0-0.2-0.1-0.2s-0.1-0.1-0.3-0.1
		c-0.1,0-0.2,0-0.2,0.1c-0.1,0-0.1,0.1-0.1,0.1s0,0,0,0.1c0,0,0.1,0,0.3,0.1C6,24,6.1,24,6.1,24.1c0.1,0.1,0.2,0.3,0.2,0.4
		s0,0.2-0.1,0.3C6.1,24.9,6,25,5.9,25.1C5.9,25.2,5.7,25.2,5.5,25.2z M4.8,24.5c0,0.2,0.1,0.3,0.2,0.3c0.1,0.1,0.3,0.1,0.5,0.1
		c0.1,0,0.3,0,0.4-0.1c0.1,0,0.2-0.1,0.2-0.2s0.1-0.1,0.1-0.2s0-0.2-0.1-0.3c0,0-0.1-0.1-0.4-0.2c-0.2-0.1-0.3-0.1-0.3-0.2
		c-0.1-0.1-0.1-0.2-0.1-0.2c0-0.1,0-0.2,0.1-0.3c0.1-0.1,0.2-0.1,0.3-0.1c0.2,0,0.3,0,0.4,0.1s0.1,0.1,0.1,0.2h0.1
		c0-0.1-0.1-0.2-0.1-0.3C6.1,23,5.9,23,5.7,23s-0.3,0-0.4,0.1s-0.1,0.2-0.1,0.3c0,0.1,0,0.1,0,0.2s0.1,0.1,0.1,0.1s0.1,0.1,0.3,0.2
		C5.8,24,5.9,24.1,6,24.1c0.1,0.1,0.1,0.1,0.1,0.2s0,0.2-0.1,0.3c-0.1,0.1-0.2,0.1-0.4,0.1c-0.1,0-0.2,0-0.3-0.1
		c-0.2,0.2-0.3,0.1-0.3,0s0-0.1,0-0.2L4.8,24.5z M23,25.1h-0.6l0.1-0.6h0.6L23,25.1z M22.6,24.9h0.1v-0.2h-0.1V24.9z M22,25.1h-0.5
		l0.4-2.1h0.5L22,25.1z M21.7,24.9h0.1l0.4-1.7h-0.1L21.7,24.9z M21.2,25.1h-0.5l0.6-2.9h0.5L21.2,25.1z M20.9,24.9H21l0.5-2.4h-0.1
		L20.9,24.9z M14.2,25.1h-0.5l0.3-1.4c0-0.1,0-0.2,0-0.2v-0.1h-0.1c-0.1,0-0.2,0-0.2,0.1c-0.1,0-0.1,0.1-0.2,0.2
		c0,0.1-0.1,0.2-0.1,0.4l-0.2,1h-0.5l0.3-1.4c0-0.1,0-0.1,0-0.2v-0.1c0,0-0.2,0-0.3,0c-0.1,0.1-0.2,0.1-0.2,0.2
		c-0.1,0.1-0.1,0.2-0.1,0.4l-0.2,1h-0.5l0.4-2.1h0.5V23c0,0,0.1,0,0.1-0.1c0.2-0.1,0.5-0.1,0.7,0c0.1,0,0.1,0.1,0.1,0.1
		c0.1-0.1,0.1-0.1,0.2-0.2c0.1-0.1,0.3-0.1,0.4-0.1c0.2,0,0.3,0,0.4,0.1c0.1,0.1,0.2,0.2,0.2,0.4c0,0.1,0,0.2,0,0.3L14.2,25.1z
		 M13.9,24.9H14l0.2-1.2c0-0.2,0-0.2,0-0.3c0-0.1,0-0.2-0.1-0.2c-0.1-0.1-0.4-0.1-0.6,0c0,0,0,0-0.1,0c0.2-0.1,0.4-0.1,0.5,0
		c0,0,0.1,0.1,0.1,0.2s0,0.1,0,0.2L13.9,24.9z M12.8,24.9h0.1l0.2-0.8c0-0.2,0.1-0.3,0.1-0.5v-0.2c0-0.1-0.1-0.2-0.1-0.2
		c-0.1-0.1-0.3-0.1-0.5,0c0,0,0,0-0.1,0c0.2-0.1,0.4-0.1,0.5,0s0.1,0.1,0.1,0.2c0,0,0,0.1,0,0.2L12.8,24.9z M11.6,24.9h0.1l0.2-0.8
		c0-0.1,0.1-0.3,0.1-0.3l0,0l0.1-0.6H12L11.6,24.9z M20.4,24H19v-0.1c0.1-0.2,0.2-0.4,0.3-0.5c0.3-0.2,0.6-0.2,0.8,0
		c0.1,0.1,0.2,0.3,0.2,0.5L20.4,24z M19.3,23.8h0.8c0-0.1,0-0.2-0.1-0.3c-0.1-0.1-0.4-0.1-0.6,0C19.4,23.6,19.4,23.7,19.3,23.8z
		 M16.2,24h-1.3v-0.1c0.1-0.2,0.2-0.4,0.3-0.5c0.3-0.2,0.6-0.2,0.8,0C16.1,23.5,16.2,23.7,16.2,24L16.2,24z M15.2,23.8H16
		c0-0.1,0-0.2-0.1-0.3c-0.1-0.1-0.4-0.1-0.6,0C15.3,23.6,15.3,23.7,15.2,23.8z M22.5,22.9H22l0.1-0.6h0.5L22.5,22.9z M22.2,22.7h0.1
		v-0.2h-0.1V22.7z"/>
</g>
<g>
	<polygon class="st2" points="12,5.7 15.8,5.7 14.7,11.3 	"/>
	<path class="st2" d="M14.8,11.6l-2.9-6H16L14.8,11.6z M12.2,5.8l2.5,5.2l1-5.2H12.2z"/>
</g>
<g>
	<polygon class="st0" points="11.6,20.9 15.7,10.8 15.8,20.9 	"/>
	<path class="st0" d="M15.9,21h-4.4l0.1-0.1l4.3-10.6L15.9,21z M11.8,20.8h3.9l-0.1-9.4L11.8,20.8z"/>
</g>
<g>
	<polygon class="st2" points="9,20.9 13.7,15.3 11.6,20.9 	"/>
	<path class="st2" d="M11.7,21h-3l5.3-6.3L11.7,21z M9.2,20.8h2.3l1.8-4.9L9.2,20.8z"/>
</g>
<g>
	<polygon class="st2" points="6.4,8.6 5.8,9.4 5.5,10.1 5.2,10.7 5.1,11 4.8,12 4.7,12.4 4.6,12.7 4.5,13 4.5,13.4 4.4,13.7 
		4.3,14.2 4.3,16.2 4.4,16.5 4.4,16.8 4.5,17.1 4.5,17.4 4.6,17.6 4.7,17.9 4.8,18.2 4.9,18.6 5,18.9 5.1,19.1 5.2,19.2 5.3,19.3 
		5.4,19.5 5.5,19.6 5.6,19.8 5.8,19.9 5.9,20 6,20.1 6.1,20.2 6.2,20.3 6.4,20.5 6.7,20.6 6.9,20.7 7.3,20.9 8.4,20.9 9.4,15.8 
		11.4,5.7 10.5,5.7 10.4,5.7 10.1,5.8 9.6,6 9,6.3 8.1,6.9 7.5,7.4 7,7.9 	"/>
	<path class="st2" d="M8.5,21H7.3l-0.4-0.1l-0.5-0.3l-0.6-0.5l-0.6-0.8L5,19.1l-0.1-0.2l-0.2-0.7l-0.3-0.9l-0.2-1.1v-2.1l0.2-1.2
		l0.2-1.1l0.3-1L5.3,10l0.4-0.7l0.6-0.8l0.6-0.7l1.2-1L9,6.2l0.7-0.3L10,5.7l0.3-0.1h1.1L9.5,15.8L8.5,21z M7.3,20.8h1l1-5l1.9-10
		h-0.8l-0.3,0.1L9.7,6.1L9.1,6.4L8.2,7L7.1,8L6.5,8.7L5.9,9.5l-0.4,0.7L5.1,11l-0.3,1l-0.4,1.8l-0.1,0.4v2l0.1,0.5l0.2,0.8l0.2,0.6
		L5,18.8l0.1,0.1l0.2,0.3l0.5,0.6L6,20l0.1,0.1l0.3,0.2l0.5,0.3L7.3,20.8z"/>
</g>
<g>
	<polygon class="st0" points="17.8,5.7 21,5.7 21.2,20.9 16.7,20.9 16.6,8.3 	"/>
	<path class="st0" d="M21.3,21h-4.7L16.5,8.3l0,0l1.2-2.7h3.4L21.3,21z M16.8,20.8h4.3L21,5.8h-3.1l-1.1,2.6L16.8,20.8z"/>
</g>
<g>
	<polygon class="st0" points="23.2,5.7 26.6,5.7 26.6,20.8 22.1,20.8 22.1,8.3 	"/>
	<path class="st0" d="M26.7,21h-4.8v-0.1V8.3L23,5.6h3.6L26.7,21L26.7,21z M22.2,20.7h4.3V5.8h-3.2l-1.1,2.6L22.2,20.7z"/>
</g>
<path class="st1" d="M30.6,29h-30V1.7h30V29z M2,27.5h27.2V3.2H2V27.5z"/>
</svg>
