<?xml version="1.0" encoding="utf-8"?>
<!-- Generator: Adobe Illustrator 23.1.0, SVG Export Plug-In . SVG Version: 6.00 Build 0)  -->
<svg version="1.1" xmlns="http://www.w3.org/2000/svg" xmlns:xlink="http://www.w3.org/1999/xlink" x="0px" y="0px"
	 viewBox="0 0 137.9 30.7" style="enable-background:new 0 0 137.9 30.7;" xml:space="preserve">
<style type="text/css">
	.st0{fill:#314368;}
	.st1{fill-rule:evenodd;clip-rule:evenodd;fill:#F49520;}
	.st2{fill-rule:evenodd;clip-rule:evenodd;fill:#314368;stroke:#314368;stroke-width:0.216;stroke-miterlimit:22.9256;}
	.st3{fill-rule:evenodd;clip-rule:evenodd;fill:#FFFFFF;stroke:#314368;stroke-width:1.4173;stroke-miterlimit:22.9256;}
	.st4{fill-rule:evenodd;clip-rule:evenodd;fill:#F49520;stroke:#F49520;stroke-width:0.216;stroke-miterlimit:22.9256;}
	.st5{fill-rule:evenodd;clip-rule:evenodd;fill:none;stroke:#FFFFFF;stroke-width:1.4173;stroke-miterlimit:22.9256;}
	.st6{fill:#FFFFFF;}
	.st7{fill-rule:evenodd;clip-rule:evenodd;fill:#FFFFFF;}
	.st8{fill-rule:evenodd;clip-rule:evenodd;fill:#314368;}
	.st9{fill:#F49520;}
</style>
<g id="Слой_1">
	<rect x="-3.9" y="39.9" class="st0" width="143.4" height="43.3"/>
	<path class="st1" d="M38.8,3.1l-2.8,12.6c-0.8,0-1.4-0.2-2-0.6c-0.5-0.3-0.9-0.9-1.2-1.5c-0.3-0.7-0.4-1.4-0.5-2.1
		c0-0.7,0-1.5,0.2-2.3c0.2-1,0.5-1.9,0.9-2.6c0.4-0.7,0.9-1.4,1.5-1.9c0.6-0.5,1.2-0.9,1.8-1.2C37.5,3.3,38.1,3.1,38.8,3.1L38.8,3.1
		L38.8,3.1z M40.9,10.9L40.9,10.9l-4.4,4.8H40L40.9,10.9L40.9,10.9z M42.3,3.1l-1,4.7l-2-4.7H42.3L42.3,3.1z M42.3,7.9
		c0.7-0.2,1.1-0.2,1.7-0.2c0.7,0,1.3,0.2,1.7,0.5c0.4,0.3,0.6,0.7,0.7,1.1c0.1,0.4,0.1,0.9,0.1,1.4v2.4h-1.7c-0.3,0-0.5-0.1-0.7-0.2
		c-0.2-0.2-0.3-0.4-0.3-0.6c0-0.4,0.1-0.6,0.4-0.8c0.2-0.1,0.5-0.2,0.9-0.2h0.8v-0.4c0-0.8-0.1-1.3-0.3-1.8h-1.2
		c-0.8,0-1.5,0.2-2.1,0.5c-0.5,0.3-0.9,0.7-1.1,1.3c-0.2,0.5-0.3,1.1-0.3,1.6c0,1.3,0.4,2.2,1.1,2.6c0.8,0.4,1.6,0.6,2.4,0.6h4.9V10
		c0-2-0.5-3.3-1.5-3.9c-1-0.7-2-1-3.2-1c-0.8,0-1.3,0-2.3,0.2L42.3,7.9L42.3,7.9z M54,5.3v2.6c0.4-0.5,0.8-1,1.2-1.5
		c0.5-0.5,0.9-0.8,1.3-1.1h2.9v10.4h-2.9V8.6c-1,0.8-1.8,1.8-2.5,3.2v3.9h-2.9V5.3H54L54,5.3z M53.7,2.3h3.1
		c-0.1,0.4-0.2,0.8-0.3,1.2c-0.2,0.4-0.3,0.7-0.5,0.9c-0.2,0.2-0.4,0.3-0.7,0.3c-0.4,0-0.7-0.2-1-0.7C54,3.6,53.8,3,53.7,2.3
		L53.7,2.3z M68.1,5.3V8h-2.5v7.7h-2.9V8h-2.5V5.3H68.1L68.1,5.3z M76,7.5l0.1,8.2h-3.8L76,7.5L76,7.5L76,7.5z M80.9,3.1l0.1,12.6
		h-4.1L76.8,5.6l1.2-2.5H80.9L80.9,3.1L80.9,3.1z M86,3.1L86,15.7h-4.1L81.8,5.6l1.2-2.5H86L86,3.1L86,3.1z M94.7,12.9v2.7
		c-0.9,0.2-1.8,0.4-2.8,0.4c-0.8,0-1.6-0.1-2.2-0.4c-0.7-0.3-1.2-0.6-1.7-1.1c-0.5-0.5-0.8-1.1-1.1-1.7c-0.2-0.7-0.4-1.4-0.4-2.2
		c0-1.1,0.2-2.1,0.6-2.9c0.4-0.8,1-1.4,1.7-1.8c0.7-0.4,1.5-0.6,2.5-0.6c0.7,0,1.4,0.1,2,0.4C94,5.8,94.5,6.3,95,7.2
		c0.5,0.8,0.7,2,0.7,3.6c0,0.3,0,0.5,0,0.7h-5.4c-0.2-0.3-0.3-0.7-0.3-1.1c0-0.4,0-0.7,0.1-0.9H93c0-1.1-0.6-1.7-1.6-1.7
		c-0.6,0-1.1,0.2-1.5,0.7c-0.3,0.5-0.5,1.1-0.5,1.9c0,0.6,0.1,1.1,0.3,1.5c0.2,0.5,0.5,0.8,1,1.1c0.5,0.3,1.1,0.4,1.9,0.4
		C93.3,13.3,94,13.2,94.7,12.9L94.7,12.9z M96.5,11.4c0-0.7,0.1-1.3,0.3-1.8c0.2-0.6,0.5-1,0.8-1.5c0.4-0.4,0.8-0.7,1.4-1
		c0.5-0.2,1.1-0.3,1.8-0.3c0.8,0,1.5,0.2,2.2,0.5c0.7,0.3,1.2,0.9,1.5,1.5c0.4,0.7,0.6,1.5,0.6,2.5c0,0.8-0.1,1.4-0.3,2
		c-0.2,0.6-0.5,1-0.9,1.4c-0.4,0.4-0.9,0.7-1.4,0.9c-0.5,0.2-1.1,0.3-1.7,0.3c-0.7,0-1.3-0.1-1.8-0.3c-0.5-0.2-1-0.6-1.4-1
		c-0.4-0.4-0.6-0.9-0.8-1.5C96.6,12.6,96.5,12,96.5,11.4L96.5,11.4z M99.5,11.4c0,0.7,0.1,1.2,0.4,1.5c0.3,0.3,0.6,0.4,0.9,0.4
		c0.3,0,0.6-0.1,0.9-0.4c0.3-0.3,0.4-0.8,0.4-1.5c0-0.7-0.1-1.2-0.4-1.5c-0.3-0.3-0.6-0.5-0.9-0.5c-0.2,0-0.4,0.1-0.6,0.2
		c-0.2,0.1-0.4,0.3-0.5,0.6C99.5,10.5,99.5,10.9,99.5,11.4L99.5,11.4z M99,6.3c0-0.2,0.1-0.3,0.2-0.5c0.1-0.1,0.3-0.2,0.6-0.2
		c0.1,0,0.6,0.1,1.3,0.3c0.7,0.2,1.2,0.3,1.6,0.3c0.4,0,0.7-0.1,1-0.3c0.3-0.2,0.6-0.4,0.7-0.7c0.2-0.3,0.3-0.7,0.3-1.1
		c0-0.6-0.2-1-0.5-1.4c-0.3-0.3-0.7-0.5-1.3-0.5c-0.2,0-0.4,0-0.6,0.1c0.1,0.1,0.1,0.2,0.1,0.3c0,0.3-0.2,0.4-0.6,0.4
		c-0.2,0-0.6-0.1-1.1-0.2c-0.3-0.1-0.5-0.2-0.8-0.2c-0.2-0.1-0.5-0.1-0.7-0.1c-0.7,0-1.3,0.2-1.8,0.6c-0.5,0.4-0.8,1.1-0.8,2.1
		c0,0.9,0.3,1.6,0.9,2.2c0.2-0.3,0.5-0.5,0.7-0.6c0.3-0.1,0.6-0.3,0.9-0.4V6.3L99,6.3z M114.3,12.9v2.7c-0.9,0.2-1.8,0.4-2.8,0.4
		c-0.8,0-1.6-0.1-2.2-0.4c-0.7-0.3-1.2-0.6-1.7-1.1c-0.5-0.5-0.8-1.1-1.1-1.7c-0.2-0.7-0.4-1.4-0.4-2.2c0-1.1,0.2-2.1,0.6-2.9
		c0.4-0.8,1-1.4,1.7-1.8c0.7-0.4,1.5-0.6,2.5-0.6c0.7,0,1.4,0.1,2,0.4c0.6,0.3,1.2,0.8,1.7,1.7c0.5,0.8,0.7,2,0.7,3.6
		c0,0.3,0,0.5,0,0.7h-5.4c-0.2-0.3-0.3-0.7-0.3-1.1c0-0.4,0-0.7,0.1-0.9h2.8c0-1.1-0.6-1.7-1.6-1.7c-0.6,0-1.1,0.2-1.5,0.7
		c-0.3,0.5-0.5,1.1-0.5,1.9c0,0.6,0.1,1.1,0.3,1.5c0.2,0.5,0.5,0.8,1,1.1c0.5,0.3,1.1,0.4,1.9,0.4C112.9,13.3,113.6,13.2,114.3,12.9
		L114.3,12.9z M121.3,15.7V7.9c-0.6,0-1.2,0.3-1.6,0.9c-0.4,0.6-0.7,1.7-0.7,3.2c0,0.6,0,1.3,0.1,1.8c0.1,0.6,0.1,1.2,0.3,1.8h-3
		c-0.1-0.4-0.1-0.7-0.2-1.2c0-0.4-0.1-0.9-0.1-1.4c0-0.5,0-0.9,0-1.3c0-1.4,0.2-2.6,0.5-3.5c0.4-0.9,0.8-1.6,1.3-2
		c0.5-0.4,1-0.7,1.5-0.8c0.5-0.1,0.9-0.2,1.3-0.2h3.4v10.4H121.3L121.3,15.7z M128.8,5.3v2.6c0.4-0.5,0.8-1,1.2-1.5
		c0.5-0.5,0.9-0.8,1.3-1.1h2.9v10.4h-2.9V8.6c-1,0.8-1.8,1.8-2.5,3.2v3.9h-2.9V5.3H128.8z"/>
	<path class="st2" d="M56.4,19.6h0.8v2l1.3-2h0.8v3.2h-0.8v-2l-1.3,2h-0.8V19.6L56.4,19.6z M60.1,19.6H61v1.2h1.2v-1.2H63v3.2h-0.8
		v-1.3H61v1.3h-0.8V19.6L60.1,19.6z M63.5,19.6h2.9v0.7h-1v2.5h-0.8v-2.5h-1V19.6L63.5,19.6z M68.7,21.7l0.8,0.1
		c-0.1,0.3-0.3,0.5-0.5,0.7c-0.2,0.2-0.5,0.2-0.9,0.2c-0.6,0-1-0.2-1.2-0.5c-0.2-0.3-0.3-0.7-0.3-1.1c0-0.5,0.1-0.9,0.4-1.2
		c0.3-0.3,0.6-0.4,1-0.4c0.5,0,0.8,0.2,1.1,0.5c0.3,0.3,0.4,0.8,0.4,1.4h-2.1c0,0.2,0.1,0.4,0.2,0.6c0.1,0.1,0.3,0.2,0.5,0.2
		c0.1,0,0.2,0,0.3-0.1C68.6,22,68.7,21.9,68.7,21.7L68.7,21.7z M68.8,20.9c0-0.2-0.1-0.4-0.2-0.6c-0.1-0.1-0.3-0.2-0.4-0.2
		c-0.2,0-0.3,0.1-0.5,0.2c-0.1,0.1-0.2,0.3-0.2,0.5H68.8L68.8,20.9z M70.3,19.6H71V20c0.1-0.2,0.2-0.3,0.4-0.4
		c0.2-0.1,0.4-0.2,0.6-0.2c0.4,0,0.7,0.1,0.9,0.4c0.3,0.3,0.4,0.7,0.4,1.2c0,0.5-0.1,0.9-0.4,1.2c-0.3,0.3-0.6,0.4-0.9,0.4
		c-0.2,0-0.3,0-0.5-0.1c-0.1-0.1-0.3-0.2-0.5-0.4V24h-0.8V19.6L70.3,19.6z M71.1,21.1c0,0.4,0.1,0.6,0.2,0.8
		c0.1,0.2,0.3,0.3,0.5,0.3c0.2,0,0.4-0.1,0.5-0.2c0.1-0.2,0.2-0.4,0.2-0.8c0-0.3-0.1-0.6-0.2-0.7c-0.1-0.2-0.3-0.2-0.5-0.2
		c-0.2,0-0.4,0.1-0.5,0.2C71.2,20.6,71.1,20.8,71.1,21.1L71.1,21.1z M74,19.6h0.8v1.2H76v-1.2h0.8v3.2H76v-1.3h-1.2v1.3H74V19.6
		L74,19.6z M79.6,21.7l0.8,0.1c-0.1,0.3-0.3,0.5-0.5,0.7c-0.2,0.2-0.5,0.2-0.9,0.2c-0.6,0-1-0.2-1.2-0.5c-0.2-0.3-0.3-0.7-0.3-1.1
		c0-0.5,0.1-0.9,0.4-1.2c0.3-0.3,0.6-0.4,1-0.4c0.5,0,0.8,0.2,1.1,0.5c0.3,0.3,0.4,0.8,0.4,1.4h-2.1c0,0.2,0.1,0.4,0.2,0.6
		c0.1,0.1,0.3,0.2,0.5,0.2c0.1,0,0.2,0,0.3-0.1C79.5,22,79.5,21.9,79.6,21.7L79.6,21.7z M79.6,20.9c0-0.2-0.1-0.4-0.2-0.6
		s-0.3-0.2-0.4-0.2c-0.2,0-0.3,0.1-0.5,0.2c-0.1,0.1-0.2,0.3-0.2,0.5H79.6L79.6,20.9z M80.7,19.6h2.9v0.7h-1v2.5h-0.8v-2.5h-1V19.6
		L80.7,19.6z M84,21.6v-0.8h1.7v0.8H84L84,21.6z M86.1,19.6h1l0.8,2.2l0.8-2.2h1v3.2h-0.7v-2.1l-0.8,2.1h-0.7l-0.7-2.1v2.1h-0.7
		V19.6L86.1,19.6z M91.2,20.5l-0.8-0.1c0.1-0.3,0.2-0.5,0.4-0.7c0.2-0.1,0.5-0.2,0.9-0.2c0.4,0,0.7,0,0.8,0.1
		c0.2,0.1,0.3,0.2,0.4,0.3c0.1,0.1,0.1,0.4,0.1,0.8l0,1c0,0.3,0,0.5,0,0.6c0,0.1,0.1,0.3,0.2,0.4h-0.8c0-0.1,0-0.1-0.1-0.2
		c0,0,0-0.1,0-0.1c-0.1,0.1-0.3,0.2-0.5,0.3c-0.2,0.1-0.3,0.1-0.5,0.1c-0.3,0-0.6-0.1-0.8-0.3c-0.2-0.2-0.3-0.4-0.3-0.7
		c0-0.2,0-0.3,0.1-0.5c0.1-0.1,0.2-0.2,0.4-0.3c0.2-0.1,0.4-0.1,0.7-0.2c0.4-0.1,0.7-0.1,0.8-0.2v-0.1c0-0.2,0-0.3-0.1-0.3
		c-0.1-0.1-0.2-0.1-0.5-0.1c-0.2,0-0.3,0-0.4,0.1C91.3,20.3,91.2,20.4,91.2,20.5L91.2,20.5z M92.3,21.2c-0.1,0-0.3,0.1-0.5,0.1
		c-0.2,0.1-0.4,0.1-0.5,0.1c-0.1,0.1-0.2,0.2-0.2,0.3c0,0.1,0,0.2,0.1,0.3c0.1,0.1,0.2,0.1,0.3,0.1c0.2,0,0.3-0.1,0.4-0.1
		c0.1-0.1,0.2-0.2,0.2-0.3c0-0.1,0-0.2,0-0.4V21.2L92.3,21.2z M93.9,19.6h2.1v0.7h-1.3v2.5h-0.8V19.6L93.9,19.6z M97.2,20.5
		l-0.8-0.1c0.1-0.3,0.2-0.5,0.4-0.7c0.2-0.1,0.5-0.2,0.9-0.2c0.4,0,0.7,0,0.8,0.1c0.2,0.1,0.3,0.2,0.4,0.3c0.1,0.1,0.1,0.4,0.1,0.8
		l0,1c0,0.3,0,0.5,0,0.6c0,0.1,0.1,0.3,0.2,0.4h-0.8c0-0.1,0-0.1-0.1-0.2c0,0,0-0.1,0-0.1c-0.1,0.1-0.3,0.2-0.5,0.3
		c-0.2,0.1-0.3,0.1-0.5,0.1c-0.3,0-0.6-0.1-0.8-0.3c-0.2-0.2-0.3-0.4-0.3-0.7c0-0.2,0-0.3,0.1-0.5c0.1-0.1,0.2-0.2,0.4-0.3
		c0.2-0.1,0.4-0.1,0.7-0.2c0.4-0.1,0.7-0.1,0.8-0.2v-0.1c0-0.2,0-0.3-0.1-0.3c-0.1-0.1-0.2-0.1-0.5-0.1c-0.2,0-0.3,0-0.4,0.1
		C97.3,20.3,97.2,20.4,97.2,20.5L97.2,20.5z M98.3,21.2c-0.1,0-0.3,0.1-0.5,0.1c-0.2,0.1-0.4,0.1-0.5,0.1c-0.1,0.1-0.2,0.2-0.2,0.3
		c0,0.1,0,0.2,0.1,0.3c0.1,0.1,0.2,0.1,0.3,0.1c0.2,0,0.3-0.1,0.4-0.1c0.1-0.1,0.2-0.2,0.2-0.3c0-0.1,0-0.2,0-0.4V21.2L98.3,21.2z
		 M100.9,21.5v-0.5c0.1,0,0.3,0,0.3,0c0.1,0,0.1-0.1,0.2-0.1c0.1-0.1,0.1-0.2,0.1-0.3c0-0.1,0-0.2-0.1-0.3c-0.1-0.1-0.2-0.1-0.3-0.1
		c-0.1,0-0.2,0-0.3,0.1c-0.1,0-0.2,0.2-0.2,0.3l-0.7-0.2c0.1-0.3,0.2-0.5,0.5-0.6c0.2-0.1,0.5-0.2,0.8-0.2c0.4,0,0.7,0.1,0.9,0.3
		c0.2,0.2,0.3,0.4,0.3,0.7c0,0.2,0,0.3-0.1,0.4c-0.1,0.1-0.2,0.2-0.4,0.3c0.2,0.1,0.4,0.2,0.5,0.3c0.1,0.1,0.2,0.3,0.2,0.5
		c0,0.2-0.1,0.5-0.3,0.6c-0.2,0.2-0.6,0.3-1,0.3c-0.8,0-1.2-0.3-1.4-0.9l0.8-0.1c0.1,0.3,0.3,0.5,0.6,0.5c0.2,0,0.3,0,0.4-0.1
		c0.1-0.1,0.1-0.2,0.1-0.3c0-0.1-0.1-0.2-0.1-0.3c-0.1-0.1-0.2-0.1-0.4-0.1H100.9L100.9,21.5z M103,19.6h0.8v2l1.3-2h0.8v3.2h-0.8
		v-2l-1.3,2H103V19.6L103,19.6z M106.8,19.6h0.8v1.2h1.2v-1.2h0.8v3.2h-0.8v-1.3h-1.2v1.3h-0.8V19.6L106.8,19.6z M112.3,19.6h1
		l0.8,2.2l0.8-2.2h1v3.2h-0.7v-2.1l-0.8,2.1h-0.7l-0.7-2.1v2.1h-0.7V19.6L112.3,19.6z M118.6,21.7l0.8,0.1c-0.1,0.3-0.3,0.5-0.5,0.7
		c-0.2,0.2-0.5,0.2-0.9,0.2c-0.6,0-1-0.2-1.2-0.5c-0.2-0.3-0.3-0.7-0.3-1.1c0-0.5,0.1-0.9,0.4-1.2c0.3-0.3,0.6-0.4,1-0.4
		c0.5,0,0.8,0.2,1.1,0.5c0.3,0.3,0.4,0.8,0.4,1.4h-2.1c0,0.2,0.1,0.4,0.2,0.6c0.1,0.1,0.3,0.2,0.5,0.2c0.1,0,0.2,0,0.3-0.1
		C118.5,22,118.6,21.9,118.6,21.7L118.6,21.7z M118.7,20.9c0-0.2-0.1-0.4-0.2-0.6c-0.1-0.1-0.3-0.2-0.4-0.2c-0.2,0-0.3,0.1-0.5,0.2
		c-0.1,0.1-0.2,0.3-0.2,0.5H118.7L118.7,20.9z M122.5,18.3h0.6c0,0.3-0.1,0.4-0.2,0.6c-0.1,0.1-0.4,0.2-0.8,0.2c-0.1,0-0.1,0-0.2,0
		h-0.1c-0.3,0-0.5,0-0.7,0.1c-0.2,0.1-0.3,0.2-0.4,0.3c-0.1,0.2-0.2,0.4-0.2,0.8c0.1-0.2,0.3-0.4,0.5-0.5c0.2-0.1,0.4-0.2,0.7-0.2
		c0.4,0,0.8,0.2,1.1,0.5c0.3,0.3,0.4,0.7,0.4,1.1c0,0.4-0.2,0.8-0.5,1.1c-0.3,0.3-0.7,0.5-1.2,0.5c-0.3,0-0.6-0.1-0.9-0.2
		c-0.3-0.2-0.4-0.4-0.5-0.7c-0.1-0.3-0.2-0.7-0.2-1.4c0-0.8,0.1-1.3,0.4-1.6c0.3-0.3,0.8-0.5,1.5-0.5h0.4
		C122.4,18.4,122.4,18.3,122.5,18.3L122.5,18.3z M120.8,21.2c0,0.3,0.1,0.5,0.2,0.7c0.1,0.2,0.3,0.3,0.5,0.3c0.2,0,0.4-0.1,0.6-0.3
		c0.1-0.2,0.2-0.4,0.2-0.7c0-0.3-0.1-0.5-0.2-0.7c-0.1-0.2-0.3-0.3-0.5-0.3c-0.2,0-0.4,0.1-0.5,0.3
		C120.9,20.7,120.8,20.9,120.8,21.2L120.8,21.2z M125.7,21.7l0.8,0.1c-0.1,0.3-0.3,0.5-0.5,0.7c-0.2,0.2-0.5,0.2-0.9,0.2
		c-0.6,0-1-0.2-1.2-0.5c-0.2-0.3-0.3-0.7-0.3-1.1c0-0.5,0.1-0.9,0.4-1.2c0.3-0.3,0.6-0.4,1-0.4c0.5,0,0.8,0.2,1.1,0.5
		c0.3,0.3,0.4,0.8,0.4,1.4h-2.1c0,0.2,0.1,0.4,0.2,0.6c0.1,0.1,0.3,0.2,0.5,0.2c0.1,0,0.2,0,0.3-0.1C125.6,22,125.7,21.9,125.7,21.7
		L125.7,21.7z M125.8,20.9c0-0.2-0.1-0.4-0.2-0.6c-0.1-0.1-0.3-0.2-0.4-0.2c-0.2,0-0.3,0.1-0.5,0.2c-0.1,0.1-0.2,0.3-0.2,0.5H125.8
		L125.8,20.9z M127.5,19.6h2.8v3.2h-0.8v-2.5h-1.1v1.4c0,0.4,0,0.6-0.1,0.8c-0.1,0.1-0.2,0.2-0.3,0.3c-0.1,0-0.3,0.1-0.5,0.1
		c-0.1,0-0.3,0-0.5-0.1v-0.6c0,0,0.1,0,0.1,0c0.1,0,0.2,0,0.2,0c0.1,0,0.2,0,0.2-0.1c0-0.1,0-0.3,0-0.6V19.6L127.5,19.6z
		 M131.2,19.6h0.8v2l1.3-2h0.8v3.2h-0.8v-2l-1.3,2h-0.8V19.6z"/>
	<rect x="2.5" y="2.2" class="st3" width="26.1" height="23"/>
	<path class="st2" d="M4.7,22.7l0.3,0c0,0.1,0,0.2,0,0.2c0,0.1,0.1,0.1,0.2,0.2c0.1,0,0.2,0.1,0.3,0.1c0.1,0,0.3,0,0.3-0.1
		C5.9,23,6,22.9,6,22.8c0-0.1,0-0.1-0.1-0.2c0-0.1-0.2-0.1-0.3-0.2c-0.2-0.1-0.3-0.1-0.3-0.2c-0.1,0-0.1-0.1-0.2-0.2
		C5,22.1,5,22,5,21.9c0-0.2,0.1-0.3,0.2-0.4c0.1-0.1,0.3-0.2,0.5-0.2c0.2,0,0.4,0.1,0.6,0.2c0.1,0.1,0.2,0.3,0.2,0.4l-0.3,0
		c0-0.1,0-0.2-0.1-0.3c-0.1-0.1-0.2-0.1-0.3-0.1c-0.1,0-0.2,0-0.3,0.1c-0.1,0.1-0.1,0.1-0.1,0.2c0,0.1,0,0.1,0.1,0.2
		c0,0,0.1,0.1,0.3,0.1c0.3,0.1,0.4,0.2,0.5,0.3c0.1,0.1,0.2,0.2,0.2,0.4c0,0.1,0,0.2-0.1,0.3c-0.1,0.1-0.1,0.2-0.3,0.2
		c-0.1,0.1-0.3,0.1-0.4,0.1c-0.2,0-0.4-0.1-0.6-0.2C4.8,23.1,4.7,22.9,4.7,22.7L4.7,22.7z M7.9,23.1c-0.1,0.1-0.2,0.2-0.3,0.2
		c-0.1,0-0.2,0.1-0.3,0.1c-0.2,0-0.3-0.1-0.4-0.2c-0.1-0.1-0.2-0.2-0.2-0.4c0-0.1,0-0.2,0.1-0.3c0-0.1,0.1-0.1,0.2-0.2
		c0.1,0,0.2-0.1,0.3-0.1c0.1,0,0.2,0,0.4,0c0.2,0,0.4,0,0.4-0.1c0-0.1,0-0.2,0-0.2c0-0.1,0-0.1-0.1-0.2c-0.1-0.1-0.2-0.1-0.3-0.1
		c-0.1,0-0.3,0-0.3,0.1c-0.1,0.1-0.2,0.1-0.2,0.3l-0.3,0c0.1-0.2,0.2-0.3,0.3-0.4c0.1-0.1,0.3-0.2,0.6-0.2c0.2,0,0.4,0.1,0.6,0.2
		c0.1,0.1,0.2,0.2,0.2,0.3c0,0.1,0,0.2,0,0.4l-0.1,0.5c0,0.2-0.1,0.3-0.1,0.4c0,0.1,0,0.1,0,0.3H7.9C7.9,23.3,7.9,23.2,7.9,23.1
		L7.9,23.1z M8,22.4c0,0-0.1,0-0.1,0c-0.1,0-0.1,0-0.3,0c-0.2,0-0.3,0-0.4,0.1c-0.1,0-0.1,0.1-0.2,0.1c0,0.1-0.1,0.1-0.1,0.2
		c0,0.1,0,0.2,0.1,0.2c0.1,0.1,0.2,0.1,0.3,0.1c0.1,0,0.2,0,0.3-0.1c0.1-0.1,0.2-0.1,0.2-0.2C7.9,22.7,7.9,22.6,8,22.4L8,22.4z
		 M8.5,24.1l0-0.3c0.1,0,0.1,0,0.2,0c0.1,0,0.1,0,0.2,0c0.1,0,0.1-0.1,0.2-0.2l0.1-0.2l-0.3-1.9h0.3l0.1,1c0,0.2,0.1,0.4,0.1,0.6
		l0.9-1.5h0.3l-1.2,2.2C9.2,23.8,9.1,24,9,24c-0.1,0.1-0.2,0.1-0.3,0.1C8.6,24.1,8.6,24.1,8.5,24.1L8.5,24.1z M11.2,23.1
		c-0.1,0-0.1,0-0.2,0c-0.1,0-0.1,0-0.1,0c0,0,0-0.1,0-0.1c0,0,0-0.1,0-0.2l0.2-1.1h0.3l0.1-0.3h-0.3l0.1-0.7L11,21l-0.1,0.5h-0.3
		l-0.1,0.3h0.3l-0.2,1.1c0,0.2,0,0.2,0,0.3c0,0.1,0,0.1,0.1,0.2c0.1,0.1,0.2,0.1,0.3,0.1c0.1,0,0.1,0,0.2,0L11.2,23.1L11.2,23.1z
		 M11.5,23.4l0.4-1.9h0.3l-0.1,0.3c0.1-0.1,0.2-0.2,0.3-0.3c0.1-0.1,0.2-0.1,0.3-0.1c0.1,0,0.2,0,0.3,0.1c0.1,0.1,0.1,0.2,0.2,0.3
		c0.1-0.1,0.2-0.2,0.3-0.3c0.1-0.1,0.2-0.1,0.3-0.1c0.2,0,0.3,0,0.4,0.1c0.1,0.1,0.1,0.2,0.1,0.3c0,0.1,0,0.2,0,0.3l-0.3,1.2h-0.3
		l0.3-1.3c0-0.1,0-0.2,0-0.2c0-0.1,0-0.1-0.1-0.1c0,0-0.1-0.1-0.2-0.1c-0.1,0-0.2,0-0.3,0.1c-0.1,0.1-0.2,0.1-0.2,0.2
		c-0.1,0.1-0.1,0.2-0.1,0.4L13,23.4h-0.3l0.3-1.3c0-0.1,0-0.2,0-0.2c0-0.1,0-0.1-0.1-0.2c0,0-0.1-0.1-0.2-0.1c-0.1,0-0.2,0-0.3,0.1
		c-0.1,0.1-0.2,0.1-0.2,0.2c-0.1,0.1-0.1,0.3-0.2,0.5l-0.2,0.9H11.5L11.5,23.4z M16,22.7l0.3,0c0,0.2-0.2,0.3-0.3,0.5
		c-0.2,0.1-0.4,0.2-0.6,0.2c-0.1,0-0.3,0-0.4-0.1c-0.1-0.1-0.2-0.2-0.3-0.3c-0.1-0.1-0.1-0.3-0.1-0.4c0-0.2,0-0.4,0.1-0.6
		c0.1-0.2,0.2-0.3,0.4-0.4c0.2-0.1,0.3-0.1,0.5-0.1c0.2,0,0.4,0.1,0.5,0.2c0.1,0.1,0.2,0.3,0.2,0.6c0,0.1,0,0.2,0,0.3H15
		c0,0,0,0.1,0,0.1c0,0.2,0,0.3,0.1,0.4c0.1,0.1,0.2,0.1,0.3,0.1c0.1,0,0.2,0,0.3-0.1C15.9,22.9,15.9,22.8,16,22.7L16,22.7z
		 M15.1,22.2h1.1c0,0,0-0.1,0-0.1c0-0.2,0-0.3-0.1-0.4c-0.1-0.1-0.2-0.1-0.3-0.1c-0.1,0-0.3,0-0.4,0.1C15.2,21.9,15.1,22,15.1,22.2
		L15.1,22.2z M16.7,23.4l0.6-2.7h0.3l-0.2,0.9c0.1-0.1,0.2-0.2,0.3-0.2c0.1,0,0.2-0.1,0.3-0.1c0.2,0,0.3,0.1,0.4,0.2
		c0.1,0.1,0.2,0.3,0.2,0.6c0,0.2,0,0.3-0.1,0.5c0,0.1-0.1,0.3-0.2,0.4c-0.1,0.1-0.1,0.2-0.2,0.2c-0.1,0.1-0.2,0.1-0.2,0.1
		c-0.1,0-0.2,0-0.2,0c-0.1,0-0.2,0-0.3-0.1c-0.1-0.1-0.2-0.2-0.2-0.3l-0.1,0.4H16.7L16.7,23.4z M17.1,22.6L17.1,22.6
		c0,0.2,0,0.4,0.1,0.4c0.1,0.1,0.2,0.1,0.3,0.1c0.1,0,0.2,0,0.3-0.1c0.1-0.1,0.2-0.2,0.2-0.4c0.1-0.2,0.1-0.3,0.1-0.5
		c0-0.2,0-0.3-0.1-0.4c-0.1-0.1-0.2-0.1-0.3-0.1c-0.1,0-0.2,0-0.3,0.1c-0.1,0.1-0.2,0.2-0.2,0.4C17.2,22.3,17.1,22.5,17.1,22.6
		L17.1,22.6z M20.1,22.7l0.3,0c0,0.2-0.2,0.3-0.3,0.5c-0.2,0.1-0.4,0.2-0.6,0.2c-0.1,0-0.3,0-0.4-0.1c-0.1-0.1-0.2-0.2-0.3-0.3
		c-0.1-0.1-0.1-0.3-0.1-0.4c0-0.2,0-0.4,0.1-0.6c0.1-0.2,0.2-0.3,0.4-0.4c0.2-0.1,0.3-0.1,0.5-0.1c0.2,0,0.4,0.1,0.5,0.2
		c0.1,0.1,0.2,0.3,0.2,0.6c0,0.1,0,0.2,0,0.3h-1.4c0,0,0,0.1,0,0.1c0,0.2,0,0.3,0.1,0.4c0.1,0.1,0.2,0.1,0.3,0.1
		c0.1,0,0.2,0,0.3-0.1C20,22.9,20.1,22.8,20.1,22.7L20.1,22.7z M19.2,22.2h1.1c0,0,0-0.1,0-0.1c0-0.2,0-0.3-0.1-0.4
		c-0.1-0.1-0.2-0.1-0.3-0.1c-0.1,0-0.3,0-0.4,0.1C19.3,21.9,19.2,22,19.2,22.2L19.2,22.2z M20.8,23.4l0.6-2.7h0.3l-0.6,2.7H20.8
		L20.8,23.4z M22.1,21.1l0.1-0.4h0.3l-0.1,0.4H22.1L22.1,21.1z M21.6,23.4h0.3l0.4-1.9H22L21.6,23.4L21.6,23.4z M22.5,23.4l0.1-0.4
		H23l-0.1,0.4H22.5L22.5,23.4z M23.5,23.4l0.4-1.9h0.3l-0.1,0.4c0.1-0.1,0.2-0.3,0.3-0.3c0.1-0.1,0.2-0.1,0.3-0.1
		c0.1,0,0.1,0,0.2,0.1l-0.1,0.3c-0.1,0-0.1-0.1-0.2-0.1c-0.1,0-0.2,0.1-0.4,0.2c-0.1,0.1-0.2,0.4-0.3,0.7l-0.2,0.8H23.5L23.5,23.4z
		 M26,23l-0.1,0.3h0.3l0.4-1.9h-0.3l-0.2,0.8c0,0.2-0.1,0.3-0.1,0.3c0,0.1-0.1,0.2-0.2,0.3c-0.1,0.1-0.1,0.1-0.2,0.2
		c-0.1,0-0.2,0.1-0.3,0.1c-0.1,0-0.2,0-0.2-0.1c0,0-0.1-0.1-0.1-0.2c0-0.1,0-0.1,0-0.2l0.3-1.2h-0.3l-0.2,1.1c0,0.2-0.1,0.3-0.1,0.4
		c0,0.1,0,0.2,0.1,0.3c0.1,0.1,0.2,0.1,0.4,0.1C25.5,23.4,25.8,23.3,26,23z"/>
	<polygon class="st2" points="12,4 15.8,4 14.7,9.6 	"/>
	<polygon class="st4" points="11.6,19.2 15.7,9.1 15.8,19.2 	"/>
	<polygon class="st2" points="9,19.2 13.7,13.6 11.6,19.2 	"/>
	<polygon class="st2" points="6.4,6.9 5.8,7.7 5.5,8.4 5.2,9 5.1,9.3 4.8,10.3 4.7,10.7 4.6,11 4.5,11.4 4.5,11.7 4.4,12.1 
		4.3,12.5 4.3,14.6 4.4,14.9 4.4,15.1 4.5,15.4 4.5,15.7 4.6,15.9 4.7,16.2 4.8,16.6 4.9,16.9 5,17.2 5.1,17.4 5.2,17.5 5.3,17.6 
		5.4,17.8 5.5,17.9 5.6,18.1 5.8,18.3 5.9,18.3 6,18.4 6.1,18.5 6.2,18.6 6.4,18.8 6.7,18.9 6.9,19 7.3,19.2 8.4,19.2 9.4,14.1 
		11.4,4 10.5,4 10.4,4 10.1,4.1 9.6,4.3 9,4.6 8.1,5.2 7.5,5.8 7,6.2 	"/>
	<polygon class="st4" points="17.8,4 21,4 21.2,19.2 16.7,19.2 16.6,6.6 	"/>
	<polygon class="st4" points="23.2,4 26.6,4 26.6,19.2 22.1,19.2 22.1,6.6 	"/>
	<rect x="1.3" y="1.5" class="st5" width="28.6" height="24.4"/>
	<path class="st1" d="M38.8,49.1l-2.8,12.6c-0.8,0-1.4-0.2-2-0.6c-0.5-0.3-0.9-0.9-1.2-1.5c-0.3-0.7-0.4-1.4-0.5-2.1
		c0-0.7,0-1.5,0.2-2.3c0.2-1,0.5-1.9,0.9-2.6c0.4-0.7,0.9-1.4,1.5-1.9c0.6-0.5,1.2-0.9,1.8-1.2C37.5,49.2,38.1,49.1,38.8,49.1
		L38.8,49.1L38.8,49.1z M40.9,56.9L40.9,56.9l-4.4,4.8H40L40.9,56.9L40.9,56.9z M42.3,49.1l-1,4.7l-2-4.7H42.3L42.3,49.1z
		 M42.3,53.9c0.7-0.2,1.1-0.2,1.7-0.2c0.7,0,1.3,0.2,1.7,0.5c0.4,0.3,0.6,0.7,0.7,1.1c0.1,0.4,0.1,0.9,0.1,1.4v2.4h-1.7
		c-0.3,0-0.5-0.1-0.7-0.2c-0.2-0.2-0.3-0.4-0.3-0.6c0-0.4,0.1-0.6,0.4-0.8c0.2-0.1,0.5-0.2,0.9-0.2h0.8v-0.4c0-0.8-0.1-1.3-0.3-1.8
		h-1.2c-0.8,0-1.5,0.2-2.1,0.5c-0.5,0.3-0.9,0.7-1.1,1.3c-0.2,0.5-0.3,1.1-0.3,1.6c0,1.3,0.4,2.2,1.1,2.6c0.8,0.4,1.6,0.6,2.4,0.6
		h4.9V56c0-2-0.5-3.3-1.5-3.9c-1-0.7-2-1-3.2-1c-0.8,0-1.3,0-2.3,0.2L42.3,53.9L42.3,53.9z M54,51.3v2.6c0.4-0.5,0.8-1,1.2-1.5
		c0.5-0.5,0.9-0.8,1.3-1.1h2.9v10.4h-2.9v-7.1c-1,0.8-1.8,1.8-2.5,3.2v3.9h-2.9V51.3H54L54,51.3z M53.7,48.3h3.1
		c-0.1,0.4-0.2,0.8-0.3,1.2c-0.2,0.4-0.3,0.7-0.5,0.9c-0.2,0.2-0.4,0.3-0.7,0.3c-0.4,0-0.7-0.2-1-0.7C54,49.5,53.8,49,53.7,48.3
		L53.7,48.3z M68.1,51.3V54h-2.5v7.7h-2.9V54h-2.5v-2.7H68.1L68.1,51.3z M76,53.4l0.1,8.2h-3.8L76,53.4L76,53.4L76,53.4z M80.9,49.1
		l0.1,12.6h-4.1l-0.1-10.1l1.2-2.5H80.9L80.9,49.1L80.9,49.1z M86,49.1L86,61.7h-4.1l-0.1-10.1l1.2-2.5H86L86,49.1L86,49.1z
		 M94.7,58.9v2.7c-0.9,0.2-1.8,0.4-2.8,0.4c-0.8,0-1.6-0.1-2.2-0.4c-0.7-0.3-1.2-0.6-1.7-1.1c-0.5-0.5-0.8-1.1-1.1-1.7
		c-0.2-0.7-0.4-1.4-0.4-2.2c0-1.1,0.2-2.1,0.6-2.9c0.4-0.8,1-1.4,1.7-1.8c0.7-0.4,1.5-0.6,2.5-0.6c0.7,0,1.4,0.1,2,0.4
		c0.6,0.3,1.2,0.8,1.7,1.7c0.5,0.8,0.7,2,0.7,3.6c0,0.3,0,0.5,0,0.7h-5.4c-0.2-0.3-0.3-0.7-0.3-1.1c0-0.4,0-0.7,0.1-0.9H93
		c0-1.1-0.6-1.7-1.6-1.7c-0.6,0-1.1,0.2-1.5,0.7c-0.3,0.5-0.5,1.1-0.5,1.9c0,0.6,0.1,1.1,0.3,1.5c0.2,0.5,0.5,0.8,1,1.1
		c0.5,0.3,1.1,0.4,1.9,0.4C93.3,59.3,94,59.2,94.7,58.9L94.7,58.9z M96.5,57.4c0-0.7,0.1-1.3,0.3-1.8c0.2-0.6,0.5-1,0.8-1.5
		c0.4-0.4,0.8-0.7,1.4-1c0.5-0.2,1.1-0.3,1.8-0.3c0.8,0,1.5,0.2,2.2,0.5c0.7,0.3,1.2,0.9,1.5,1.5c0.4,0.7,0.6,1.5,0.6,2.5
		c0,0.8-0.1,1.4-0.3,2c-0.2,0.6-0.5,1-0.9,1.4c-0.4,0.4-0.9,0.7-1.4,0.9c-0.5,0.2-1.1,0.3-1.7,0.3c-0.7,0-1.3-0.1-1.8-0.3
		c-0.5-0.2-1-0.6-1.4-1c-0.4-0.4-0.6-0.9-0.8-1.5C96.6,58.6,96.5,58,96.5,57.4L96.5,57.4z M99.5,57.4c0,0.7,0.1,1.2,0.4,1.5
		c0.3,0.3,0.6,0.4,0.9,0.4c0.3,0,0.6-0.1,0.9-0.4c0.3-0.3,0.4-0.8,0.4-1.5c0-0.7-0.1-1.2-0.4-1.5c-0.3-0.3-0.6-0.5-0.9-0.5
		c-0.2,0-0.4,0.1-0.6,0.2c-0.2,0.1-0.4,0.3-0.5,0.6C99.5,56.4,99.5,56.8,99.5,57.4L99.5,57.4z M99,52.3c0-0.2,0.1-0.3,0.2-0.5
		c0.1-0.1,0.3-0.2,0.6-0.2c0.1,0,0.6,0.1,1.3,0.3c0.7,0.2,1.2,0.3,1.6,0.3c0.4,0,0.7-0.1,1-0.3c0.3-0.2,0.6-0.4,0.7-0.7
		c0.2-0.3,0.3-0.7,0.3-1.1c0-0.6-0.2-1-0.5-1.4c-0.3-0.3-0.7-0.5-1.3-0.5c-0.2,0-0.4,0-0.6,0.1c0.1,0.1,0.1,0.2,0.1,0.3
		c0,0.3-0.2,0.4-0.6,0.4c-0.2,0-0.6-0.1-1.1-0.2c-0.3-0.1-0.5-0.2-0.8-0.2c-0.2-0.1-0.5-0.1-0.7-0.1c-0.7,0-1.3,0.2-1.8,0.6
		c-0.5,0.4-0.8,1.1-0.8,2.1c0,0.9,0.3,1.6,0.9,2.2c0.2-0.3,0.5-0.5,0.7-0.6c0.3-0.1,0.6-0.3,0.9-0.4V52.3L99,52.3z M114.3,58.9v2.7
		c-0.9,0.2-1.8,0.4-2.8,0.4c-0.8,0-1.6-0.1-2.2-0.4c-0.7-0.3-1.2-0.6-1.7-1.1c-0.5-0.5-0.8-1.1-1.1-1.7c-0.2-0.7-0.4-1.4-0.4-2.2
		c0-1.1,0.2-2.1,0.6-2.9c0.4-0.8,1-1.4,1.7-1.8c0.7-0.4,1.5-0.6,2.5-0.6c0.7,0,1.4,0.1,2,0.4c0.6,0.3,1.2,0.8,1.7,1.7
		c0.5,0.8,0.7,2,0.7,3.6c0,0.3,0,0.5,0,0.7h-5.4c-0.2-0.3-0.3-0.7-0.3-1.1c0-0.4,0-0.7,0.1-0.9h2.8c0-1.1-0.6-1.7-1.6-1.7
		c-0.6,0-1.1,0.2-1.5,0.7c-0.3,0.5-0.5,1.1-0.5,1.9c0,0.6,0.1,1.1,0.3,1.5c0.2,0.5,0.5,0.8,1,1.1c0.5,0.3,1.1,0.4,1.9,0.4
		C112.9,59.3,113.6,59.2,114.3,58.9L114.3,58.9z M121.3,61.7v-7.8c-0.6,0-1.2,0.3-1.6,0.9c-0.4,0.6-0.7,1.7-0.7,3.2
		c0,0.6,0,1.3,0.1,1.8c0.1,0.6,0.1,1.2,0.3,1.8h-3c-0.1-0.4-0.1-0.7-0.2-1.2c0-0.4-0.1-0.9-0.1-1.4c0-0.5,0-0.9,0-1.3
		c0-1.4,0.2-2.6,0.5-3.5c0.4-0.9,0.8-1.6,1.3-2c0.5-0.4,1-0.7,1.5-0.8c0.5-0.1,0.9-0.2,1.3-0.2h3.4v10.4H121.3L121.3,61.7z
		 M128.8,51.3v2.6c0.4-0.5,0.8-1,1.2-1.5c0.5-0.5,0.9-0.8,1.3-1.1h2.9v10.4h-2.9v-7.1c-1,0.8-1.8,1.8-2.5,3.2v3.9h-2.9V51.3H128.8z"
		/>
	<g>
		<path class="st6" d="M78.9,65.5c-0.4,0-0.8,0.2-1.1,0.5c-0.3,0.3-0.4,0.7-0.4,1.3c0,0.4,0.1,0.8,0.3,1.1c0.3,0.4,0.7,0.6,1.3,0.6
			c0.4,0,0.7-0.1,0.9-0.2c0.2-0.2,0.4-0.4,0.5-0.7l0,0l-0.9-0.2l0,0c0,0.1-0.1,0.3-0.2,0.3c-0.1,0.1-0.2,0.1-0.3,0.1
			c-0.2,0-0.3-0.1-0.5-0.2c-0.1-0.1-0.2-0.3-0.2-0.5h2.1l0,0c0-0.7-0.1-1.1-0.4-1.5C79.8,65.6,79.4,65.5,78.9,65.5z M78.4,66.8
			c0-0.2,0.1-0.4,0.2-0.5c0.1-0.1,0.3-0.2,0.4-0.2c0.2,0,0.3,0.1,0.4,0.2c0.1,0.1,0.2,0.3,0.2,0.5H78.4z"/>
		<polygon class="st6" points="80.6,66.3 81.7,66.3 81.7,68.8 82.6,68.8 82.6,66.3 83.6,66.3 83.6,65.5 80.6,65.5 		"/>
		<rect x="83.9" y="66.7" class="st6" width="1.7" height="0.9"/>
		<polygon class="st6" points="63.5,66.3 64.5,66.3 64.5,68.8 65.4,68.8 65.4,66.3 66.4,66.3 66.4,65.5 63.5,65.5 		"/>
		<polygon class="st6" points="62.1,66.7 61,66.7 61,65.5 60.1,65.5 60.1,68.8 61,68.8 61,67.5 62.1,67.5 62.1,68.8 63.1,68.8 
			63.1,65.5 62.1,65.5 		"/>
		<polygon class="st6" points="57.2,67.4 57.2,65.5 56.3,65.5 56.3,68.8 57.2,68.8 58.5,66.9 58.5,68.8 59.4,68.8 59.4,65.5 
			58.5,65.5 		"/>
		<path class="st6" d="M72,65.5c-0.2,0-0.4,0.1-0.6,0.2c-0.1,0.1-0.3,0.2-0.3,0.3v-0.4h-0.9V70h0.9v-1.5c0.1,0.1,0.3,0.2,0.4,0.3
			c0.1,0.1,0.3,0.1,0.5,0.1c0.4,0,0.7-0.2,1-0.5c0.3-0.3,0.4-0.7,0.4-1.3c0-0.5-0.1-0.9-0.4-1.2C72.7,65.6,72.4,65.5,72,65.5z
			 M72.5,67.1c0,0.3-0.1,0.6-0.2,0.7c-0.1,0.1-0.3,0.2-0.5,0.2c-0.2,0-0.4-0.1-0.5-0.2c-0.1-0.2-0.2-0.4-0.2-0.8
			c0-0.3,0.1-0.5,0.2-0.7c0.1-0.2,0.3-0.2,0.5-0.2c0.2,0,0.3,0.1,0.5,0.2C72.4,66.6,72.5,66.8,72.5,67.1z"/>
		<polygon class="st6" points="88,67.7 87.2,65.6 87.2,65.5 86.1,65.5 86.1,68.8 86.9,68.8 86.9,66.9 87.5,68.8 87.6,68.8 
			88.3,68.8 89,66.9 89,68.8 89.8,68.8 89.8,65.5 88.7,65.5 		"/>
		<path class="st6" d="M68.1,65.5c-0.4,0-0.8,0.2-1.1,0.5c-0.3,0.3-0.4,0.7-0.4,1.3c0,0.4,0.1,0.8,0.3,1.1c0.3,0.4,0.7,0.6,1.3,0.6
			c0.4,0,0.7-0.1,0.9-0.2c0.2-0.2,0.4-0.4,0.5-0.7l0,0l-0.9-0.2l0,0c0,0.1-0.1,0.3-0.2,0.3c-0.1,0.1-0.2,0.1-0.3,0.1
			c-0.2,0-0.3-0.1-0.5-0.2c-0.1-0.1-0.2-0.3-0.2-0.5h2.1l0,0c0-0.7-0.1-1.1-0.4-1.5C69,65.6,68.6,65.5,68.1,65.5z M67.6,66.8
			c0-0.2,0.1-0.4,0.2-0.5c0.1-0.1,0.3-0.2,0.4-0.2c0.2,0,0.3,0.1,0.4,0.2c0.1,0.1,0.2,0.3,0.2,0.5H67.6z"/>
		<polygon class="st6" points="76,66.7 74.9,66.7 74.9,65.5 74,65.5 74,68.8 74.9,68.8 74.9,67.5 76,67.5 76,68.8 76.9,68.8 
			76.9,65.5 76,65.5 		"/>
		<path class="st6" d="M93.2,68.3c0-0.1,0-0.3,0-0.6l0-1c0-0.4,0-0.6-0.1-0.8c-0.1-0.1-0.2-0.3-0.4-0.4c-0.2-0.1-0.5-0.1-0.9-0.1
			c-0.4,0-0.7,0.1-1,0.2c-0.2,0.2-0.4,0.4-0.5,0.7l0,0l0.8,0.2l0,0c0-0.1,0.1-0.2,0.2-0.3c0.1-0.1,0.2-0.1,0.3-0.1
			c0.2,0,0.4,0,0.4,0.1c0.1,0.1,0.1,0.2,0.1,0.3v0.1c-0.2,0.1-0.4,0.1-0.8,0.2C91.2,66.9,91,67,90.8,67c-0.2,0.1-0.3,0.2-0.4,0.3
			c-0.1,0.1-0.1,0.3-0.1,0.5c0,0.3,0.1,0.5,0.3,0.7c0.2,0.2,0.5,0.3,0.8,0.3c0.2,0,0.4,0,0.5-0.1c0.1-0.1,0.3-0.2,0.4-0.3
			c0,0,0,0,0,0c0,0.1,0.1,0.2,0.1,0.3l0,0h0.9l0-0.1C93.3,68.6,93.2,68.4,93.2,68.3z M92.3,67.3v0.1c0,0.2,0,0.3,0,0.4
			c0,0.1-0.1,0.2-0.2,0.3c-0.1,0.1-0.3,0.1-0.4,0.1c-0.1,0-0.2,0-0.3-0.1c-0.1-0.1-0.1-0.2-0.1-0.3c0-0.1,0-0.2,0.1-0.3
			c0,0,0.2-0.1,0.4-0.1C92,67.3,92.2,67.3,92.3,67.3z"/>
		<path class="st6" d="M121.7,65.5c-0.3,0-0.5,0.1-0.7,0.2c-0.2,0.1-0.3,0.2-0.4,0.4c0-0.3,0.1-0.5,0.2-0.6c0.1-0.2,0.2-0.3,0.4-0.3
			c0.2-0.1,0.4-0.1,0.6-0.1h0.1c0.1,0,0.1,0,0.2,0c0.5,0,0.8-0.1,0.9-0.2c0.1-0.1,0.2-0.3,0.2-0.6l0,0h-0.6l0,0
			c0,0.1-0.1,0.1-0.2,0.1h-0.4c-0.7,0-1.2,0.2-1.5,0.5c-0.3,0.3-0.4,0.9-0.4,1.7c0,0.7,0.1,1.1,0.2,1.4c0.1,0.3,0.3,0.5,0.6,0.7
			c0.3,0.2,0.6,0.2,0.9,0.2c0.5,0,0.9-0.2,1.2-0.5c0.3-0.3,0.5-0.7,0.5-1.2c0-0.4-0.1-0.8-0.4-1.2C122.5,65.7,122.1,65.5,121.7,65.5
			z M122.1,67.8c-0.1,0.2-0.3,0.2-0.5,0.2c-0.2,0-0.4-0.1-0.5-0.2c-0.1-0.2-0.2-0.4-0.2-0.7c0-0.3,0.1-0.5,0.2-0.7
			c0.1-0.2,0.3-0.2,0.5-0.2c0.2,0,0.4,0.1,0.5,0.2c0.1,0.2,0.2,0.4,0.2,0.7C122.3,67.4,122.2,67.7,122.1,67.8z"/>
		<path class="st6" d="M118,65.5c-0.4,0-0.8,0.2-1.1,0.5c-0.3,0.3-0.4,0.7-0.4,1.3c0,0.4,0.1,0.8,0.3,1.1c0.3,0.4,0.7,0.6,1.3,0.6
			c0.4,0,0.7-0.1,0.9-0.2c0.2-0.2,0.4-0.4,0.5-0.7l0,0l-0.9-0.2l0,0c0,0.1-0.1,0.3-0.2,0.3c-0.1,0.1-0.2,0.1-0.3,0.1
			c-0.2,0-0.3-0.1-0.5-0.2c-0.1-0.1-0.2-0.3-0.2-0.5h2.1l0,0c0-0.7-0.1-1.1-0.4-1.5C118.8,65.6,118.5,65.5,118,65.5z M118.6,66.8
			h-1.2c0-0.2,0.1-0.4,0.2-0.5c0.1-0.1,0.3-0.2,0.4-0.2c0.2,0,0.3,0.1,0.4,0.2C118.5,66.5,118.6,66.6,118.6,66.8z"/>
		<polygon class="st6" points="114.1,67.7 113.3,65.6 113.3,65.5 112.2,65.5 112.2,68.8 113,68.8 113,66.9 113.7,68.8 113.7,68.8 
			114.5,68.8 115.2,66.9 115.2,68.8 116,68.8 116,65.5 114.9,65.5 		"/>
		<path class="st6" d="M127.5,67.4c0,0.3,0,0.5,0,0.6c0,0,0,0.1-0.2,0.1c0,0-0.1,0-0.2,0c-0.1,0-0.1,0-0.1,0h0v0.7l0,0
			c0.2,0,0.4,0.1,0.5,0.1c0.2,0,0.4,0,0.5-0.1c0.1,0,0.2-0.2,0.3-0.3c0.1-0.2,0.1-0.4,0.1-0.8v-1.4h1.1v2.5h0.9v-3.3h-2.9V67.4z"/>
		<polygon class="st6" points="133.2,65.5 132,67.4 132,65.5 131.1,65.5 131.1,68.8 132,68.8 133.2,66.9 133.2,68.8 134.1,68.8 
			134.1,65.5 		"/>
		<path class="st6" d="M125.1,65.5c-0.4,0-0.8,0.2-1.1,0.5s-0.4,0.7-0.4,1.3c0,0.4,0.1,0.8,0.3,1.1c0.3,0.4,0.7,0.6,1.3,0.6
			c0.4,0,0.7-0.1,0.9-0.2c0.2-0.2,0.4-0.4,0.5-0.7l0,0l-0.9-0.2l0,0c0,0.1-0.1,0.3-0.2,0.3c-0.1,0.1-0.2,0.1-0.3,0.1
			c-0.2,0-0.3-0.1-0.5-0.2c-0.1-0.1-0.2-0.3-0.2-0.5h2.1l0,0c0-0.7-0.1-1.1-0.4-1.5C126,65.6,125.6,65.5,125.1,65.5z M124.6,66.8
			c0-0.2,0.1-0.4,0.2-0.5c0.1-0.1,0.3-0.2,0.4-0.2c0.2,0,0.3,0.1,0.4,0.2c0.1,0.1,0.2,0.3,0.2,0.5H124.6z"/>
		<path class="st6" d="M99.2,68.3c0-0.1,0-0.3,0-0.6l0-1c0-0.4,0-0.6-0.1-0.8c-0.1-0.1-0.2-0.3-0.4-0.4c-0.2-0.1-0.5-0.1-0.9-0.1
			c-0.4,0-0.7,0.1-1,0.2c-0.2,0.2-0.4,0.4-0.5,0.7l0,0l0.8,0.2l0,0c0-0.1,0.1-0.2,0.2-0.3c0.1-0.1,0.2-0.1,0.3-0.1
			c0.2,0,0.4,0,0.4,0.1c0.1,0.1,0.1,0.2,0.1,0.3v0.1c-0.2,0.1-0.4,0.1-0.8,0.2c-0.3,0.1-0.5,0.1-0.7,0.2c-0.2,0.1-0.3,0.2-0.4,0.3
			c-0.1,0.1-0.1,0.3-0.1,0.5c0,0.3,0.1,0.5,0.3,0.7c0.2,0.2,0.5,0.3,0.8,0.3c0.2,0,0.4,0,0.5-0.1c0.1-0.1,0.3-0.2,0.4-0.3
			c0,0,0,0,0,0c0,0.1,0.1,0.2,0.1,0.3l0,0h0.9l0-0.1C99.3,68.6,99.2,68.4,99.2,68.3z M98.2,67.3v0.1c0,0.2,0,0.3,0,0.4
			c0,0.1-0.1,0.2-0.2,0.3c-0.1,0.1-0.3,0.1-0.4,0.1c-0.1,0-0.2,0-0.3-0.1c-0.1-0.1-0.1-0.2-0.1-0.3c0-0.1,0-0.2,0.1-0.3
			c0,0,0.2-0.1,0.4-0.1C98,67.3,98.1,67.3,98.2,67.3z"/>
		<polygon class="st6" points="93.9,68.8 94.8,68.8 94.8,66.3 96.1,66.3 96.1,65.5 93.9,65.5 		"/>
		<path class="st6" d="M101.8,67.1c0.2-0.1,0.3-0.2,0.3-0.3c0.1-0.1,0.1-0.3,0.1-0.4c0-0.3-0.1-0.5-0.3-0.7
			c-0.2-0.2-0.5-0.3-0.9-0.3c-0.3,0-0.6,0.1-0.8,0.2c-0.2,0.1-0.4,0.4-0.5,0.7l0,0l0.8,0.2l0,0l0,0c0.1-0.2,0.1-0.3,0.2-0.3
			c0.1,0,0.2-0.1,0.3-0.1c0.1,0,0.2,0,0.3,0.1c0.1,0.1,0.1,0.2,0.1,0.3c0,0.1,0,0.2-0.1,0.2c-0.1,0.1-0.1,0.1-0.2,0.1
			c-0.1,0-0.2,0-0.3,0h0v0.6h0.2c0.2,0,0.3,0,0.4,0.1c0.1,0.1,0.1,0.1,0.1,0.3c0,0.1,0,0.2-0.1,0.3s-0.2,0.1-0.4,0.1
			c-0.3,0-0.5-0.1-0.6-0.4l0,0l-0.8,0.1l0,0l0,0c0.2,0.6,0.7,0.9,1.4,0.9c0.4,0,0.8-0.1,1-0.3c0.2-0.2,0.4-0.4,0.4-0.7
			c0-0.2-0.1-0.4-0.2-0.5C102.1,67.3,102,67.2,101.8,67.1z"/>
		<polygon class="st6" points="103.9,67.4 103.9,65.5 103,65.5 103,68.8 103.9,68.8 105.1,66.9 105.1,68.8 106,68.8 106,65.5 
			105.1,65.5 		"/>
		<polygon class="st6" points="108.8,66.7 107.7,66.7 107.7,65.5 106.7,65.5 106.7,68.8 107.7,68.8 107.7,67.5 108.8,67.5 
			108.8,68.8 109.7,68.8 109.7,65.5 108.8,65.5 		"/>
	</g>
	<g>
		<rect x="2.5" y="48.2" class="st7" width="26.1" height="23"/>
		<path class="st0" d="M29.4,71.9H1.8V47.5h27.5V71.9z M3.3,70.5H28V48.9H3.3V70.5z"/>
	</g>
	<g>
		<path class="st8" d="M4.7,68.7l0.3,0c0,0.1,0,0.2,0,0.2c0,0.1,0.1,0.1,0.2,0.2c0.1,0,0.2,0.1,0.3,0.1c0.1,0,0.3,0,0.3-0.1
			C5.9,69,6,68.9,6,68.8c0-0.1,0-0.1-0.1-0.2c0-0.1-0.2-0.1-0.3-0.2c-0.2-0.1-0.3-0.1-0.3-0.2c-0.1,0-0.1-0.1-0.2-0.2
			C5,68.1,5,68,5,67.9c0-0.2,0.1-0.3,0.2-0.4c0.1-0.1,0.3-0.2,0.5-0.2c0.2,0,0.4,0.1,0.6,0.2c0.1,0.1,0.2,0.3,0.2,0.4l-0.3,0
			c0-0.1,0-0.2-0.1-0.3c-0.1-0.1-0.2-0.1-0.3-0.1c-0.1,0-0.2,0-0.3,0.1c-0.1,0.1-0.1,0.1-0.1,0.2c0,0.1,0,0.1,0.1,0.2
			c0,0,0.1,0.1,0.3,0.1c0.3,0.1,0.4,0.2,0.5,0.3c0.1,0.1,0.2,0.2,0.2,0.4c0,0.1,0,0.2-0.1,0.3c-0.1,0.1-0.1,0.2-0.3,0.2
			c-0.1,0.1-0.3,0.1-0.4,0.1c-0.2,0-0.4-0.1-0.6-0.2C4.8,69.1,4.7,68.9,4.7,68.7L4.7,68.7z M7.9,69.1c-0.1,0.1-0.2,0.2-0.3,0.2
			c-0.1,0-0.2,0.1-0.3,0.1c-0.2,0-0.3-0.1-0.4-0.2c-0.1-0.1-0.2-0.2-0.2-0.4c0-0.1,0-0.2,0.1-0.3c0-0.1,0.1-0.1,0.2-0.2
			c0.1,0,0.2-0.1,0.3-0.1c0.1,0,0.2,0,0.4,0c0.2,0,0.4,0,0.4-0.1c0-0.1,0-0.2,0-0.2c0-0.1,0-0.1-0.1-0.2c-0.1-0.1-0.2-0.1-0.3-0.1
			c-0.1,0-0.3,0-0.3,0.1c-0.1,0.1-0.2,0.1-0.2,0.3l-0.3,0c0.1-0.2,0.2-0.3,0.3-0.4c0.1-0.1,0.3-0.2,0.6-0.2c0.2,0,0.4,0.1,0.6,0.2
			c0.1,0.1,0.2,0.2,0.2,0.3c0,0.1,0,0.2,0,0.4l-0.1,0.5c0,0.2-0.1,0.3-0.1,0.4c0,0.1,0,0.1,0,0.3H7.9C7.9,69.3,7.9,69.2,7.9,69.1
			L7.9,69.1z M8,68.4c0,0-0.1,0-0.1,0c-0.1,0-0.1,0-0.3,0c-0.2,0-0.3,0-0.4,0.1c-0.1,0-0.1,0.1-0.2,0.1c0,0.1-0.1,0.1-0.1,0.2
			C6.9,68.9,7,69,7,69c0.1,0.1,0.2,0.1,0.3,0.1c0.1,0,0.2,0,0.3-0.1c0.1-0.1,0.2-0.1,0.2-0.2C7.9,68.7,7.9,68.6,8,68.4L8,68.4z
			 M8.5,70.1l0-0.3c0.1,0,0.1,0,0.2,0c0.1,0,0.1,0,0.2,0c0.1,0,0.1-0.1,0.2-0.2l0.1-0.2l-0.3-1.9h0.3l0.1,1c0,0.2,0.1,0.4,0.1,0.6
			l0.9-1.5h0.3l-1.2,2.2C9.2,69.8,9.1,69.9,9,70c-0.1,0.1-0.2,0.1-0.3,0.1C8.6,70.1,8.6,70.1,8.5,70.1L8.5,70.1z M11.2,69.1
			c-0.1,0-0.1,0-0.2,0c-0.1,0-0.1,0-0.1,0c0,0,0-0.1,0-0.1c0,0,0-0.1,0-0.2l0.2-1.1h0.3l0.1-0.3h-0.3l0.1-0.7L11,66.9l-0.1,0.5h-0.3
			l-0.1,0.3h0.3l-0.2,1.1c0,0.2,0,0.2,0,0.3c0,0.1,0,0.1,0.1,0.2c0.1,0.1,0.2,0.1,0.3,0.1c0.1,0,0.1,0,0.2,0L11.2,69.1L11.2,69.1z
			 M11.5,69.3l0.4-1.9h0.3l-0.1,0.3c0.1-0.1,0.2-0.2,0.3-0.3c0.1-0.1,0.2-0.1,0.3-0.1c0.1,0,0.2,0,0.3,0.1c0.1,0.1,0.1,0.2,0.2,0.3
			c0.1-0.1,0.2-0.2,0.3-0.3c0.1-0.1,0.2-0.1,0.3-0.1c0.2,0,0.3,0,0.4,0.1c0.1,0.1,0.1,0.2,0.1,0.3c0,0.1,0,0.2,0,0.3l-0.3,1.2h-0.3
			l0.3-1.3c0-0.1,0-0.2,0-0.2c0-0.1,0-0.1-0.1-0.1c0,0-0.1-0.1-0.2-0.1c-0.1,0-0.2,0-0.3,0.1c-0.1,0.1-0.2,0.1-0.2,0.2
			c-0.1,0.1-0.1,0.2-0.1,0.4L13,69.3h-0.3l0.3-1.3c0-0.1,0-0.2,0-0.2c0-0.1,0-0.1-0.1-0.2c0,0-0.1-0.1-0.2-0.1c-0.1,0-0.2,0-0.3,0.1
			c-0.1,0.1-0.2,0.1-0.2,0.2c-0.1,0.1-0.1,0.3-0.2,0.5l-0.2,0.9H11.5L11.5,69.3z M16,68.7l0.3,0c0,0.2-0.2,0.3-0.3,0.5
			c-0.2,0.1-0.4,0.2-0.6,0.2c-0.1,0-0.3,0-0.4-0.1c-0.1-0.1-0.2-0.2-0.3-0.3c-0.1-0.1-0.1-0.3-0.1-0.4c0-0.2,0-0.4,0.1-0.6
			c0.1-0.2,0.2-0.3,0.4-0.4c0.2-0.1,0.3-0.1,0.5-0.1c0.2,0,0.4,0.1,0.5,0.2c0.1,0.1,0.2,0.3,0.2,0.6c0,0.1,0,0.2,0,0.3H15
			c0,0,0,0.1,0,0.1c0,0.2,0,0.3,0.1,0.4c0.1,0.1,0.2,0.1,0.3,0.1c0.1,0,0.2,0,0.3-0.1C15.9,68.9,15.9,68.8,16,68.7L16,68.7z
			 M15.1,68.2h1.1c0,0,0-0.1,0-0.1c0-0.2,0-0.3-0.1-0.4c-0.1-0.1-0.2-0.1-0.3-0.1c-0.1,0-0.3,0-0.4,0.1C15.2,67.9,15.1,68,15.1,68.2
			L15.1,68.2z M16.7,69.3l0.6-2.7h0.3l-0.2,0.9c0.1-0.1,0.2-0.2,0.3-0.2c0.1,0,0.2-0.1,0.3-0.1c0.2,0,0.3,0.1,0.4,0.2
			c0.1,0.1,0.2,0.3,0.2,0.6c0,0.2,0,0.3-0.1,0.5c0,0.1-0.1,0.3-0.2,0.4c-0.1,0.1-0.1,0.2-0.2,0.2c-0.1,0.1-0.2,0.1-0.2,0.1
			c-0.1,0-0.2,0-0.2,0c-0.1,0-0.2,0-0.3-0.1c-0.1-0.1-0.2-0.2-0.2-0.3l-0.1,0.4H16.7L16.7,69.3z M17.1,68.6L17.1,68.6
			c0,0.2,0,0.4,0.1,0.4c0.1,0.1,0.2,0.1,0.3,0.1c0.1,0,0.2,0,0.3-0.1c0.1-0.1,0.2-0.2,0.2-0.4c0.1-0.2,0.1-0.3,0.1-0.5
			c0-0.2,0-0.3-0.1-0.4c-0.1-0.1-0.2-0.1-0.3-0.1c-0.1,0-0.2,0-0.3,0.1c-0.1,0.1-0.2,0.2-0.2,0.4C17.2,68.3,17.1,68.5,17.1,68.6
			L17.1,68.6z M20.1,68.7l0.3,0c0,0.2-0.2,0.3-0.3,0.5c-0.2,0.1-0.4,0.2-0.6,0.2c-0.1,0-0.3,0-0.4-0.1c-0.1-0.1-0.2-0.2-0.3-0.3
			c-0.1-0.1-0.1-0.3-0.1-0.4c0-0.2,0-0.4,0.1-0.6c0.1-0.2,0.2-0.3,0.4-0.4c0.2-0.1,0.3-0.1,0.5-0.1c0.2,0,0.4,0.1,0.5,0.2
			c0.1,0.1,0.2,0.3,0.2,0.6c0,0.1,0,0.2,0,0.3h-1.4c0,0,0,0.1,0,0.1c0,0.2,0,0.3,0.1,0.4c0.1,0.1,0.2,0.1,0.3,0.1
			c0.1,0,0.2,0,0.3-0.1C20,68.9,20.1,68.8,20.1,68.7L20.1,68.7z M19.2,68.2h1.1c0,0,0-0.1,0-0.1c0-0.2,0-0.3-0.1-0.4
			c-0.1-0.1-0.2-0.1-0.3-0.1c-0.1,0-0.3,0-0.4,0.1C19.3,67.9,19.2,68,19.2,68.2L19.2,68.2z M20.8,69.3l0.6-2.7h0.3l-0.6,2.7H20.8
			L20.8,69.3z M22.1,67.1l0.1-0.4h0.3l-0.1,0.4H22.1L22.1,67.1z M21.6,69.3h0.3l0.4-1.9H22L21.6,69.3L21.6,69.3z M22.5,69.3l0.1-0.4
			H23l-0.1,0.4H22.5L22.5,69.3z M23.5,69.3l0.4-1.9h0.3l-0.1,0.4c0.1-0.1,0.2-0.3,0.3-0.3c0.1-0.1,0.2-0.1,0.3-0.1
			c0.1,0,0.1,0,0.2,0.1l-0.1,0.3c-0.1,0-0.1-0.1-0.2-0.1c-0.1,0-0.2,0.1-0.4,0.2c-0.1,0.1-0.2,0.4-0.3,0.7l-0.2,0.8H23.5L23.5,69.3z
			 M26,69l-0.1,0.3h0.3l0.4-1.9h-0.3l-0.2,0.8c0,0.2-0.1,0.3-0.1,0.3c0,0.1-0.1,0.2-0.2,0.3c-0.1,0.1-0.1,0.1-0.2,0.2
			c-0.1,0-0.2,0.1-0.3,0.1c-0.1,0-0.2,0-0.2-0.1c0,0-0.1-0.1-0.1-0.2c0-0.1,0-0.1,0-0.2l0.3-1.2h-0.3l-0.2,1.1
			c0,0.2-0.1,0.3-0.1,0.4c0,0.1,0,0.2,0.1,0.3c0.1,0.1,0.2,0.1,0.4,0.1C25.5,69.4,25.8,69.3,26,69z"/>
		<path class="st0" d="M8.7,70.2c-0.1,0-0.2,0-0.3,0l-0.1,0l0-0.5l0.1,0c0.1,0,0.2,0.1,0.3,0c0,0,0.1-0.1,0.1-0.2L9,69.3l-0.3-2h0.5
			l0.2,1.1c0,0.1,0,0.2,0,0.2l0.7-1.3h0.6l0.1-0.4l0.6-0.4l-0.2,0.8h0.3l-0.1,0.5h-0.3l-0.2,1c0,0.2,0,0.2,0,0.2c0,0,0,0,0,0
			c0.1,0,0.1,0,0.2,0l0.2,0l-0.1,0.5l-0.1,0c-0.2,0.1-0.5,0-0.6-0.1c-0.1-0.1-0.1-0.2-0.1-0.3c0,0,0-0.1,0-0.3l0.2-1h-0.2l-1.1,1.9
			c-0.1,0.2-0.2,0.4-0.3,0.5C9,70.2,8.9,70.2,8.7,70.2z M8.6,70c0.1,0,0.3,0,0.4-0.1c0.1,0,0.1-0.1,0.3-0.4l1.1-2h-0.1l-1,1.8l0-0.3
			c0-0.2,0-0.4-0.1-0.6l-0.1-0.9H9l0.3,1.8l-0.1,0.2c-0.1,0.1-0.1,0.2-0.2,0.3C8.9,69.9,8.7,69.9,8.6,70L8.6,70z M10.7,67.6H11
			l-0.3,1.2c0,0.2,0,0.3,0,0.3c0,0.1,0,0.1,0,0.1c0.1,0.1,0.2,0.1,0.4,0.1l0-0.1c-0.1,0-0.2,0-0.2-0.1c0,0-0.1-0.1-0.1-0.2
			c0,0,0-0.1,0-0.3l0.2-1.1h0.3l0,0h-0.3l0.1-0.6L11.1,67L11,67.5L10.7,67.6L10.7,67.6z M25.3,69.5c-0.2,0-0.3-0.1-0.4-0.2
			c-0.1-0.1-0.2-0.2-0.2-0.4c0-0.1,0-0.2,0.1-0.4l0.2-0.9l-0.2,0.3l-0.1-0.1c-0.1-0.1-0.2,0-0.4,0.1c-0.1,0.1-0.2,0.3-0.3,0.6
			l-0.2,0.9h-0.5l0.4-2.1h0.5l0,0.1c0,0,0,0,0,0c0.2-0.1,0.4-0.2,0.6,0l0.1,0l0-0.1h0.5l-0.3,1.4c0,0.1,0,0.2,0,0.2
			c0,0.1,0,0.1,0,0.1c0,0,0.1,0,0.1,0c0.1,0,0.1,0,0.2-0.1c0.1,0,0.1-0.1,0.2-0.2c0.1-0.1,0.1-0.1,0.1-0.2c0,0,0-0.1,0.1-0.3
			l0.2-0.9h0.5l-0.4,2.1h-0.5l0-0.1C25.7,69.4,25.5,69.5,25.3,69.5z M25.2,67.5l-0.2,1c0,0.2-0.1,0.3-0.1,0.4c0,0.1,0,0.2,0.1,0.2
			c0.1,0.1,0.4,0.1,0.6,0c-0.2,0.1-0.4,0-0.5-0.1C25.1,69.1,25,69,25,68.9c0-0.1,0-0.1,0-0.3l0.2-1.1H25.2z M26.1,69.2L26.1,69.2
			l0.4-1.7h-0.1l-0.2,0.7c0,0.2-0.1,0.3-0.1,0.4c0,0,0,0,0,0.1l0.1-0.1L26.1,69.2z M23.6,69.2L23.6,69.2l0.2-0.7
			c0-0.1,0-0.2,0.1-0.3l-0.1,0.1l0.2-0.8h-0.1L23.6,69.2z M24.6,67.5c-0.1,0-0.2,0-0.2,0.1c0,0-0.1,0-0.1,0.1c0.1-0.1,0.3-0.1,0.4,0
			L24.6,67.5C24.7,67.5,24.7,67.5,24.6,67.5z M19.5,69.5c-0.2,0-0.3,0-0.4-0.1c-0.1-0.1-0.2-0.2-0.3-0.3c-0.1-0.1-0.1-0.3-0.1-0.5
			c0-0.2,0.1-0.4,0.2-0.7c0.1-0.2,0.2-0.4,0.4-0.5c0.2-0.1,0.4-0.2,0.6-0.2c0.3,0,0.5,0.1,0.6,0.2c0.2,0.2,0.2,0.4,0.2,0.7
			c0,0.1,0,0.2,0,0.3l0,0.1h-1.4c0,0.1,0,0.3,0.1,0.3c0.1,0.1,0.3,0.1,0.5,0c0.1-0.1,0.2-0.2,0.2-0.3l0-0.1l0.5,0.1l0,0.1
			c-0.1,0.2-0.2,0.3-0.3,0.5C20,69.4,19.8,69.5,19.5,69.5z M19.8,67.5c-0.2,0-0.3,0-0.4,0.1c-0.1,0.1-0.2,0.2-0.3,0.4
			c-0.1,0.2-0.1,0.4-0.1,0.6c0,0.1,0,0.3,0.1,0.4c0.1,0.1,0.1,0.2,0.2,0.2c0.1,0.1,0.2,0.1,0.3,0.1c0.2,0,0.4-0.1,0.5-0.2
			c0.1-0.1,0.2-0.2,0.2-0.3l-0.1,0c-0.1,0.1-0.2,0.2-0.3,0.3c-0.3,0.2-0.6,0.2-0.8,0c-0.1-0.1-0.1-0.3-0.1-0.5c0,0,0-0.1,0-0.1
			l0-0.1h1.4c0-0.1,0-0.1,0-0.2c0-0.2-0.1-0.4-0.2-0.5C20.2,67.5,20,67.5,19.8,67.5z M17.6,69.5c-0.1,0-0.3,0-0.4-0.1
			c0,0-0.1-0.1-0.1-0.1l0,0.2h-0.5l0.6-2.9h0.5l-0.2,0.8c0,0,0,0,0.1,0c0.1,0,0.2-0.1,0.3-0.1c0.2,0,0.4,0.1,0.5,0.2
			c0.1,0.2,0.2,0.4,0.2,0.7c0,0.2,0,0.4-0.1,0.5c-0.1,0.2-0.1,0.3-0.2,0.4c-0.1,0.1-0.2,0.2-0.2,0.3c-0.1,0.1-0.2,0.1-0.3,0.1
			C17.8,69.5,17.7,69.5,17.6,69.5z M17.2,69.1c0,0,0.1,0.1,0.1,0.1c0.1,0.1,0.3,0.1,0.5,0c0.1,0,0.1-0.1,0.2-0.1
			c0.1-0.1,0.1-0.1,0.2-0.2c0.1-0.1,0.1-0.2,0.2-0.3c0-0.1,0.1-0.3,0.1-0.4c0-0.2-0.1-0.4-0.2-0.5c-0.1-0.1-0.2-0.2-0.4-0.2
			c-0.1,0-0.1,0-0.2,0c0,0,0,0-0.1,0c0.2-0.1,0.4,0,0.5,0.1c0.1,0.1,0.1,0.3,0.1,0.4c0,0.2,0,0.3-0.1,0.5c-0.1,0.2-0.2,0.3-0.3,0.4
			C17.7,69.3,17.4,69.3,17.2,69.1z M16.8,69.2L16.8,69.2l0.2-0.6l0.1,0.1c0,0,0-0.1,0-0.1l0-0.1c0-0.1,0-0.2,0.1-0.4
			c0-0.1,0.1-0.2,0.1-0.3l-0.1,0.1l0.2-1.1h-0.1L16.8,69.2z M17.8,67.7c-0.1,0-0.2,0-0.3,0.1c-0.1,0.1-0.2,0.2-0.2,0.4
			c0,0.1-0.1,0.2-0.1,0.3l0,0.1c0,0.1,0,0.2,0.1,0.3c0.1,0.1,0.3,0.1,0.5,0c0.1-0.1,0.1-0.2,0.2-0.3c0.1-0.2,0.1-0.3,0.1-0.4
			c0-0.1,0-0.2-0.1-0.3C17.9,67.8,17.9,67.7,17.8,67.7z M15.4,69.5c-0.2,0-0.3,0-0.4-0.1c-0.1-0.1-0.2-0.2-0.3-0.3
			c-0.1-0.1-0.1-0.3-0.1-0.5c0-0.2,0.1-0.4,0.2-0.7c0.1-0.2,0.2-0.4,0.4-0.5c0.2-0.1,0.4-0.2,0.6-0.2c0.3,0,0.5,0.1,0.6,0.2
			c0.2,0.2,0.2,0.4,0.2,0.7c0,0.1,0,0.2,0,0.3l0,0.1h-1.4c0,0.1,0,0.3,0.1,0.3c0.1,0.1,0.3,0.1,0.5,0c0.1-0.1,0.2-0.2,0.2-0.3l0-0.1
			l0.5,0.1l0,0.1c-0.1,0.2-0.2,0.3-0.3,0.5C15.9,69.4,15.7,69.5,15.4,69.5z M15.7,67.5c-0.2,0-0.3,0-0.4,0.1
			c-0.1,0.1-0.2,0.2-0.3,0.4c-0.1,0.2-0.1,0.4-0.1,0.6c0,0.1,0,0.3,0.1,0.4c0.1,0.1,0.1,0.2,0.2,0.2c0.1,0.1,0.2,0.1,0.3,0.1
			c0.2,0,0.4-0.1,0.5-0.2c0.1-0.1,0.2-0.2,0.2-0.3l-0.1,0c-0.1,0.1-0.2,0.2-0.3,0.3c-0.3,0.2-0.6,0.2-0.8-0.1
			c-0.1-0.1-0.1-0.3-0.1-0.5c0,0,0-0.1,0-0.1l0-0.1h1.4c0-0.1,0-0.1,0-0.2c0-0.2-0.1-0.4-0.2-0.5C16,67.5,15.9,67.5,15.7,67.5z
			 M7.2,69.5c-0.2,0-0.4-0.1-0.5-0.2c-0.1-0.1-0.2-0.3-0.2-0.5c0-0.1,0-0.2,0.1-0.3c0.1-0.1,0.1-0.2,0.2-0.2
			c0.1-0.1,0.2-0.1,0.3-0.1c0.1,0,0.2,0,0.4,0c0.2,0,0.3,0,0.4,0c0-0.1,0-0.1,0-0.1c0,0,0-0.1,0-0.1c-0.1,0-0.1-0.1-0.3-0.1
			c-0.1,0-0.2,0-0.3,0.1c-0.1,0-0.1,0.1-0.2,0.2l0,0.1l-0.6,0l0-0.1c0.1-0.2,0.2-0.4,0.4-0.5s0.4-0.2,0.6-0.2c0.3,0,0.5,0.1,0.6,0.2
			c0.1,0.1,0.2,0.2,0.2,0.4c0,0.1,0,0.2,0,0.4l-0.1,0.5c0,0.1,0,0.3,0,0.3c0,0.1,0,0.1,0,0.2l0,0.1H7.8l0-0.1c0,0,0,0,0-0.1
			c-0.1,0-0.1,0.1-0.2,0.1C7.5,69.5,7.3,69.5,7.2,69.5z M7.9,68.3c-0.1,0-0.2,0-0.3,0c-0.2,0-0.4,0-0.4,0c-0.1,0-0.2,0.1-0.3,0.1
			c-0.1,0-0.1,0.1-0.2,0.2c0,0.1-0.1,0.1-0.1,0.2c0,0.1,0,0.2,0.1,0.3c0.1,0.1,0.2,0.1,0.4,0.1c0.1,0,0.2,0,0.3-0.1c0,0,0,0,0,0
			c-0.2,0.1-0.4,0-0.6-0.1c-0.1-0.1-0.1-0.2-0.1-0.3c0-0.1,0-0.2,0.1-0.3C7,68.5,7,68.4,7.1,68.4c0.1,0,0.2-0.1,0.4-0.1
			C7.7,68.3,7.8,68.3,7.9,68.3C7.8,68.3,7.9,68.3,7.9,68.3z M8,69.2h0.1c0-0.1,0-0.1,0-0.2c0-0.1,0-0.2,0.1-0.4l0.1-0.5
			c0-0.1,0-0.2,0-0.3c0-0.1,0-0.2-0.1-0.2c-0.1-0.1-0.3-0.1-0.5-0.1c-0.2,0-0.4,0-0.5,0.1c-0.1,0.1-0.2,0.1-0.2,0.3l0.1,0
			c0-0.1,0.1-0.2,0.2-0.2c0.1-0.1,0.2-0.1,0.4-0.1c0.2,0,0.3,0,0.4,0.1c0.1,0.1,0.1,0.2,0.1,0.3c0,0.1,0,0.2,0,0.3l0,0.1l0,0.2
			c0,0.2-0.1,0.4-0.1,0.5c0,0,0,0,0,0.1l0.1,0l0,0.2C8,69.1,8,69.2,8,69.2z M7.8,68.5c-0.1,0-0.1,0-0.3,0c-0.2,0-0.3,0-0.4,0.1
			c-0.1,0-0.1,0-0.1,0.1c0,0,0,0.1,0,0.1c0,0.1,0,0.1,0.1,0.1C7.2,69,7.4,69,7.6,69c0.1,0,0.1-0.1,0.2-0.2
			C7.8,68.7,7.8,68.6,7.8,68.5z M5.5,69.5c-0.2,0-0.5-0.1-0.6-0.2c-0.2-0.1-0.3-0.3-0.3-0.6l0-0.1l0.5,0v0.1c0,0.1,0,0.1,0,0.2
			c0,0,0.1,0.1,0.1,0.1c0.1,0,0.1,0,0.2,0c0.1,0,0.2,0,0.3-0.1c0.1,0,0.1-0.1,0.1-0.1c0,0,0-0.1,0-0.1c0,0-0.1-0.1-0.3-0.2
			c-0.2-0.1-0.3-0.1-0.3-0.2C5.1,68.4,5,68.3,5,68.2c-0.1-0.1-0.1-0.2-0.1-0.3c0-0.2,0.1-0.3,0.2-0.5c0.1-0.1,0.3-0.2,0.6-0.2
			c0.3,0,0.5,0.1,0.6,0.2c0.1,0.1,0.2,0.3,0.2,0.5l0,0.1l-0.5,0L6,68c0-0.1,0-0.2-0.1-0.2c-0.1,0-0.1-0.1-0.3-0.1
			c-0.1,0-0.2,0-0.2,0.1c-0.1,0-0.1,0.1-0.1,0.1c0,0,0,0,0,0.1c0,0,0.1,0,0.3,0.1c0.4,0.2,0.5,0.2,0.5,0.3c0.1,0.1,0.2,0.3,0.2,0.4
			c0,0.1,0,0.2-0.1,0.3c-0.1,0.1-0.2,0.2-0.3,0.3C5.9,69.5,5.7,69.5,5.5,69.5z M4.8,68.8c0,0.2,0.1,0.3,0.2,0.3
			c0.1,0.1,0.3,0.1,0.5,0.1c0.1,0,0.3,0,0.4-0.1c0.1,0,0.2-0.1,0.2-0.2c0-0.1,0.1-0.1,0.1-0.2c0-0.1,0-0.2-0.1-0.3
			c0,0-0.1-0.1-0.4-0.2c-0.2-0.1-0.3-0.1-0.3-0.2c-0.1-0.1-0.1-0.2-0.1-0.2c0-0.1,0-0.2,0.1-0.3c0.1-0.1,0.2-0.1,0.3-0.1
			c0.2,0,0.3,0,0.4,0.1c0.1,0.1,0.1,0.1,0.1,0.2l0.1,0c0-0.1-0.1-0.2-0.1-0.3c-0.1-0.1-0.3-0.1-0.5-0.1c-0.2,0-0.3,0-0.4,0.1
			c-0.1,0.1-0.1,0.2-0.1,0.3c0,0.1,0,0.1,0,0.2c0,0.1,0.1,0.1,0.1,0.1c0,0,0.1,0.1,0.3,0.2c0.2,0.1,0.3,0.2,0.4,0.2
			c0.1,0.1,0.1,0.1,0.1,0.2c0,0.1,0,0.2-0.1,0.3c-0.1,0.1-0.2,0.1-0.4,0.1c-0.1,0-0.2,0-0.3-0.1C5.1,69.1,5,69,5,68.9
			c0-0.1,0-0.1,0-0.2L4.8,68.8z M23,69.4h-0.6l0.1-0.6h0.6L23,69.4z M22.6,69.2h0.1l0-0.2h-0.1L22.6,69.2z M22,69.4h-0.5l0.4-2.1
			h0.5L22,69.4z M21.7,69.2h0.1l0.4-1.7h-0.1L21.7,69.2z M21.2,69.4h-0.5l0.6-2.9h0.5L21.2,69.4z M20.9,69.2H21l0.5-2.4h-0.1
			L20.9,69.2z M14.2,69.4h-0.5l0.3-1.4c0-0.1,0-0.2,0-0.2c0,0,0-0.1,0-0.1c0,0-0.1,0-0.1,0c-0.1,0-0.2,0-0.2,0.1
			c-0.1,0-0.1,0.1-0.2,0.2c0,0.1-0.1,0.2-0.1,0.4l-0.2,1h-0.5l0.3-1.4c0-0.1,0-0.1,0-0.2c0,0,0-0.1,0-0.1c0,0-0.2,0-0.3,0
			c-0.1,0.1-0.2,0.1-0.2,0.2c-0.1,0.1-0.1,0.2-0.1,0.4l-0.2,1h-0.5l0.4-2.1h0.5l0,0.1c0,0,0.1,0,0.1-0.1c0.2-0.1,0.5-0.1,0.7,0
			c0.1,0,0.1,0.1,0.1,0.1c0.1-0.1,0.1-0.1,0.2-0.2c0.1-0.1,0.3-0.1,0.4-0.1c0.2,0,0.3,0,0.4,0.1c0.1,0.1,0.2,0.2,0.2,0.4
			c0,0.1,0,0.2,0,0.3L14.2,69.4z M13.9,69.2H14l0.2-1.2c0-0.2,0-0.2,0-0.3c0-0.1,0-0.2-0.1-0.2c-0.1-0.1-0.4-0.1-0.6,0
			c0,0,0,0-0.1,0c0.2-0.1,0.4-0.1,0.5,0c0,0,0.1,0.1,0.1,0.2c0,0.1,0,0.1,0,0.2L13.9,69.2z M12.8,69.2h0.1l0.2-0.8
			c0-0.2,0.1-0.3,0.1-0.5l0-0.2c0-0.1-0.1-0.2-0.1-0.2c-0.1-0.1-0.3-0.1-0.5,0c0,0,0,0-0.1,0c0.2-0.1,0.4-0.1,0.5,0
			c0.1,0.1,0.1,0.1,0.1,0.2c0,0,0,0.1,0,0.2L12.8,69.2z M11.6,69.2h0.1l0.2-0.8c0-0.1,0.1-0.3,0.1-0.3l0,0l0.1-0.6H12L11.6,69.2z
			 M20.4,68.3H19l0-0.1c0.1-0.2,0.2-0.4,0.3-0.5c0.3-0.2,0.6-0.2,0.8,0c0.1,0.1,0.2,0.3,0.2,0.5L20.4,68.3z M19.3,68.1h0.8
			c0-0.1,0-0.2-0.1-0.3c-0.1-0.1-0.4-0.1-0.6,0C19.4,67.9,19.4,68,19.3,68.1z M16.2,68.3h-1.3l0-0.1c0.1-0.2,0.2-0.4,0.3-0.5
			c0.3-0.2,0.6-0.2,0.8,0c0.1,0.1,0.2,0.3,0.2,0.5L16.2,68.3z M15.2,68.1H16c0-0.1,0-0.2-0.1-0.3c-0.1-0.1-0.4-0.1-0.6,0
			C15.3,67.9,15.3,68,15.2,68.1z M22.5,67.2h-0.5l0.1-0.6h0.5L22.5,67.2z M22.2,67h0.1l0-0.2h-0.1L22.2,67z"/>
	</g>
	<g>
		<polygon class="st8" points="12,50 15.8,50 14.7,55.6 		"/>
		<path class="st0" d="M14.8,55.9l-2.9-6h4.1L14.8,55.9z M12.2,50.1l2.5,5.2l1-5.2H12.2z"/>
	</g>
	<g>
		<polygon class="st1" points="11.6,65.2 15.7,55.1 15.8,65.2 		"/>
		<path class="st9" d="M15.9,65.3h-4.4l0.1-0.1l4.3-10.6L15.9,65.3z M11.8,65.1h3.9l-0.1-9.4L11.8,65.1z"/>
	</g>
	<g>
		<polygon class="st8" points="9,65.2 13.7,59.6 11.6,65.2 		"/>
		<path class="st0" d="M11.7,65.3H8.7L14,59L11.7,65.3z M9.2,65.1h2.3l1.8-4.9L9.2,65.1z"/>
	</g>
	<g>
		<polygon class="st8" points="6.4,52.9 5.8,53.7 5.5,54.4 5.2,55 5.1,55.3 4.8,56.3 4.7,56.7 4.6,57 4.5,57.3 4.5,57.7 4.4,58 
			4.3,58.5 4.3,60.5 4.4,60.8 4.4,61.1 4.5,61.4 4.5,61.7 4.6,61.9 4.7,62.2 4.8,62.5 4.9,62.9 5,63.2 5.1,63.4 5.2,63.5 5.3,63.6 
			5.4,63.8 5.5,63.9 5.6,64.1 5.8,64.2 5.9,64.3 6,64.4 6.1,64.5 6.2,64.6 6.4,64.8 6.7,64.9 6.9,65 7.3,65.2 8.4,65.2 9.4,60.1 
			11.4,50 10.5,50 10.4,50 10.1,50.1 9.6,50.3 9,50.6 8.1,51.2 7.5,51.7 7,52.2 		"/>
		<path class="st0" d="M8.5,65.3l-1.2,0l-0.4-0.1l-0.5-0.3l-0.6-0.5l-0.6-0.8L5,63.4l-0.1-0.2l-0.2-0.7l-0.3-0.9l-0.2-1.1l0-2.1
			l0.2-1.2l0.2-1.1l0.3-1l0.4-0.8l0.4-0.7l0.6-0.8l0.6-0.7l1.2-1l0.9-0.6l0.7-0.3L10,50l0.3-0.1h1.1L9.5,60.1L8.5,65.3z M7.3,65.1h1
			l1-5l1.9-10h-0.8l-0.3,0.1l-0.4,0.2l-0.6,0.3l-0.9,0.6l-1.1,1L6.5,53l-0.6,0.8l-0.4,0.7l-0.4,0.8l-0.3,1l-0.4,1.8l-0.1,0.4l0,2
			l0.1,0.5l0.2,0.8l0.2,0.6l0.2,0.7l0.1,0.1l0.2,0.3l0.5,0.6l0.2,0.2l0.1,0.1l0.3,0.2l0.5,0.3L7.3,65.1z"/>
	</g>
	<g>
		<polygon class="st1" points="17.8,50 21,50 21.2,65.2 16.7,65.2 16.6,52.6 		"/>
		<path class="st9" d="M21.3,65.3h-4.7l-0.1-12.7l0,0l1.2-2.7h3.4L21.3,65.3z M16.8,65.1h4.3l-0.1-15h-3.1l-1.1,2.6L16.8,65.1z"/>
	</g>
	<g>
		<polygon class="st1" points="23.2,50 26.6,50 26.6,65.1 22.1,65.1 22.1,52.6 		"/>
		<path class="st9" d="M26.7,65.3h-4.8l0-0.1l0-12.6l1.1-2.7h3.6V65.3z M22.2,65h4.3V50.1h-3.2l-1.1,2.6L22.2,65z"/>
	</g>
	<path class="st6" d="M30.6,73.3h-30V46h30V73.3z M2,71.8h27.2V47.5H2V71.8z"/>
</g>
<g id="Слой_1_1_">
</g>
</svg>
