<?xml version="1.0" standalone="no"?>
<!DOCTYPE svg PUBLIC "-//W3C//DTD SVG 20010904//EN"
 "http://www.w3.org/TR/2001/REC-SVG-20010904/DTD/svg10.dtd">
<svg version="1.0" xmlns="http://www.w3.org/2000/svg"
 width="94.000000pt" height="85.000000pt" viewBox="0 0 94.000000 85.000000"
 preserveAspectRatio="xMidYMid meet">

<g transform="translate(0.000000,85.000000) scale(0.100000,-0.100000)"
fill="#000000" stroke="none">
<path d="M54 786 l-34 -34 0 -321 c0 -349 2 -365 55 -389 35 -16 743 -17 778
-1 54 25 57 41 57 368 0 227 -3 306 -12 318 -59 73 -59 73 -167 73 -56 0 -103
4 -106 10 -4 6 -105 10 -272 10 l-265 0 -34 -34z m380 -274 c2 -4 1 -14 -4
-22 -7 -11 -14 -12 -32 -3 -13 6 -31 11 -41 11 -31 -2 -14 -29 28 -44 37 -12
65 -37 65 -56 0 -4 -9 -17 -20 -28 -15 -15 -33 -20 -72 -19 -39 0 -48 3 -33 9
17 7 17 9 3 9 -11 1 -15 6 -12 16 8 20 30 19 38 -1 8 -21 50 -14 54 9 2 10 -3
17 -13 17 -9 0 -13 5 -10 10 4 7 -2 9 -18 5 -19 -5 -28 -2 -36 13 -14 27 -14
55 1 70 13 13 94 17 102 4z m82 -10 c-4 -10 0 -36 7 -57 l14 -39 16 48 c9 27
14 52 11 57 -3 5 8 9 24 9 32 0 31 4 18 -122 -1 -15 1 -25 5 -23 4 3 9 -2 13
-10 4 -12 -3 -15 -31 -15 -30 0 -34 2 -24 14 7 8 11 30 9 48 l-3 33 -18 -42
c-9 -24 -20 -44 -24 -45 -4 -2 -15 20 -25 47 -16 43 -23 60 -46 108 -2 4 11 7
28 7 26 0 30 -3 26 -18z m-31 -150 c-33 -4 -41 3 -24 21 11 11 16 11 31 -2 18
-15 18 -16 -7 -19z"/>
</g>
</svg>
