<svg xmlns="http://www.w3.org/2000/svg" viewBox="0 0 30 27.3"><defs><style>.cls-1{fill:#fff;}.cls-2,.cls-3{fill:#314368;}.cls-3,.cls-4{fill-rule:evenodd;}.cls-4,.cls-5{fill:#f49520;}</style></defs><title>Logo_cm</title><g id="Layer_2" data-name="Layer 2"><g id="Layer_1-2" data-name="Layer 1"><rect class="cls-1" x="1.9" y="2.2" width="26.1" height="23"/><path class="cls-2" d="M28.8,25.9H1.2V1.5H28.7V25.9ZM2.7,24.5H27.4V2.9H2.7Z"/><path class="cls-3" d="M4.1,22.7h.3v.2c0,.1.1.1.2.2s.2.1.3.1.3,0,.3-.1.2-.2.2-.3,0-.1-.1-.2-.2-.1-.3-.2-.3-.1-.3-.2-.1-.1-.2-.2c-.1.1-.1,0-.1-.1a.52.52,0,0,1,.2-.4.76.76,0,0,1,.5-.2,1.42,1.42,0,0,1,.6.2.76.76,0,0,1,.2.4H5.6a.35.35,0,0,0-.4-.4.37.37,0,0,0-.3.1c-.1.1-.1.1-.1.2s0,.1.1.2a.44.44,0,0,0,.3.1,1.07,1.07,0,0,1,.5.3.52.52,0,0,1,.2.4.37.37,0,0,1-.1.3c-.1.1-.1.2-.3.2a.6.6,0,0,1-.4.1,1.42,1.42,0,0,1-.6-.2.51.51,0,0,1-.4-.5Zm3.2.4c-.1.1-.2.2-.3.2s-.2.1-.3.1a.52.52,0,0,1-.4-.2.52.52,0,0,1-.2-.4.37.37,0,0,1,.1-.3c0-.1.1-.1.2-.2s.2-.1.3-.1h.4c.2,0,.4,0,.4-.1v-.2c0-.1,0-.1-.1-.2a.37.37,0,0,0-.3-.1c-.1,0-.3,0-.3.1s-.2.1-.2.3H6.3a1.38,1.38,0,0,1,.3-.4.85.85,0,0,1,.6-.2,1.42,1.42,0,0,1,.6.2c.1.1.2.2.2.3v.4l-.1.5c0,.2-.1.3-.1.4v.3H7.3v-.4Zm.1-.7H7c-.2,0-.3,0-.4.1s-.1.1-.2.1-.1.1-.1.2a.35.35,0,0,0,.1.2.37.37,0,0,0,.3.1A.37.37,0,0,0,7,23c.1-.1.2-.1.2-.2s.1-.2.2-.4Zm.5,1.7v-.3h.4c.1,0,.1-.1.2-.2l.1-.2-.3-1.9h.3l.1,1c0,.2.1.4.1.6l.9-1.5H10L8.8,23.8a.52.52,0,0,0-.4.2.37.37,0,0,1-.3.1Zm2.7-1h-.3v-.3l.2-1.1h.3l.1-.3h-.3l.1-.7-.3.2-.1.5H10l-.1.3h.3L10,22.8v.3c0,.1,0,.1.1.2a.37.37,0,0,0,.3.1h.2v-.3Zm.3.2.4-1.9h.3l-.1.3.3-.3a.5.5,0,0,1,.6,0c.1.1.1.2.2.3l.3-.3a.37.37,0,0,1,.3-.1c.2,0,.3,0,.4.1a.37.37,0,0,1,.1.3V22l-.3,1.2h-.3l.3-1.3v-.2c0-.1,0-.1-.1-.1a.35.35,0,0,0-.2-.1.37.37,0,0,0-.3.1c-.1.1-.2.1-.2.2s-.1.2-.1.4l-.1,1.1h-.3l.3-1.3v-.2c0-.1,0-.1-.1-.2a.35.35,0,0,0-.2-.1.37.37,0,0,0-.3.1c-.1.1-.2.1-.2.2s-.1.3-.2.5l-.2.9h-.3Zm4.5-.6h.3c0,.2-.2.3-.3.5a1.42,1.42,0,0,1-.6.2.6.6,0,0,1-.4-.1l-.3-.3a.6.6,0,0,1-.1-.4,1.27,1.27,0,0,1,.1-.6.78.78,0,0,1,.4-.4.9.9,0,0,1,.5-.1.76.76,0,0,1,.5.2.85.85,0,0,1,.2.6v.3H14.4v.1c0,.2,0,.3.1.4a.5.5,0,0,0,.6,0c.2-.2.2-.3.3-.4Zm-.9-.5h1.1v-.1c0-.2,0-.3-.1-.4a.37.37,0,0,0-.3-.1.6.6,0,0,0-.4.1c-.2.2-.3.3-.3.5Zm1.6,1.1.6-2.7H17l-.2.9c.1-.1.2-.2.3-.2s.2-.1.3-.1a.52.52,0,0,1,.4.2.85.85,0,0,1,.2.6.9.9,0,0,1-.1.5.76.76,0,0,1-.2.4c-.1.1-.1.2-.2.2a.31.31,0,0,1-.2.1h-.2a.37.37,0,0,1-.3-.1c-.1-.1-.2-.2-.2-.3l-.1.4h-.4Zm.4-.7h0c0,.2,0,.4.1.4a.5.5,0,0,0,.6,0,.52.52,0,0,0,.2-.4.9.9,0,0,0,.1-.5c0-.2,0-.3-.1-.4a.5.5,0,0,0-.6,0,.52.52,0,0,0-.2.4,4.33,4.33,0,0,1-.1.5Zm3,.1h.3c0,.2-.2.3-.3.5a1.42,1.42,0,0,1-.6.2.6.6,0,0,1-.4-.1l-.3-.3a.6.6,0,0,1-.1-.4,1.27,1.27,0,0,1,.1-.6.78.78,0,0,1,.4-.4.9.9,0,0,1,.5-.1.76.76,0,0,1,.5.2.85.85,0,0,1,.2.6v.3H18.4v.1c0,.2,0,.3.1.4a.5.5,0,0,0,.6,0c.3-.2.4-.3.4-.4Zm-.9-.5h1.1v-.1c0-.2,0-.3-.1-.4a.37.37,0,0,0-.3-.1.6.6,0,0,0-.4.1c-.2.2-.3.3-.3.5Zm1.6,1.1.6-2.7h.3l-.6,2.7Zm1.3-2.2.1-.4h.3l-.1.4ZM21,23.3h.3l.4-1.9h-.3L21,23.3Zm.9,0,.1-.4h.4l-.1.4Zm1,0,.4-1.9h.3l-.1.4c.1-.1.2-.3.3-.3a.37.37,0,0,1,.3-.1c.1,0,.1,0,.2.1l-.1.3c-.1,0-.1-.1-.2-.1s-.2.1-.4.2a2.39,2.39,0,0,0-.3.7l-.2.8h-.2Zm2.5-.3-.1.3h.3l.4-1.9h-.3l-.2.8a.44.44,0,0,1-.1.3c0,.1-.1.2-.2.3L25,23c-.1,0-.2.1-.3.1s-.2,0-.2-.1a.35.35,0,0,1-.1-.2v-.2l.3-1.2h-.3l-.2,1.1c0,.2-.1.3-.1.4a.37.37,0,0,0,.1.3c.1.1.2.1.4.1A.67.67,0,0,0,25.4,23Z"/><path class="cls-2" d="M8.1,24.2H7.7v-.5h.1c.1,0,.2.1.3,0a.35.35,0,0,0,.1-.2l.2-.2-.3-2h.5l.2,1.1v.2l.7-1.3h.6l.1-.4.6-.4-.2.8h.3l-.1.5h-.3l-.2,1V23h.4l-.1.5h-.1a.61.61,0,0,1-.6-.1.37.37,0,0,1-.1-.3v-.3l.2-1H9.8L8.7,23.7a2.19,2.19,0,0,1-.3.5ZM8,24a.6.6,0,0,0,.4-.1c.1,0,.1-.1.3-.4l1.1-2H9.7l-1,1.8V23a1.27,1.27,0,0,0-.1-.6l-.1-.9H8.4l.3,1.8-.1.2c-.1.1-.1.2-.2.3s-.3.1-.4.2Zm2.1-2.4h.3l-.3,1.2v.4c.1.1.2.1.4.1v-.1c-.1,0-.2,0-.2-.1a.35.35,0,0,1-.1-.2v-.3l.2-1.1h0l.1-.6V21l-.1.5-.3.1Zm14.6,1.9a.71.71,0,0,1-.6-.6.76.76,0,0,1,.1-.4l.2-.9-.2.3-.1-.1c-.1-.1-.2,0-.4.1a1.63,1.63,0,0,0-.3.6l-.2.9h-.5l.4-2.1h.5v.1h0c.2-.1.4-.2.6,0h.1v-.1h.5l-.3,1.4V23h.1c.1,0,.1,0,.2-.1s.1-.1.2-.2.1-.1.1-.2a.77.77,0,0,1,.1-.3l.2-.9h.5l-.4,2.1H25v-.1C25.1,23.4,24.9,23.5,24.7,23.5Zm-.1-2-.2,1c0,.2-.1.3-.1.4s0,.2.1.2a.63.63,0,0,0,.6,0,.44.44,0,0,1-.5-.1c0,.1-.1,0-.1-.1v-.3l.2-1.1Zm.9,1.7h0l.4-1.7h-.1l-.2.7c0,.2-.1.3-.1.4v.1l.1-.1Zm-2.5,0h0l.2-.7a.37.37,0,0,1,.1-.3l-.1.1.2-.8h-.1Zm1-1.7c-.1,0-.2,0-.2.1a.1.1,0,0,0-.1.1.3.3,0,0,1,.4,0l-.1-.2Zm-5.1,2c-.2,0-.3,0-.4-.1l-.3-.3a.75.75,0,0,1-.1-.5,2.54,2.54,0,0,1,.2-.7,1,1,0,0,1,.4-.5,1.42,1.42,0,0,1,.6-.2.73.73,0,0,1,.8.9v.4H18.7c0,.1,0,.3.1.3a.45.45,0,0,0,.5,0c.1-.1.2-.2.2-.3v-.1l.5.1v.1c-.1.2-.2.3-.3.5A1,1,0,0,1,18.9,23.5Zm.3-2c-.2,0-.3,0-.4.1a1.38,1.38,0,0,0-.3.4,1.27,1.27,0,0,0-.1.6.6.6,0,0,0,.1.4c.1.1.1.2.2.2a.37.37,0,0,0,.3.1.76.76,0,0,0,.5-.2c.1-.1.2-.2.2-.3h-.1l-.3.3a.6.6,0,0,1-.8,0,.75.75,0,0,1-.1-.5v-.2h1.4v-.2a.76.76,0,0,0-.2-.5C19.6,21.5,19.4,21.5,19.2,21.5Zm-2.2,2a.6.6,0,0,1-.4-.1l-.1-.1v.2H16l.6-2.9h.5l-.2.8H17c.1,0,.2-.1.3-.1a.76.76,0,0,1,.5.2,1.45,1.45,0,0,1,.2.7.75.75,0,0,1-.1.5c-.1.2-.1.3-.2.4s-.2.2-.2.3a.37.37,0,0,1-.3.1Zm-.4-.4.1.1a.45.45,0,0,0,.5,0c.1,0,.1-.1.2-.1l.2-.2c.1-.1.1-.2.2-.3s.1-.3.1-.4a.76.76,0,0,0-.2-.5.52.52,0,0,0-.4-.2H17a.44.44,0,0,1,.5.1.6.6,0,0,1,.1.4.9.9,0,0,1-.1.5,1.38,1.38,0,0,1-.3.4C17.1,23.3,16.8,23.3,16.6,23.1Zm-.4.1h0l.2-.6.1.1v-.2a.76.76,0,0,1,.1-.4c0-.1.1-.2.1-.3l-.1.1.2-1.1h-.1Zm1-1.5a.37.37,0,0,0-.3.1.52.52,0,0,0-.2.4c0,.1-.1.2-.1.3v.1a.37.37,0,0,0,.1.3.45.45,0,0,0,.5,0c.1-.1.1-.2.2-.3a.76.76,0,0,0,.1-.4.37.37,0,0,0-.1-.3C17.3,21.8,17.3,21.7,17.2,21.7Zm-2.4,1.8c-.2,0-.3,0-.4-.1l-.3-.3a.75.75,0,0,1-.1-.5,2.54,2.54,0,0,1,.2-.7,1,1,0,0,1,.4-.5,1.42,1.42,0,0,1,.6-.2.73.73,0,0,1,.8.9v.4H14.6c0,.1,0,.3.1.3a.45.45,0,0,0,.5,0c.1-.1.2-.2.2-.3v-.1l.5.1v.1c-.1.2-.2.3-.3.5A1,1,0,0,1,14.8,23.5Zm.3-2c-.2,0-.3,0-.4.1a1.38,1.38,0,0,0-.3.4,1.27,1.27,0,0,0-.1.6.6.6,0,0,0,.1.4c.1.1.1.2.2.2a.37.37,0,0,0,.3.1.76.76,0,0,0,.5-.2c.1-.1.2-.2.2-.3h-.1l-.3.3a.52.52,0,0,1-.8-.1.75.75,0,0,1-.1-.5v-.2h1.4v-.2a.76.76,0,0,0-.2-.5C15.4,21.5,15.3,21.5,15.1,21.5Zm-8.5,2a.68.68,0,0,1-.7-.7.37.37,0,0,1,.1-.3c.1-.1.1-.2.2-.2a.37.37,0,0,1,.3-.1h.8V22c-.1,0-.1-.1-.3-.1a.37.37,0,0,0-.3.1c-.1,0-.1.1-.2.2v.1H5.9v-.1a1,1,0,0,1,.4-.5,1.42,1.42,0,0,1,.6-.2.85.85,0,0,1,.6.2.52.52,0,0,1,.2.4v.4l-.1.5v.6H7.2v-.2c-.1,0-.1.1-.2.1Zm.7-1.2H6.6c-.1,0-.2.1-.3.1s-.1.1-.2.2-.1.1-.1.2a.37.37,0,0,0,.1.3c.1.1.2.1.4.1a.37.37,0,0,0,.3-.1h0a.66.66,0,0,1-.6-.1.5.5,0,0,1,0-.6c.2.1.2,0,.3,0s.2-.1.4-.1Zm.1.9h.1V23a.76.76,0,0,1,.1-.4l.1-.5v-.3c0-.1,0-.2-.1-.2a.75.75,0,0,0-.5-.1.75.75,0,0,0-.5.1c-.1.1-.2.1-.2.3h.1a.22.22,0,0,1,.2-.2c.1-.1.2-.1.4-.1s.3,0,.4.1a.37.37,0,0,1,.1.3v.6a4.33,4.33,0,0,1-.1.5v.1h.1v.2C7.4,23.1,7.4,23.2,7.4,23.2Zm-.2-.7H6.9c-.2,0-.3,0-.4.1s-.1,0-.1.1v.1c0,.1,0,.1.1.1A.75.75,0,0,0,7,23c.1,0,.1-.1.2-.2Zm-2.3,1a1.07,1.07,0,0,1-.6-.2.6.6,0,0,1-.3-.6v-.1h.5v.3l.1.1h.2a.37.37,0,0,0,.3-.1.1.1,0,0,0,.1-.1v-.1a1.24,1.24,0,0,0-.3-.2c-.2-.1-.3-.1-.3-.2-.1.1-.2,0-.2-.1a.37.37,0,0,1-.1-.3c0-.2.1-.3.2-.5a.85.85,0,0,1,.6-.2.85.85,0,0,1,.6.2.76.76,0,0,1,.2.5V22H5.4c0-.1,0-.2-.1-.2s-.1-.1-.3-.1-.2,0-.2.1a.1.1,0,0,0-.1.1V22a.77.77,0,0,1,.3.1c.4.2.5.2.5.3a.76.76,0,0,1,.2.4.37.37,0,0,1-.1.3l-.3.3C5.3,23.5,5.1,23.5,4.9,23.5Zm-.7-.7c0,.2.1.3.2.3a.75.75,0,0,0,.5.1.6.6,0,0,0,.4-.1.22.22,0,0,0,.2-.2c0-.1.1-.1.1-.2a.37.37,0,0,0-.1-.3,1.09,1.09,0,0,0-.4-.2c-.2-.1-.3-.1-.3-.2a.31.31,0,0,1-.1-.2.35.35,0,0,1,.4-.4c.2,0,.3,0,.4.1s.1.1.1.2h.1c0-.1-.1-.2-.1-.3a.75.75,0,0,0-.5-.1c-.2,0-.3,0-.4.1a.37.37,0,0,0-.1.3v.2a.1.1,0,0,0,.1.1,1.24,1.24,0,0,0,.3.2c.2.1.3.2.4.2s.1.1.1.2a.37.37,0,0,1-.1.3c-.1.1-.2.1-.4.1a.37.37,0,0,1-.3-.1c-.2.2-.3.1-.3,0v-.2Zm18.2.6h-.6l.1-.6h.6Zm-.4-.2h.1V23H22Zm-.6.2h-.5l.4-2.1h.5Zm-.3-.2h.1l.4-1.7h-.1Zm-.5.2h-.5l.6-2.9h.5Zm-.3-.2h.1l.5-2.4h-.1Zm-6.7.2h-.5l.3-1.4v-.3h-.1c-.1,0-.2,0-.2.1s-.1.1-.2.2-.1.2-.1.4l-.2,1h-.5l.3-1.4v-.3h-.3c-.1.1-.2.1-.2.2s-.1.2-.1.4l-.2,1h-.5l.4-2.1H12v.1a.1.1,0,0,0,.1-.1.85.85,0,0,1,.7,0,.1.1,0,0,1,.1.1l.2-.2a.6.6,0,0,1,.4-.1c.2,0,.3,0,.4.1a.52.52,0,0,1,.2.4v.3Zm-.3-.2h.1l.2-1.2v-.3c0-.1,0-.2-.1-.2a.63.63,0,0,0-.6,0h-.1a.45.45,0,0,1,.5,0,.35.35,0,0,1,.1.2v.2Zm-1.1,0h.1l.2-.8c0-.2.1-.3.1-.5v-.2a.35.35,0,0,0-.1-.2.45.45,0,0,0-.5,0h-.1a.45.45,0,0,1,.5,0c.1.1.1.1.1.2v.2Zm-1.2,0h.1l.2-.8a1,1,0,0,1,.1-.3h0l.1-.6h-.1Zm8.8-.9H18.4v-.1a2.19,2.19,0,0,1,.3-.5.6.6,0,0,1,.8,0,.76.76,0,0,1,.2.5Zm-1.1-.2h.8a.37.37,0,0,0-.1-.3.63.63,0,0,0-.6,0A.37.37,0,0,1,18.7,22.1Zm-3.1.2H14.3v-.1a2.19,2.19,0,0,1,.3-.5.6.6,0,0,1,.8,0,.76.76,0,0,1,.2.5Zm-1-.2h.8a.37.37,0,0,0-.1-.3.63.63,0,0,0-.6,0A.37.37,0,0,1,14.6,22.1Zm7.3-.9h-.5l.1-.6H22Zm-.3-.2h.1v-.2h-.1Z"/><polygon class="cls-3" points="11.4 4 15.2 4 14.1 9.6 11.4 4"/><path class="cls-2" d="M14.2,9.9l-2.9-6h4.1ZM11.6,4.1l2.5,5.2,1-5.2Z"/><polygon class="cls-4" points="11 19.2 15.1 9.1 15.2 19.2 11 19.2"/><path class="cls-5" d="M15.3,19.3H10.9l.1-.1L15.3,8.6Zm-4.1-.2h3.9L15,9.7Z"/><polygon class="cls-3" points="8.4 19.2 13.1 13.6 11 19.2 8.4 19.2"/><path class="cls-2" d="M11.1,19.3h-3L13.4,13Zm-2.5-.2h2.3l1.8-4.9Z"/><polygon class="cls-3" points="5.8 6.9 5.2 7.7 4.9 8.4 4.6 9 4.5 9.3 4.2 10.3 4.1 10.7 4 11 3.9 11.3 3.9 11.7 3.8 12 3.7 12.5 3.7 14.5 3.8 14.8 3.8 15.1 3.9 15.4 3.9 15.7 4 15.9 4.1 16.2 4.2 16.5 4.3 16.9 4.4 17.2 4.5 17.4 4.6 17.5 4.7 17.6 4.8 17.8 4.9 17.9 5 18.1 5.2 18.2 5.3 18.3 5.4 18.4 5.5 18.5 5.6 18.6 5.8 18.8 6.1 18.9 6.3 19 6.7 19.2 7.8 19.2 8.8 14.1 10.8 4 9.9 4 9.8 4 9.5 4.1 9 4.3 8.4 4.6 7.5 5.2 6.9 5.7 6.4 6.2 5.8 6.9"/><path class="cls-2" d="M7.9,19.3H6.7l-.4-.1-.5-.3-.6-.5-.6-.8-.2-.2-.1-.2-.2-.7-.3-.9-.2-1.1V12.4l.2-1.2L4,10.1l.3-1,.4-.8.4-.7.6-.8.6-.7,1.2-1,.9-.6.7-.3L9.4,4l.3-.1h1.1L8.9,14.1Zm-1.2-.2h1l1-5,1.9-10H9.8l-.3.1-.4.2-.6.3-.9.6-1.1,1L5.9,7l-.6.8-.4.7-.4.8-.3,1-.4,1.8-.1.4v2l.1.5.2.8.2.6.2.7.1.1.2.3.5.6.2.2.1.1.3.2.5.3Z"/><polygon class="cls-4" points="17.2 4 20.4 4 20.6 19.2 16.1 19.2 16 6.6 17.2 4"/><path class="cls-5" d="M20.7,19.3H16L15.9,6.6h0l1.2-2.7h3.4Zm-4.5-.2h4.3l-.1-15H17.3L16.2,6.7Z"/><polygon class="cls-4" points="22.6 4 26 4 26 19.1 21.5 19.1 21.5 6.6 22.6 4"/><path class="cls-5" d="M26.1,19.3H21.3V6.6l1.1-2.7H26V19.3ZM21.6,19h4.3V4.1H22.7L21.6,6.7Z"/><path class="cls-1" d="M30,27.3H0V0H30ZM1.4,25.8H28.6V1.5H1.4Z"/></g></g></svg>