<?xml version="1.0" encoding="utf-8"?>
<!-- Generator: Adobe Illustrator 23.1.0, SVG Export Plug-In . SVG Version: 6.00 Build 0)  -->
<svg version="1.1" id="Capa_1" xmlns="http://www.w3.org/2000/svg" xmlns:xlink="http://www.w3.org/1999/xlink" x="0px" y="0px"
	 viewBox="0 0 512 512" style="enable-background:new 0 0 512 512;" xml:space="preserve">
<style type="text/css">
	.st0{fill:#FFFFFF;}
	.st1{clip-path:url(#SVGID_2_);fill:#FFFFFF;}
	.st2{fill:#959494;}
	.st3{clip-path:url(#SVGID_4_);fill:#959494;}
	.st4{fill:#FDA216;}
	.st5{clip-path:url(#SVGID_6_);fill:#FDA216;}
</style>
<g>
	<g>
		<path class="st2" d="M438.5,423.9L333.4,318.8c20.4-25.2,32.6-57.1,32.6-91.9c0-80.7-65.7-146.4-146.4-146.4
			S73.3,146.1,73.3,226.8S139,373.2,219.7,373.2c34.8,0,66.8-12.3,91.9-32.6l105.1,105.1c3,3,6.9,4.5,10.9,4.5s7.9-1.5,10.9-4.5
			C444.5,439.7,444.5,429.9,438.5,423.9z M219.7,342.4c-63.7,0-115.5-51.8-115.5-115.5s51.8-115.5,115.5-115.5
			s115.5,51.8,115.5,115.5S283.4,342.4,219.7,342.4z"/>
	</g>
</g>
</svg>
