<?xml version="1.0" encoding="utf-8"?>
<!-- Generator: Adobe Illustrator 23.1.0, SVG Export Plug-In . SVG Version: 6.00 Build 0)  -->
<svg version="1.1" id="Capa_1" xmlns="http://www.w3.org/2000/svg" xmlns:xlink="http://www.w3.org/1999/xlink" x="0px" y="0px"
	 viewBox="0 0 512 512" style="enable-background:new 0 0 512 512;" xml:space="preserve">
<style type="text/css">
	.st0{fill:#FFFFFF;}
	.st1{clip-path:url(#SVGID_2_);fill:#FFFFFF;}
	.st2{fill:#959494;}
	.st3{clip-path:url(#SVGID_4_);fill:#959494;}
	.st4{fill:#FDA216;}
	.st5{clip-path:url(#SVGID_6_);fill:#FDA216;}
</style>
<g>
	<g>
		<path class="st0" d="M257.4,277C144,277,81.5,330.7,81.5,428.1c0,7.6,6.2,13.8,13.8,13.8h324.1c7.6,0,13.8-6.2,13.8-13.8
			C433.2,330.7,370.8,277,257.4,277z M109.6,414.3c5.4-72.8,55.1-109.7,147.8-109.7s142.4,36.9,147.8,109.7H109.6z"/>
	</g>
</g>
<g>
	<g>
		<path class="st0" d="M257.4,64.5c-52.1,0-91.4,40.1-91.4,93.2c0,54.7,41,99.2,91.4,99.2s91.4-44.5,91.4-99.2
			C348.7,104.5,309.4,64.5,257.4,64.5z M257.4,229.3c-35.2,0-63.8-32.1-63.8-71.6c0-38,26.8-65.7,63.8-65.7
			c36.4,0,63.8,28.2,63.8,65.7C321.2,197.2,292.5,229.3,257.4,229.3z"/>
	</g>
</g>
</svg>
