<?xml version="1.0" encoding="iso-8859-1"?>
<!-- Generator: Adobe Illustrator 23.1.0, SVG Export Plug-In . SVG Version: 6.00 Build 0)  -->
<svg version="1.1" id="Capa_1" xmlns="http://www.w3.org/2000/svg" xmlns:xlink="http://www.w3.org/1999/xlink" x="0px" y="0px"
	 viewBox="-49 141 512 512" style="enable-background:new -49 141 512 512;" xml:space="preserve">
<path style="fill:#FFFFFF;" d="M26.888,643.517h360.225c3.872,0,7.163-2.829,7.745-6.657l31.865-209.7
	c0.72-4.741-2.95-9.011-7.745-9.011H-4.979c-4.796,0-8.466,4.27-7.745,9.011l31.866,209.7
	C19.724,640.688,23.015,643.517,26.888,643.517z M308.179,466.648h17.065c3.572,0,6.468,2.896,6.468,6.468v115.433
	c0,3.572-2.896,6.468-6.468,6.468h-17.065c-3.572,0-6.468-2.896-6.468-6.468V473.116
	C301.711,469.544,304.607,466.648,308.179,466.648z M198.468,466.648h17.065c3.572,0,6.468,2.896,6.468,6.468v115.433
	c0,3.572-2.896,6.468-6.468,6.468h-17.065c-3.572,0-6.468-2.896-6.468-6.468V473.116C192,469.544,194.896,466.648,198.468,466.648z
	 M88.757,466.648h17.065c3.572,0,6.468,2.896,6.468,6.468v115.433c0,3.572-2.896,6.468-6.468,6.468H88.757
	c-3.572,0-6.468-2.896-6.468-6.468V473.116C82.289,469.544,85.185,466.648,88.757,466.648z"/>
<path style="fill:#FFFFFF;" d="M425.255,335.654l-37.493-156.139c-0.972-4.047-4.591-6.9-8.753-6.9h-72.903v-8.301
	c0-7.639-6.192-13.831-13.831-13.831H121.726c-7.639,0-13.831,6.192-13.831,13.831v8.301H34.992c-4.162,0-7.781,2.853-8.753,6.9
	l-37.495,156.139h-26.518c-6.2,0-11.226,5.026-11.226,11.226v30.042c0,6.2,5.026,11.226,11.226,11.226h489.548
	c6.2,0,11.226-5.026,11.226-11.226V346.88c0-6.2-5.026-11.226-11.226-11.226H425.255z M19.597,335.654l30.29-126.139
	c0.972-4.047,4.591-6.9,8.753-6.9h49.255v8.301c0,7.639,6.192,13.831,13.831,13.831h170.549c7.639,0,13.831-6.192,13.831-13.831
	v-8.301h49.255c4.162,0,7.781,2.853,8.753,6.9l30.29,126.139H19.597z"/>
</svg>
