<?xml version="1.0" encoding="utf-8"?>
<!-- Generator: Adobe Illustrator 23.1.0, SVG Export Plug-In . SVG Version: 6.00 Build 0)  -->
<svg version="1.1" id="Capa_1" xmlns="http://www.w3.org/2000/svg" xmlns:xlink="http://www.w3.org/1999/xlink" x="0px" y="0px"
	 viewBox="0 0 512 512" style="enable-background:new 0 0 512 512;" xml:space="preserve">
<style type="text/css">
	.st0{fill:#FFFFFF;}
	.st1{clip-path:url(#SVGID_2_);fill:#FFFFFF;}
	.st2{fill:#959494;}
	.st3{clip-path:url(#SVGID_4_);fill:#959494;}
	.st4{fill:#FDA216;}
	.st5{clip-path:url(#SVGID_6_);fill:#FDA216;}
</style>
<g>
	<path class="st2" d="M415.2,61.1h-264c-6.6,0-12,5.4-12,12v36h24v-24h240v336h-240v-24h-24v36c0,6.6,5.4,12,12,12h264
		c6.6,0,12-5.4,12-12v-360C427.2,66.5,421.8,61.1,415.2,61.1L415.2,61.1z M415.2,61.1"/>
	<path class="st2" d="M209.8,316.6l17,17l80.5-80.5l-80.5-80.5l-17,17l51.5,51.5H91.2v24h170.1L209.8,316.6z M209.8,316.6"/>
</g>
</svg>
