<svg id="Capa_1" data-name="Capa 1" xmlns="http://www.w3.org/2000/svg" viewBox="0 0 512 512"><defs><style>.cls-1{fill:#fff;fill-rule:evenodd;}</style></defs><title>vk_1</title><path class="cls-1" d="M0,1.6v512H512V1.6ZM383.83,284.86c11.75,11.47,24.18,22.26,34.73,34.94A100.55,100.55,0,0,1,431,337.67c4.77,9.3.45,19.49-7.86,20.05l-51.62,0c-13.33,1.09-23.94-4.28-32.9-13.4-7.12-7.26-13.77-15-20.65-22.52a48.4,48.4,0,0,0-9.27-8.29c-7.05-4.57-13.17-3.18-17.2,4.16s-5.06,15.79-5.44,24.12c-.56,12.16-4.23,15.34-16.44,15.93-26.12,1.21-50.88-2.76-73.89-15.91-20.31-11.6-36-28-49.71-46.53-26.67-36.15-47.1-75.84-65.44-116.67-4.15-9.19-1.12-14.13,9-14.3,16.87-.34,33.73-.29,50.57,0,6.85.11,11.4,4,14,10.49a314.07,314.07,0,0,0,34.26,63.5c3.75,5.27,7.55,10.51,13,14.22,6,4.13,10.55,2.78,13.37-3.92a43.39,43.39,0,0,0,3-13.32c1.34-15.57,1.5-31.15-.81-46.67-1.43-9.7-6.92-16-16.59-17.81-4.93-.94-4.2-2.75-1.82-5.58,4.17-4.85,8.09-7.88,15.86-7.88h58.34c9.2,1.79,11.26,5.94,12.52,15.18l0,64.85c-.11,3.58,1.8,14.19,8.22,16.54,5.15,1.7,8.58-2.45,11.67-5.71,14-14.83,23.94-32.36,32.85-50.5,3.94-8,7.35-16.26,10.66-24.55,2.45-6.14,6.26-9.16,13.17-9.05l56.17.07a30.93,30.93,0,0,1,5,.27c9.44,1.63,12,5.71,9.11,15-4.59,14.49-13.57,26.58-22.33,38.7-9.39,13-19.37,25.48-28.69,38.52-8.5,11.94-7.83,17.94,2.76,28.28Zm0,0"/></svg>