<?xml version="1.0" encoding="UTF-8"?>
<svg width="391px" height="20px" viewBox="0 0 391 20" version="1.1" xmlns="http://www.w3.org/2000/svg" xmlns:xlink="http://www.w3.org/1999/xlink">
    <!-- Generator: Sketch 52.6 (67491) - http://www.bohemiancoding.com/sketch -->
    <title>Group 36</title>
    <desc>Created with Sketch.</desc>
    <g id="Редизайн-для-просмотра" stroke="none" stroke-width="1" fill="none" fill-rule="evenodd">
        <g id="Mirbeer_Design_Main-page" transform="translate(-525.000000, -5324.000000)">
            <g id="Group-36" transform="translate(525.000000, 5324.000000)">
                <path d="M19,0 L372,0 C374.209139,-4.05812251e-16 376,1.790861 376,4 L376,246 C376,248.209139 374.209139,250 372,250 L19,250 C16.790861,250 15,248.209139 15,246 L15,4 C15,1.790861 16.790861,4.05812251e-16 19,0 Z" id="Rectangle-3" fill="#EADCD4"></path>
                <path d="M4,10 L387,10 C389.209139,10 391,11.790861 391,14 L391,256 C391,258.209139 389.209139,260 387,260 L4,260 C1.790861,260 2.705415e-16,258.209139 0,256 L0,14 C-2.705415e-16,11.790861 1.790861,10 4,10 Z" id="Rectangle-3" fill="#C2A596"></path>
            </g>
        </g>
    </g>
</svg>