<?xml version="1.0" encoding="utf-8"?>
<!-- Generator: Adobe Illustrator 23.1.0, SVG Export Plug-In . SVG Version: 6.00 Build 0)  -->
<svg version="1.1" id="Capa_1" xmlns="http://www.w3.org/2000/svg" xmlns:xlink="http://www.w3.org/1999/xlink" x="0px" y="0px"
	 viewBox="0 0 512 512" style="enable-background:new 0 0 512 512;" xml:space="preserve">
<style type="text/css">
	.st0{fill:#FFFFFF;}
	.st1{clip-path:url(#SVGID_2_);fill:#FFFFFF;}
	.st2{fill:#959494;}
	.st3{clip-path:url(#SVGID_4_);fill:#959494;}
	.st4{fill:#FDA216;}
	.st5{clip-path:url(#SVGID_6_);fill:#FDA216;}
</style>
<g>
	<path class="st4" d="M181.2,205.8c3.8-3.8,3.8-10.1,0-13.9c-3.8-3.8-10.1-3.8-13.9,0c-3.8,3.8-3.8,10.1,0,13.9
		C171.2,209.6,177.4,209.6,181.2,205.8z"/>
	<path class="st4" d="M278.7,219.7c11.5-11.5,11.5-30.2,0-41.8c-11.5-11.5-30.2-11.5-41.8,0c-11.5,11.5-11.5,30.2,0,41.8
		C248.4,231.2,267.2,231.2,278.7,219.7z M250.8,191.9c3.8-3.8,10.1-3.8,13.9,0c3.8,3.8,3.8,10.1,0,13.9c-3.8,3.8-10.1,3.8-13.9,0
		C247,202,247,195.7,250.8,191.9z"/>
	<path class="st4" d="M236.9,289.3c-11.5,11.5-11.5,30.2,0,41.8c11.5,11.5,30.2,11.5,41.8,0c11.5-11.5,11.5-30.3,0-41.8
		C267.1,277.8,248.5,277.8,236.9,289.3z M264.8,317.2c-3.8,3.8-10.1,3.8-13.9,0c-3.8-3.8-3.9-10.1,0-13.9c3.8-3.8,10.1-3.8,13.9,0
		C268.6,307.1,268.6,313.3,264.8,317.2z"/>
	<path class="st4" d="M178.5,270.4c1.1,5.3,6.3,8.8,11.6,7.7l139.2-27.8c5.3-1.1,8.8-6.3,7.7-11.6c-1.1-5.3-6.3-8.8-11.6-7.7
		l-139.2,27.8C180.9,259.9,177.5,265.1,178.5,270.4z"/>
	<path class="st4" d="M312.4,60.7c-1.8-1.8-4.3-2.9-7-2.9s-5.1,1-7,2.9L195.2,164c-3.8,3.8-3.8,10.1,0,13.9c3.8,3.8,10.1,3.8,13.9,0
		l96.4-96.4l125.3,125.3l-221,221L84.5,302.6l68.9-68.9c3.8-3.8,3.8-10.1,0-13.9c-3.8-3.8-10.1-3.8-13.9,0l-75.9,75.9
		c-3.8,3.8-3.8,10.1,0,13.9l139.2,139.2c3.8,3.8,10.1,3.8,13.9,0l234.9-234.9c3.8-3.8,3.8-10.1,0-13.9L312.4,60.7z"/>
	<path class="st4" d="M501.5,178.9l-35.6-34.6c18.1-24.3,18-58.3-0.8-83.1l42.2-42.2c3.8-3.8,3.8-10.1,0-13.9
		c-3.8-3.8-10.1-3.8-13.9,0l-42.3,42.2c-24.7-18.6-58.7-18.9-83.1-0.8l-34.6-35.6c0,0-0.1-0.1-0.1-0.1c-11.5-11.5-30.2-11.6-41.8,0
		L14.9,288.6c-11.5,11.5-11.5,30.2,0,41.8l39,39c-8.7,25-2.4,53.3,16.6,72.3c19.1,19.1,47.4,25.4,72.3,16.6l39,39
		c11.5,11.5,30.2,11.5,41.8,0l277.9-276.7C513.1,209.2,513.1,190.6,501.5,178.9C501.5,179,501.5,179,501.5,178.9z M487.6,206.8
		L209.8,483.5c-3.8,3.8-10.1,3.8-13.9,0l-43.7-43.7c-1.9-1.9-4.4-2.9-7-2.9c-1.4,0-2.8,0.3-4.2,0.9c-18.9,8.9-41.7,4.8-56.6-10.1
		c-14.9-14.9-19-37.6-10.1-56.6c1.8-3.8,1-8.2-1.9-11.1l-43.7-43.7c-3.8-3.8-3.8-10.1,0-13.9L305.5,24.7c3.8-3.8,10-3.8,13.9,0
		l41,42.2c3.7,3.8,10,4.2,14,0.1c16.8-16.9,43.2-18.7,62.7-5.6l-14.4,14.4c-11-5.2-24.5-3.3-33.6,5.8c-11.5,11.5-11.5,30.3,0,41.8
		c11.5,11.5,30.2,11.5,41.8,0c9.3-9.3,10.9-22.9,5.8-33.6L451,75.3c13,19.2,11.5,45.6-5.6,62.7c-1.9,1.9-2.9,4.4-2.9,7
		c0,2.6,1.1,5.2,3,7l42.2,41C491.5,196.8,491.5,203,487.6,206.8z M416.8,109.4c-3.8,3.8-10.1,3.8-13.9,0c-3.8-3.8-3.8-10.1,0-13.9
		c3.8-3.8,10.1-3.8,13.9,0C420.7,99.3,420.7,105.6,416.8,109.4z"/>
</g>
</svg>
