<?xml version="1.0" encoding="utf-8"?>
<!-- Generator: Adobe Illustrator 23.1.0, SVG Export Plug-In . SVG Version: 6.00 Build 0)  -->
<svg version="1.1" id="Capa_1" xmlns="http://www.w3.org/2000/svg" xmlns:xlink="http://www.w3.org/1999/xlink" x="0px" y="0px"
	 viewBox="0 0 512 512" style="enable-background:new 0 0 512 512;" xml:space="preserve">
<style type="text/css">
	.st0{fill:#FFFFFF;}
	.st1{clip-path:url(#SVGID_2_);fill:#FFFFFF;}
	.st2{fill:#959494;}
	.st3{clip-path:url(#SVGID_4_);fill:#959494;}
	.st4{fill:#FDA216;}
	.st5{clip-path:url(#SVGID_6_);fill:#FDA216;}
</style>
<path class="st2" d="M475.3,277H41.6V64c0-18.8,15.3-34.2,34.2-34.2c16.4,0,30.2,11.7,33.4,27.2c-23.4,4.1-41.3,24.5-41.3,49.1
	c0,4.4,3.5,7.9,7.9,7.9h84.1c4.4,0,7.9-3.5,7.9-7.9c0-25.1-18.7-45.7-42.8-49.2c-3.5-24.1-24.1-42.8-49.2-42.8
	c-27.5,0-49.9,22.4-49.9,49.9v214.1c-12.1,3.5-21,14.5-21,27.7c0,13.2,8.9,24.2,21,27.7v45.9c0,40.3,26,74.5,62.1,86.9l-9.3,37.3
	c-0.6,2.4-0.1,4.9,1.4,6.8c1.5,1.9,3.8,3,6.2,3h42.1c3,0,5.7-1.7,7.1-4.4l18.8-37.7h190l18.8,37.7c1.3,2.7,4.1,4.4,7.1,4.4h42.1
	c2.4,0,4.7-1.1,6.2-3c1.5-1.9,2-4.4,1.4-6.8l-8.6-34.5c41.1-9.2,72-45.9,72-89.7v-45.9c12.1-3.5,21-14.5,21-27.7
	C504.3,289.9,491.3,277,475.3,277z M117.9,71.9c16.1,0,29.7,11.2,33.2,26.3H84.6C88.2,83.2,101.7,71.9,117.9,71.9z M123.5,497.7
	H96.4l6.6-26.3h14.9h18.8L123.5,497.7z M375.1,497.7l-13.1-26.3h29.3h4.4l6.6,26.3H375.1z M467.5,366.3h-23.7
	c-4.4,0-7.9,3.5-7.9,7.9c0,4.4,3.5,7.9,7.9,7.9h23.5c-1.4,40.8-34.9,73.6-76.1,73.6h-42.1H149.4h-31.5c-41.1,0-74.7-32.8-76.1-73.6
	h44.6c4.4,0,7.9-3.5,7.9-7.9c0-4.4-3.5-7.9-7.9-7.9H41.6v-31.5h425.8V366.3z M475.3,319H33.8c-7.3,0-13.1-5.9-13.1-13.1
	c0-7.2,5.9-13.1,13.1-13.1h441.6c7.2,0,13.1,5.9,13.1,13.1C488.5,313.1,482.6,319,475.3,319z"/>
<path class="st2" d="M75.8,224.4c-4.4,0-7.9,3.5-7.9,7.9v10.5c0,4.4,3.5,7.9,7.9,7.9c4.4,0,7.9-3.5,7.9-7.9v-10.5
	C83.7,227.9,80.2,224.4,75.8,224.4z"/>
<path class="st2" d="M83.7,148.2c0-4.4-3.5-7.9-7.9-7.9c-4.4,0-7.9,3.5-7.9,7.9v10.5c0,4.4,3.5,7.9,7.9,7.9c4.4,0,7.9-3.5,7.9-7.9
	V148.2z"/>
<path class="st2" d="M83.7,190.2c0-4.4-3.5-7.9-7.9-7.9c-4.4,0-7.9,3.5-7.9,7.9v10.5c0,4.4,3.5,7.9,7.9,7.9c4.4,0,7.9-3.5,7.9-7.9
	V190.2z"/>
<path class="st2" d="M125.8,148.2c0-4.4-3.5-7.9-7.9-7.9c-4.4,0-7.9,3.5-7.9,7.9v10.5c0,4.4,3.5,7.9,7.9,7.9c4.4,0,7.9-3.5,7.9-7.9
	V148.2z"/>
<path class="st2" d="M117.9,224.4c-4.4,0-7.9,3.5-7.9,7.9v10.5c0,4.4,3.5,7.9,7.9,7.9c4.4,0,7.9-3.5,7.9-7.9v-10.5
	C125.8,227.9,122.2,224.4,117.9,224.4z"/>
<path class="st2" d="M125.8,190.2c0-4.4-3.5-7.9-7.9-7.9c-4.4,0-7.9,3.5-7.9,7.9v10.5c0,4.4,3.5,7.9,7.9,7.9c4.4,0,7.9-3.5,7.9-7.9
	V190.2z"/>
<path class="st2" d="M159.9,224.4c-4.4,0-7.9,3.5-7.9,7.9v10.5c0,4.4,3.5,7.9,7.9,7.9c4.4,0,7.9-3.5,7.9-7.9v-10.5
	C167.8,227.9,164.3,224.4,159.9,224.4z"/>
<path class="st2" d="M167.8,190.2c0-4.4-3.5-7.9-7.9-7.9c-4.4,0-7.9,3.5-7.9,7.9v10.5c0,4.4,3.5,7.9,7.9,7.9c4.4,0,7.9-3.5,7.9-7.9
	V190.2z"/>
<path class="st2" d="M167.8,148.2c0-4.4-3.5-7.9-7.9-7.9c-4.4,0-7.9,3.5-7.9,7.9v10.5c0,4.4,3.5,7.9,7.9,7.9c4.4,0,7.9-3.5,7.9-7.9
	V148.2z"/>
<path class="st2" d="M117.9,382.1h10.5c4.4,0,7.9-3.5,7.9-7.9c0-4.4-3.5-7.9-7.9-7.9h-10.5c-4.4,0-7.9,3.5-7.9,7.9
	C110,378.6,113.5,382.1,117.9,382.1z"/>
<path class="st2" d="M159.9,382.1h31.5c4.4,0,7.9-3.5,7.9-7.9c0-4.4-3.5-7.9-7.9-7.9h-31.5c-4.4,0-7.9,3.5-7.9,7.9
	C152,378.6,155.6,382.1,159.9,382.1z"/>
<path class="st2" d="M496.4,98.2h-15.8c1.7-3.5,2.7-7.5,2.7-11.6c0-8.4-3.8-16.4-9.6-22c5.9-5.3,9.6-13,9.6-21.5
	c0-15.9-13-28.9-28.9-28.9h-73.6c-27.5,0-49.9,22.4-49.9,49.9c0,13.2,5.3,25.2,13.7,34.2h-26.9c-4.4,0-7.9,3.5-7.9,7.9
	c0,4.4,3.5,7.9,7.9,7.9H336v13.1c0,4.4,3.5,7.9,7.9,7.9c4.4,0,7.9-3.5,7.9-7.9V114h28.9h75.2h6.3v13.1c0,4.4,3.5,7.9,7.9,7.9
	c4.4,0,7.9-3.5,7.9-7.9V114h18.4c4.4,0,7.9-3.5,7.9-7.9C504.3,101.7,500.7,98.2,496.4,98.2z M380.7,71.9h73.6
	c5.9,0,13.1,6.8,13.1,14.7c0,6.4-5.2,11.6-11.6,11.6h-75.2c-18.8,0-34.2-15.3-34.2-34.2c0-18.8,15.3-34.2,34.2-34.2h73.6
	c7.2,0,13.1,5.9,13.1,13.1c0,7.2-5.9,13.1-13.1,13.1h-73.6c-4.4,0-7.9,3.5-7.9,7.9C372.8,68.4,376.4,71.9,380.7,71.9z"/>
</svg>
