<?xml version="1.0" encoding="utf-8"?>
<!-- Generator: Adobe Illustrator 23.1.0, SVG Export Plug-In . SVG Version: 6.00 Build 0)  -->
<svg version="1.1" id="Capa_1" xmlns="http://www.w3.org/2000/svg" xmlns:xlink="http://www.w3.org/1999/xlink" x="0px" y="0px"
	 viewBox="0 0 512 512" style="enable-background:new 0 0 512 512;" xml:space="preserve">
<style type="text/css">
	.st0{fill:#FFFFFF;}
	.st1{clip-path:url(#SVGID_2_);fill:#FFFFFF;}
	.st2{fill:#959494;}
	.st3{clip-path:url(#SVGID_4_);fill:#959494;}
	.st4{fill:#FDA216;}
	.st5{clip-path:url(#SVGID_6_);fill:#FDA216;}
</style>
<g>
	<path class="st2" d="M475.9,158.9h-18.5c-9.4,0-17.1,7.7-17.1,17.1v42.7H83.6V176c0-9.4-7.7-17.1-17.1-17.1h-2V69.6
		c0-18,14.6-32.7,32.6-32.7h131.5v15.9H140c-5.6,0-10.2,4.6-10.2,10.2v31.4c0,4.7,3.8,8.6,8.6,8.6c4.7,0,8.6-3.8,8.6-8.6V69.9h81.8
		v24.5c0,4.7,3.8,8.6,8.6,8.6c4.7,0,8.6-3.8,8.6-8.6V69.9h81.8v24.5c0,4.7,3.8,8.6,8.6,8.6c4.7,0,8.6-3.8,8.6-8.6V63
		c0-5.6-4.6-10.2-10.2-10.2h-88.7V30c0-5.6-4.6-10.2-10.2-10.2H97.1c-27.4,0-49.8,22.3-49.8,49.8V159c-9.1,0.3-16.5,7.8-16.5,17.1
		v312.7c0,5.7,4.6,10.3,10.3,10.3h32.2c5.7,0,10.3-4.6,10.3-10.3v-28.2h356.6v28.2c0,5.7,4.6,10.3,10.3,10.3h32.2
		c5.7,0,10.3-4.6,10.3-10.3V176C493,166.6,485.3,158.9,475.9,158.9z M66.5,402.4v58.1v21.3H48V176h18.5V402.4z M331.2,235.8h43.6
		v166.6h-43.6V235.8z M270.5,235.8h43.6v166.6h-43.6V235.8z M209.8,235.8h43.6v166.6h-43.6V235.8z M149.2,235.8h43.6v166.6h-43.6
		V235.8z M83.6,235.8H132v166.6H83.6V235.8z M440.3,443.4H83.6v-23.9h356.6V443.4z M440.3,402.4h-48.4V235.8h48.4V402.4z
		 M475.9,481.9h-18.5v-21.3v-58.1V176h18.5V481.9z"/>
	<path class="st2" d="M261.2,135.2c3.4-3.5,1.5-9.5-3.2-10.2l-7.8-1.2c-1.9-0.3-3.5-1.5-4.3-3.3l-3.5-7.3c-2.1-4.4-8.2-4.4-10.3,0
		l-3.5,7.3c-0.8,1.8-2.5,3-4.3,3.3l-7.8,1.2c-4.7,0.7-6.6,6.8-3.2,10.2l5.6,5.7c1.4,1.4,2,3.3,1.7,5.3l-1.3,8
		c-0.8,4.9,4.2,8.6,8.4,6.3l6.9-3.8c1.7-0.9,3.7-0.9,5.4,0l7,3.8c4.2,2.3,9.2-1.4,8.3-6.3l-1.3-8c-0.3-1.9,0.3-3.9,1.6-5.3
		L261.2,135.2z"/>
	<path class="st2" d="M145.4,109.9c-14.5,0-26.2,11.5-26.2,25.7c0,14.2,11.7,25.7,26.2,25.7c12,0,22-8,25.1-18.7
		c-13.9-0.7-24.9-11.8-24.9-25.5c0-2.4,0.5-4.7,1.1-6.9C146.3,110.1,145.9,109.9,145.4,109.9z"/>
	<path class="st2" d="M311.3,111.9c-8.9,5.9-5.3,21.2,3.1,31.3c9.8,11.9,18.9,16.4,21.7,18c2.8-1.5,11.8-6.1,21.7-18
		c8.4-10.1,12.1-25.5,3.1-31.3c-6.4-4.2-15.7-1.7-24.8,6.6C327,110.3,317.7,107.8,311.3,111.9z"/>
</g>
</svg>
