<svg width="31" height="31" viewBox="0 0 31 31" fill="none" xmlns="http://www.w3.org/2000/svg">
<path d="M27.9799 15.1487C27.7135 15.3022 27.552 15.5848 27.552 15.8916V24.1201C27.552 25.0729 26.7768 25.8401 25.832 25.8401H5.15993C4.20708 25.8401 3.43995 25.0649 3.43995 24.1201V15.8916C3.43995 15.5848 3.27844 15.3022 3.01197 15.1487C2.20446 14.6804 1.71996 13.8487 1.71996 12.9281C1.71996 12.1691 2.05104 11.4504 2.63244 10.9578C3.22192 10.4572 3.97289 10.2553 4.7481 10.3764C5.96742 10.5783 6.89606 11.7492 6.89606 13.1058V17.3855C5.89476 17.7408 5.17608 18.6856 5.17608 19.808C5.17608 21.2292 6.33888 22.392 7.76008 22.392H23.2641C24.6853 22.392 25.8481 21.2292 25.8481 19.808C25.8481 18.6856 25.1294 17.7408 24.1281 17.3855V12.92C24.1281 12.1368 24.4754 11.41 25.081 10.9094C25.6947 10.4087 26.478 10.223 27.2774 10.3926C28.206 10.5864 28.9893 11.3373 29.2073 12.2579C29.4819 13.4207 29.0055 14.5512 27.9799 15.1487ZM25.832 28.4321C25.832 28.9086 25.4444 29.2962 24.968 29.2962C24.4915 29.2962 24.1039 28.9086 24.1039 28.4321V27.5681H25.8239V28.4321H25.832ZM6.87991 28.4321C6.87991 28.9086 6.49232 29.2962 6.01589 29.2962C5.53946 29.2962 5.15185 28.9086 5.15185 28.4321V27.5681H6.87183V28.4321H6.87991ZM7.74394 18.9521H23.248C23.7244 18.9521 24.112 19.3397 24.112 19.8161C24.112 20.2925 23.7244 20.6801 23.248 20.6801H7.74394C7.26751 20.6801 6.87991 20.2925 6.87991 19.8161C6.87991 19.3397 7.26751 18.9521 7.74394 18.9521ZM14.6319 1.72806H16.3519C20.7124 1.72806 24.4108 4.66737 25.4848 8.80985C24.9437 8.97135 24.4269 9.2136 23.9747 9.57698C22.9653 10.4006 22.384 11.62 22.384 12.92V17.224H8.5999V13.0977C8.5999 11.087 7.29173 9.32665 5.49908 8.7937C6.58113 4.66736 10.2714 1.72806 14.6319 1.72806ZM30.8708 11.8541C30.4913 10.3037 29.1831 9.04402 27.6166 8.71295C27.4874 8.68872 27.3582 8.68872 27.229 8.67257C26.0662 3.61761 21.6168 0 16.36 0H14.64C9.38316 0 4.93383 3.61761 3.77103 8.67257C2.94738 8.77755 2.15601 9.09247 1.51809 9.64157C0.557161 10.4652 0 11.6603 0 12.92C0 14.2686 0.645986 15.5363 1.71996 16.3438V24.112C1.71996 25.3798 2.41442 26.478 3.43995 27.0755V28.416C3.43995 29.8372 4.60275 31 6.02395 31C7.44516 31 8.60796 29.8372 8.60796 28.416V27.552H22.392V28.416C22.392 29.8372 23.5548 31 24.976 31C26.3972 31 27.56 29.8372 27.56 28.416V27.0755C28.5856 26.478 29.28 25.3798 29.28 24.112V16.3438C30.6608 15.3183 31.2907 13.5741 30.8708 11.8541Z" fill="#A2A1A1"/>
</svg>
