<?xml version="1.0" encoding="utf-8"?>
<!-- Generator: Adobe Illustrator 23.1.0, SVG Export Plug-In . SVG Version: 6.00 Build 0)  -->
<svg version="1.1" id="Capa_1" xmlns="http://www.w3.org/2000/svg" xmlns:xlink="http://www.w3.org/1999/xlink" x="0px" y="0px"
	 viewBox="0 0 512 512" style="enable-background:new 0 0 512 512;" xml:space="preserve">
<style type="text/css">
	.st0{fill:#FFFFFF;}
	.st1{clip-path:url(#SVGID_2_);fill:#FFFFFF;}
	.st2{fill:#959494;}
	.st3{clip-path:url(#SVGID_4_);fill:#959494;}
	.st4{fill:#FDA216;}
	.st5{clip-path:url(#SVGID_6_);fill:#FDA216;}
</style>
<path class="st2" d="M397,117c-37.7-21.7-86-33.7-136.4-34c-0.6,0-1.2,0-1.7,0c-0.7,0-1.3,0-2,0c-48.5,0.4-96.9,13.8-136.3,38.1
	c-37.2,22.8-59.4,51-59.4,75.3c0,21.8,17.7,39.5,39.5,39.5h61.5c13.5,0,25.8-6.6,33.4-16.6c7.6,10,19.8,16.6,33.4,16.6h22v110.7
	h-34.3c-4.4,0-7.9,3.5-7.9,7.9c0,4.4,3.5,7.9,7.9,7.9h34.3v65.9c0,4.4,3.5,7.9,7.9,7.9c4.4,0,7.9-3.5,7.9-7.9v-65.9H301
	c4.4,0,7.9-3.5,7.9-7.9c0-4.4-3.5-7.9-7.9-7.9h-34.3V235.9h22c13.5,0,25.8-6.6,33.4-16.6c7.6,10,19.8,16.6,33.4,16.6H417
	c21.8,0,39.5-17.7,39.5-39.5C456.5,167.7,434.8,138.8,397,117z M162.2,220.1h-61.5c-13.1,0-23.7-10.6-23.7-23.7
	c0-18.2,20.3-42.5,51.8-61.8c15.4-9.5,43.1-23.5,80.2-30.9c-0.4,0.5-0.8,1-1.2,1.5c-13.5,17.9-20.1,47.7-20.1,91.2
	C187.7,209,175.8,220.1,162.2,220.1z M288.7,220.1H229c-13.6,0-25.5-11.1-25.5-23.7c0-86.9,26.6-96.9,52.6-97.5c0.9,0,1.8,0,2.8,0
	c0.6,0,1.1,0,1.7,0c26.3,0.3,53.6,9.4,53.6,97.5C314.2,209,302.3,220.1,288.7,220.1z M417,220.1h-61.5c-13.6,0-25.5-11.1-25.5-23.7
	c0-43.4-6.6-73.3-20.1-91.2c-0.6-0.8-1.2-1.6-1.9-2.3c29.9,5,57.8,14.5,81.1,27.9c32.8,18.9,51.6,42.8,51.6,65.6
	C440.7,209.5,430.1,220.1,417,220.1z"/>
<path class="st2" d="M202.7,382.6c-1.3-2.7-4.1-4.4-7.1-4.4H139l-9.4-56.6c-0.7-4.3-4.8-7.2-9.1-6.5c-4.3,0.7-7.2,4.8-6.5,9.1
	l10.1,60.7l-19.9,39.9c-2,3.9-0.4,8.7,3.5,10.6c1.1,0.6,2.3,0.8,3.5,0.8c2.9,0,5.7-1.6,7.1-4.4l18.9-37.8h53.5l18.9,37.8
	c1.4,2.8,4.2,4.4,7.1,4.4c1.2,0,2.4-0.3,3.5-0.8c3.9-2,5.5-6.7,3.5-10.6L202.7,382.6z"/>
<path class="st2" d="M393.6,384.9l10.1-60.7c0.7-4.3-2.2-8.4-6.5-9.1c-4.3-0.7-8.4,2.2-9.1,6.5l-9.4,56.6h-56.6
	c-3,0-5.7,1.7-7.1,4.4l-21.1,42.2c-2,3.9-0.4,8.7,3.5,10.6c1.1,0.6,2.3,0.8,3.5,0.8c2.9,0,5.7-1.6,7.1-4.4L327,394h53.5l18.9,37.8
	c1.4,2.8,4.2,4.4,7.1,4.4c1.2,0,2.4-0.3,3.5-0.8c3.9-2,5.5-6.7,3.5-10.6L393.6,384.9z"/>
</svg>
