<?xml version="1.0" encoding="utf-8"?>
<!-- Generator: Adobe Illustrator 23.1.0, SVG Export Plug-In . SVG Version: 6.00 Build 0)  -->
<svg version="1.1" id="Capa_1" xmlns="http://www.w3.org/2000/svg" xmlns:xlink="http://www.w3.org/1999/xlink" x="0px" y="0px"
	 viewBox="0 0 512 512" style="enable-background:new 0 0 512 512;" xml:space="preserve">
<style type="text/css">
	.st0{fill:#FFFFFF;}
	.st1{clip-path:url(#SVGID_2_);fill:#FFFFFF;}
	.st2{fill:#959494;}
	.st3{clip-path:url(#SVGID_4_);fill:#959494;}
	.st4{fill:#FDA216;}
	.st5{clip-path:url(#SVGID_6_);fill:#FDA216;}
</style>
<g>
	<path class="st2" d="M435.1,299.4h-3v-39.4c0-38.5-31.3-69.8-69.8-69.8h-48.5c-38.5,0-69.8,31.3-69.8,69.8v39.4h-3
		c-18.4,0-33.4,15-33.4,33.4v48.5v36.4c0,18.4,15,33.4,33.4,33.4h11.7l-8.1,24.4c-1.6,4.8,1,9.9,5.7,11.5c1,0.3,1.9,0.5,2.9,0.5
		c3.8,0,7.4-2.4,8.6-6.2l10.1-30.2h132.5l10.1,30.2c1.3,3.8,4.8,6.2,8.6,6.2c0.9,0,1.9-0.2,2.9-0.5c4.8-1.6,7.3-6.7,5.7-11.5
		l-8.1-24.4h11.7c18.4,0,33.4-15,33.4-33.4v-36.4v-48.5C468.5,314.3,453.5,299.4,435.1,299.4z M262.2,259.9
		c0-28.4,23.1-51.6,51.6-51.6h48.5c28.4,0,51.6,23.1,51.6,51.6v40.9c-14,4-24.3,16.7-24.3,32v39.4H286.5v-39.4
		c0-15.2-10.3-28-24.3-32V259.9z M225.8,332.7c0-8.4,6.8-15.2,15.2-15.2h3h9.1c3.5,0,6.5,1.4,9.1,3.4c3.6,2.8,6.1,6.9,6.1,11.8v39.4
		h-6.1H244h-18.2V332.7z M450.3,417.7c0,8.4-6.8,15.2-15.2,15.2H241c-8.4,0-15.2-6.8-15.2-15.2v-27.3h27.3h24.3h121.4H423h27.3
		V417.7z M450.3,372.2h-18.2h-18.2h-6.1v-39.4c0-4.9,2.5-9,6.1-11.8c2.6-2,5.6-3.4,9.1-3.4h9.1h3c8.4,0,15.2,6.8,15.2,15.2V372.2z"
		/>
	<path class="st2" d="M338.1,269c5,0,9.1-4.1,9.1-9.1v-12.1c0-5-4.1-9.1-9.1-9.1c-5,0-9.1,4.1-9.1,9.1v12.1
		C328.9,264.9,333,269,338.1,269z"/>
	<path class="st2" d="M338.1,341.8c5,0,9.1-4.1,9.1-9.1v-36.4c0-5-4.1-9.1-9.1-9.1c-5,0-9.1,4.1-9.1,9.1v36.4
		C328.9,337.8,333,341.8,338.1,341.8z"/>
	<path class="st2" d="M223.7,156.5c1.7-2.1,2.4-4.9,1.9-7.6L201.3,27.6c-0.8-4.3-4.6-7.3-8.9-7.3h-60.7H71.1c-4.3,0-8.1,3.1-8.9,7.3
		L37.9,148.9c-0.5,2.7,0.2,5.4,1.9,7.6c1.7,2.1,4.3,3.3,7,3.3h75.8v260.9h-21.2c-4.2,0-7.8,2.8-8.8,6.9l-12.1,48.5
		c-0.7,2.7-0.1,5.6,1.6,7.8c1.7,2.2,4.4,3.5,7.2,3.5h85c2.8,0,5.5-1.3,7.2-3.5c1.7-2.2,2.3-5.1,1.6-7.8l-12.1-48.5
		c-1-4.1-4.7-6.9-8.8-6.9h-21.2V159.8h30.3v3c0,5,4.1,9.1,9.1,9.1c5,0,9.1-4.1,9.1-9.1v-3h27.3C219.4,159.8,222,158.6,223.7,156.5z
		 M155,438.9l7.6,30.3h-61.6l7.6-30.3h23.2H155z M180.3,141.6h-39.4h-18.2H57.9L78.5,38.4h44.1h18.2H185l20.6,103.2H180.3z"/>
	<path class="st2" d="M180.3,190.1c-5,0-9.1,4.1-9.1,9.1v12.1c0,5,4.1,9.1,9.1,9.1c5,0,9.1-4.1,9.1-9.1v-12.1
		C189.4,194.2,185.3,190.1,180.3,190.1z"/>
</g>
</svg>
