<?xml version="1.0" encoding="utf-8"?>
<!-- Generator: Adobe Illustrator 23.1.0, SVG Export Plug-In . SVG Version: 6.00 Build 0)  -->
<svg version="1.1" id="Capa_1" xmlns="http://www.w3.org/2000/svg" xmlns:xlink="http://www.w3.org/1999/xlink" x="0px" y="0px"
	 viewBox="0 0 512 512" style="enable-background:new 0 0 512 512;" xml:space="preserve">
<style type="text/css">
	.st0{fill:#FDA216;}
	.st1{fill-rule:evenodd;clip-rule:evenodd;fill:#FFFFFF;}
	.st2{fill:#FFFFFF;}
</style>
<path class="st2" d="M142.5,206.3c-1.5-1.3-3.3-1.9-5.3-1.9c-0.3,0-0.6,0-0.8,0c-2.2,0.2-4.2,1.3-5.6,3.1
	c-11.6,14.4-18,32.5-18,51.1c0,17.4,5.7,34.6,16,48.5c1.6,2.1,4,3.4,6.7,3.4c1.8,0,3.6-0.6,5-1.7c1.8-1.4,2.9-3.3,3.3-5.6
	c0.3-2.2-0.3-4.5-1.6-6.3c-8.1-11-12.6-24.6-12.6-38.3c0-14.7,5.1-29,14.2-40.4c1.4-1.8,2.1-4,1.9-6.2
	C145.3,209.8,144.2,207.8,142.5,206.3z"/>
<path class="st2" d="M83.1,258.6c0-26.5,9.4-52.1,26.5-72.2c3-3.5,2.6-8.9-0.9-12c-1.5-1.3-3.5-2.1-5.5-2.1c-2.4,0-4.8,1.1-6.3,2.9
	c-19.7,23.1-30.6,52.7-30.6,83.3c0,29.2,10,57.8,28.2,80.5c1.6,2,4,3.1,6.5,3.1c1.9,0,3.8-0.7,5.3-1.9c3.6-3,4.1-8.3,1.2-11.9
	C91.8,308.7,83.1,284,83.1,258.6z"/>
<path class="st2" d="M390.9,310.2c2.2-0.2,4.2-1.3,5.6-3.1c11.6-14.4,18-32.5,18-51.1c0-17.4-5.7-34.6-16-48.5
	c-1.6-2.1-4-3.4-6.7-3.4c-1.8,0-3.6,0.6-5,1.7c-1.8,1.4-2.9,3.3-3.3,5.6c-0.3,2.2,0.3,4.5,1.6,6.3c8.1,11,12.6,24.6,12.6,38.3
	c0,14.7-5.1,29-14.2,40.4c-1.4,1.8-2.1,4-1.9,6.2c0.2,2.3,1.3,4.3,3,5.7C386.5,309.7,388.7,310.4,390.9,310.2z"/>
<polygon class="st2" points="384.5,308.7 384.5,308.7 384.5,308.7 "/>
<path class="st2" d="M432.7,175.5c-1.6-2-4-3.1-6.5-3.1c-1.9,0-3.8,0.7-5.3,1.9c-3.6,3-4.1,8.3-1.2,11.9
	c15.8,19.7,24.5,44.4,24.5,69.7c0,26.5-9.4,52.1-26.5,72.2c-3,3.5-2.6,8.9,0.9,12c1.5,1.3,3.5,2.1,5.5,2.1c2.4,0,4.8-1.1,6.3-2.9
	c19.7-23.1,30.6-52.7,30.6-83.3C460.9,226.8,450.9,198.2,432.7,175.5z"/>
<path class="st2" d="M333,90.8H191.8c-15.1,0-27.3,12.4-27.3,27.7v277.7c0,15.2,12.2,27.7,27.3,27.7H333c15.1,0,27.3-12.4,27.3-27.7
	V118.5C360.3,103.2,348,90.8,333,90.8z M343.5,396.1c0,5.9-4.7,10.7-10.6,10.7H191.8c-5.8,0-10.6-4.8-10.6-10.7v-55.5l4.6,1.9
	c4.1,1.7,8.5,2.6,12.9,2.6H326c4.5,0,8.8-0.9,13-2.6l4.6-1.9V396.1z M343.5,310.4c0,9.8-7.9,17.7-17.5,17.7H198.7
	c-9.5,0-17.3-7.8-17.5-17.4l0-146.2c0.2-9.6,8-17.5,17.5-17.5H326c9.7,0,17.5,8,17.5,17.7V310.4z M343.5,134.6l-4.6-1.9
	c-4.1-1.7-8.5-2.6-13-2.6H198.7c-4.5,0-8.8,0.9-12.9,2.6l-4.6,1.9v-16.2c0-5.9,4.7-10.7,10.6-10.7H333c5.8,0,10.6,4.8,10.6,10.7
	V134.6z"/>
<path class="st2" d="M288.3,367.5h-51.8c-4.6,0-8.4,3.8-8.4,8.5c0,4.7,3.8,8.5,8.4,8.5h51.8c4.6,0,8.4-3.8,8.4-8.5
	C296.6,371.3,292.9,367.5,288.3,367.5z"/>
</svg>
