<?xml version="1.0" encoding="utf-8"?>
<!-- Generator: Adobe Illustrator 23.1.0, SVG Export Plug-In . SVG Version: 6.00 Build 0)  -->
<svg version="1.1" id="Capa_1" xmlns="http://www.w3.org/2000/svg" xmlns:xlink="http://www.w3.org/1999/xlink" x="0px" y="0px"
	 viewBox="0 0 512 512" style="enable-background:new 0 0 512 512;" xml:space="preserve">
<style type="text/css">
	.st0{fill:#FDA216;}
	.st1{fill-rule:evenodd;clip-rule:evenodd;fill:#FFFFFF;}
	.st2{fill:#FFFFFF;}
</style>
<g>
	<path class="st2" d="M165.2,250.7c0-6.2-1.5-12.3-4.5-17.7h52.4c4,0,7.2-3.2,7.2-7.2v-67.9c0-3.2-2-5.9-5-6.9c-3-1-6.3,0.1-8.1,2.7
		c-4.3,6.1-11.4,9.8-18.9,9.8c-12.7,0-23-10.3-23-23c0-12.7,10.3-23,23-23c7.5,0,14.6,3.7,18.9,9.8c1.8,2.6,5.1,3.7,8.1,2.7
		c3-1,5-3.7,5-6.9V55.2c0-4-3.2-7.2-7.2-7.2H42.5c-4,0-7.2,3.2-7.2,7.2v42.9c0,4,3.2,7.2,7.2,7.2s7.2-3.2,7.2-7.2V62.4h156.2v45
		c-5.4-2.9-11.4-4.4-17.6-4.4c-20.6,0-37.4,16.8-37.4,37.4s16.8,37.4,37.4,37.4c6.1,0,12.2-1.5,17.6-4.4v45h-61.1
		c-3.2,0-6,2-6.9,5.1c-0.9,3,0.2,6.3,2.8,8.1c6.3,4.3,10,11.4,10,19c0,12.7-10.3,23-23,23s-23-10.3-23-23c0-7.6,3.8-14.7,10-19
		c2.6-1.8,3.8-5.1,2.8-8.1c-0.9-3-3.7-5.1-6.9-5.1h-61v-99.7c0-4-3.2-7.2-7.2-7.2s-7.2,3.2-7.2,7.2v106.9c0,4,3.2,7.2,7.2,7.2h52.3
		c-2.9,5.4-4.5,11.5-4.5,17.7c0,20.6,16.8,37.4,37.4,37.4S165.2,271.3,165.2,250.7z"/>
	<path class="st2" d="M449.6,202c1.4,1.4,3.2,2.1,5.1,2.1c4,0,7.2-3.2,7.2-7.2v-66.5c0-4-3.2-7.2-7.2-7.2H285.9
		c-4,0-7.2,3.2-7.2,7.2V182c-5.3-2.9-11.3-4.4-17.4-4.4c-20.5,0-37.1,16.6-37.1,37.1s16.6,37.1,37.1,37.1c6.1,0,12-1.5,17.4-4.4V292
		h-60.1c-3.2,0-5.9,2-6.9,5c-1,3,0.1,6.3,2.7,8.1c6,4.3,9.6,11.2,9.6,18.5c0,12.5-10.2,22.7-22.7,22.7s-22.7-10.2-22.7-22.7
		c0-7.4,3.6-14.3,9.6-18.5c2.6-1.8,3.7-5.1,2.7-8.1c-1-3-3.7-5-6.9-5H117c-4,0-7.2,3.2-7.2,7.2v98.3c0,4,3.2,7.2,7.2,7.2
		s7.2-3.2,7.2-7.2v-91.1h44.3c-2.8,5.3-4.2,11.2-4.2,17.2c0,20.5,16.6,37.1,37.1,37.1s37.1-16.6,37.1-37.1c0-6-1.5-11.9-4.2-17.2
		h44.4v60.3c0,3.2,2,6,5.1,6.9c3,0.9,6.3-0.2,8.1-2.8c4.2-6.2,11.2-9.9,18.6-9.9c12.5,0,22.6,10.2,22.6,22.7s-10.1,22.6-22.6,22.7
		c-7.4,0-14.4-3.7-18.6-9.9c-1.8-2.6-5.1-3.8-8.1-2.8c-3,0.9-5.1,3.7-5.1,6.9v60.3H124.2v-42.5c0-4-3.2-7.2-7.2-7.2
		s-7.2,3.2-7.2,7.2v49.7c0,4,3.2,7.2,7.2,7.2h337.7c4,0,7.2-3.2,7.2-7.2V217.7c0-4-3.2-7.2-7.2-7.2s-7.2,3.2-7.2,7.2V292h-44.3
		c2.8-5.3,4.2-11.2,4.2-17.2v-0.2c0-20.5-16.6-37.1-37.1-37.1c-20.5,0-37.1,16.6-37.1,37.1v0.2c0,6,1.5,11.9,4.2,17.2h-44.4v-60.3
		c0-3.2-2-6-5.1-6.9c-3-0.9-6.3,0.2-8.1,2.8c-4.2,6.2-11.2,9.9-18.6,9.9c-12.5,0-22.7-10.2-22.7-22.7c0-12.5,10.2-22.7,22.7-22.7
		c7.4,0,14.4,3.7,18.6,9.9c1.8,2.6,5.1,3.8,8.1,2.8c3-0.9,5.1-3.7,5.1-6.9v-60.3h154.4v59.3C447.5,198.8,448.2,200.6,449.6,202z
		 M360.4,301.3c0.9-3-0.2-6.3-2.8-8.1c-6.2-4.2-9.9-11.2-9.9-18.6c0.1-12.4,10.2-22.5,22.7-22.5c12.4,0,22.6,10.1,22.7,22.5
		c0,7.4-3.7,14.4-9.9,18.6c-2.6,1.8-3.8,5.1-2.8,8.1c0.9,3,3.7,5.1,6.9,5.1h60.3v154.3H293.1v-44.3c5.3,2.8,11.3,4.3,17.4,4.3
		c20.5,0,37.1-16.6,37.1-37.1s-16.6-37.1-37.2-37.1c-6,0-12,1.5-17.3,4.3v-44.3l60.4,0C356.7,306.4,359.4,304.4,360.4,301.3z"/>
</g>
</svg>
