<?xml version="1.0" encoding="utf-8"?>
<!-- Generator: Adobe Illustrator 23.1.0, SVG Export Plug-In . SVG Version: 6.00 Build 0)  -->
<svg version="1.1" id="Capa_1" xmlns="http://www.w3.org/2000/svg" xmlns:xlink="http://www.w3.org/1999/xlink" x="0px" y="0px"
	 viewBox="0 0 512 512" style="enable-background:new 0 0 512 512;" xml:space="preserve">
<style type="text/css">
	.st0{fill:#FDA216;}
	.st1{fill-rule:evenodd;clip-rule:evenodd;fill:#FFFFFF;}
	.st2{fill:#FFFFFF;}
</style>
<g>
	<path class="st2" d="M412.2,349.7c-9.4,0-17.1,7.7-17.1,17.1s7.7,17.1,17.1,17.1s17.1-7.7,17.1-17.1S421.6,349.7,412.2,349.7
		L412.2,349.7z"/>
	<path class="st2" d="M403.6,281.3c-4.7,0-8.5,3.8-8.5,8.5c0,4.7,3.8,8.5,8.5,8.5c4.7,0,8.5-3.8,8.5-8.5S408.3,281.3,403.6,281.3
		L403.6,281.3z"/>
	<path class="st2" d="M150.6,349.7c-9.4,0-17.1,7.7-17.1,17.1s7.7,17.1,17.1,17.1c9.4,0,17.1-7.7,17.1-17.1S160,349.7,150.6,349.7
		L150.6,349.7z"/>
	<path class="st2" d="M444.6,247.7l-14.7-59c5.2-5,7.9-11.6,7.9-18.5c0-14.1-11.5-25.6-25.6-25.6h-68.4v-25.6
		c0-14.1-11.5-25.6-25.6-25.6H68.5c-14.1,0-25.6,11.5-25.6,25.6v222.3c0,14.1,11.5,25.6,25.6,25.6h30.8c0,28.3,23,51.3,51.3,51.3
		s51.3-23,51.3-51.3h159c0,28.3,23,51.3,51.3,51.3c28.3,0,51.3-23,51.3-51.3c0-0.5,0-1,0-1.5c9.9-3.5,17.1-13,17.1-24.2v-51.3
		C480.6,268.6,465,250.9,444.6,247.7L444.6,247.7z M414,195.8l12.8,51.3h-71l19.6-19.6c3.3-3.3,3.3-8.8,0-12.1
		c-3.3-3.3-8.8-3.3-12.1,0L343.8,235v-39.2H414z M420.7,170.2c0,4.7-3.8,8.5-8.5,8.5h-68.4v-17.1h68.4
		C416.9,161.6,420.7,165.5,420.7,170.2L420.7,170.2z M150.6,401c-18.8,0-34.2-15.4-34.2-34.2c0-19.1,15.6-34.2,34.2-34.2
		s34.2,15.2,34.2,34.2C184.8,385.6,169.4,401,150.6,401L150.6,401z M198.9,349.7c-7.2-20.2-26.5-34.2-48.4-34.2s-41.2,14-48.4,34.2
		H68.5c-4.7,0-8.5-3.8-8.5-8.5V118.9c0-4.7,3.8-8.5,8.5-8.5h249.6c4.7,0,8.5,3.8,8.5,8.5v230.8H198.9z M412.2,401
		c-18.8,0-34.2-15.4-34.2-34.2c0-19.1,15.6-34.2,34.2-34.2s34.2,15.2,34.2,34.2C446.4,385.6,431,401,412.2,401L412.2,401z
		 M459.8,348c-7.6-19.3-26.5-32.6-47.8-32.6c-21.9,0-41.2,14-48.4,34.2h-20v-85.5h94c11.1,0,20.6,7.2,24.2,17.1h-24.2
		c-4.7,0-8.5,3.8-8.5,8.5c0,4.7,3.8,8.5,8.5,8.5h25.6v42.7C463.5,343.9,462,346.5,459.8,348L459.8,348z"/>
	<path class="st2" d="M193.3,144.5c-42.4,0-76.9,34.5-76.9,76.9s34.5,76.9,76.9,76.9s76.9-34.5,76.9-76.9S235.7,144.5,193.3,144.5
		L193.3,144.5z M193.3,281.3c-33,0-59.8-26.8-59.8-59.8s26.8-59.8,59.8-59.8s59.8,26.8,59.8,59.8S226.2,281.3,193.3,281.3
		L193.3,281.3z"/>
	<path class="st2" d="M227.5,212.9h-25.6v-25.6c0-4.7-3.8-8.5-8.5-8.5s-8.5,3.8-8.5,8.5v34.2c0,4.7,3.8,8.5,8.5,8.5h34.2
		c4.7,0,8.5-3.8,8.5-8.5S232.2,212.9,227.5,212.9L227.5,212.9z"/>
</g>
</svg>
