<?xml version="1.0" encoding="utf-8"?>
<!-- Generator: Adobe Illustrator 23.1.0, SVG Export Plug-In . SVG Version: 6.00 Build 0)  -->
<svg version="1.1" id="Capa_1" xmlns="http://www.w3.org/2000/svg" xmlns:xlink="http://www.w3.org/1999/xlink" x="0px" y="0px"
	 viewBox="0 0 512 512" style="enable-background:new 0 0 512 512;" xml:space="preserve">
<style type="text/css">
	.st0{fill:#FDA216;}
	.st1{fill-rule:evenodd;clip-rule:evenodd;fill:#FFFFFF;}
	.st2{fill:#FFFFFF;}
</style>
<g>
	<polygon class="st1" points="204,158.3 256.8,158.3 241.5,236.1 	"/>
	<polygon class="st1" points="198.4,369.4 255.4,229.1 256.8,369.4 	"/>
	<polygon class="st1" points="156.7,369.4 224.4,291.5 192.8,369.4 	"/>
	<path class="st1" d="M126.6,198.9c-16.6,22.3-26.4,50.2-28.7,78c-2,23.4-0.2,50.6,13,70.8c7,10.8,16.4,16,27.5,21.5
		c0.2,0.1,0.5,0.2,0.7,0.2h13.5c0.8,0,1.5-0.6,1.6-1.4l13.6-69.5l27.4-138.3c0.2-1-0.6-2-1.6-2h-10.5H182c-0.2,0-0.4,0-0.5,0.1
		C158.7,166,140.3,180.5,126.6,198.9z"/>
	<polygon class="st1" points="284.6,158.3 329,158.3 331.8,369.4 269.3,369.4 267.9,194.4 	"/>
	<polygon class="st1" points="359.6,158.3 406.8,158.3 406.8,369.4 344.3,369.4 344.3,194.4 	"/>
	<path class="st2" d="M466.1,435.8H43.9V101h422.1V435.8z M63.9,415.8h382.1V121H63.9V415.8z"/>
</g>
</svg>
