<?xml version="1.0" encoding="utf-8"?>
<!-- Generator: Adobe Illustrator 23.1.0, SVG Export Plug-In . SVG Version: 6.00 Build 0)  -->
<svg version="1.1" id="Capa_1" xmlns="http://www.w3.org/2000/svg" xmlns:xlink="http://www.w3.org/1999/xlink" x="0px" y="0px"
	 viewBox="0 0 512 512" style="enable-background:new 0 0 512 512;" xml:space="preserve">
<style type="text/css">
	.st0{fill:#FDA216;}
	.st1{fill-rule:evenodd;clip-rule:evenodd;fill:#FFFFFF;}
	.st2{fill:#FFFFFF;}
</style>
<path class="st2" d="M448.1,280.3h-6.2v-55.6l0,0c0-8.8-4.4-16.6-11.1-21.3l0,0v-7.6c0-11-8.9-19.9-19.9-19.9h-4.6L424,150
	c5.9-8.7,3.7-20.5-5-26.5L299.2,41.9C295,39.1,290,38,285,39c-5,0.9-9.3,3.8-12.2,8L169.5,198.6h-28.8l6.9-70.2
	c0.1-0.8,0.6-1.5,1.3-1.7c8.9-3.4,16.7-9.7,21.8-17.7c0.4-0.6,1.2-1,2-0.9l45.1,4.5c3.2,0.3,6.1-2,6.4-5.3c0.3-3.2-2-6.1-5.3-6.4
	l-45.1-4.5c-5.2-0.5-10.2,1.9-13,6.3c-3.8,5.9-9.5,10.5-16,13c-4.9,1.9-8.3,6.3-8.9,11.6l-7.1,71.4h-7.5l11-111.1c0.4-4,4-6.9,8-6.5
	l91.1,9c3.2,0.3,6.1-2,6.4-5.3c0.3-3.2-2-6.1-5.3-6.4l-91.1-9c-10.4-1-19.8,6.6-20.8,17.1l-8.8,89.5H96.8c-11,0-19.9,8.9-19.9,19.9
	v5.2c-9,4.1-15.2,13.2-15.2,23.7l0,0v200.4l0,0c0,14.4,11.7,26.1,26.1,26.1h328.1c14.4,0,26.1-11.7,26.1-26.1l0,0v-55.6h6.2
	c7.3,0,13.2-5.9,13.2-13.2v-62.8C461.3,286.2,455.4,280.3,448.1,280.3z M410.9,187.6c4.5,0,8.2,3.7,8.2,8.2v3
	c-1.1-0.1-2.2-0.2-3.3-0.2h-24.9l7.5-10.9L410.9,187.6L410.9,187.6z M282.5,53.6c1.1-1.6,2.8-2.7,4.7-3.1c0.5-0.1,0.9-0.1,1.4-0.1
	c1.4,0,2.9,0.4,4.1,1.3l119.7,81.6c3.3,2.3,4.2,6.8,1.9,10.1l-37.6,55.2h-9l18.4-27.1c3-4.4,3.2-10,0.6-14.6
	c-3.5-6.1-4.9-13.3-3.9-20.3c0.7-5.2-1.6-10.2-5.9-13.2l-62.1-42.3c-4.3-3-9.9-3.2-14.5-0.7c-6.1,3.4-13.4,4.7-20.3,3.8
	c-5.2-0.7-10.4,1.6-13.3,5.9l-73.9,108.4h-9L282.5,53.6z M285.1,153.4c-25.6,0-46.6,20-48.3,45.1h-29.8l69.4-101.8c0,0,0,0,0,0
	c0.4-0.6,1-0.9,1.7-0.9c0.1,0,0.2,0,0.3,0c9.5,1.3,19.3-0.5,27.6-5.1c0.7-0.4,1.5-0.3,2.2,0.1l62.1,42.3c0.6,0.4,1,1.2,0.9,2
	c-1.2,9.5,0.7,19.3,5.4,27.6c0.4,0.7,0.3,1.5-0.1,2.2l-23,33.7h-19.9C331.7,173.4,310.7,153.4,285.1,153.4z M321.6,198.6h-73.1
	c1.7-18.7,17.4-33.4,36.5-33.4C304.2,165.2,319.9,179.9,321.6,198.6z M88.6,195.8c0-4.5,3.7-8.2,8.2-8.2h13.9l0,0l-1.1,10.9h-21
	V195.8z M73.4,224.7c0-7.9,6.4-14.4,14.4-14.4h328.1c7.9,0,14.4,6.4,14.4,14.4V241H73.4V224.7z M430.2,397H142.7
	c-3.2,0-5.9,2.6-5.9,5.9c0,3.2,2.6,5.9,5.9,5.9h287.5v16.3c0,7.9-6.4,14.4-14.4,14.4H87.7c-7.9,0-14.4-6.4-14.4-14.4v-16.3h31.7
	c3.2,0,5.9-2.6,5.9-5.9s-2.6-5.9-5.9-5.9H73.4V252.8h356.8v27.5h-55.9h0c-17.6,0-32.9,10.3-40.1,25.1c0,0-0.1,0.1-0.1,0.1
	c-0.1,0.1-0.1,0.3-0.2,0.4c-0.9,1.8-1.6,3.7-2.2,5.7c0,0,0,0,0,0c-1.3,4.2-2,8.6-2,13.2l0,0l0,0c0,24.6,20,44.6,44.6,44.6h0h55.9
	L430.2,397L430.2,397z M449.6,356.3c0,0.8-0.7,1.5-1.5,1.5l0,0h-73.8c-12.4,0-23.3-7-28.9-17.2c-0.3-0.5-0.5-0.9-0.7-1.4
	c-0.5-1-0.9-1.9-1.2-2.9c-1.3-3.5-2-7.3-2-11.3s0.7-7.8,2-11.3c0.4-1,0.8-2,1.2-2.9c0.2-0.5,0.5-1,0.7-1.4
	c5.6-10.2,16.4-17.2,28.9-17.2h73.8l0,0c0.8,0,1.5,0.7,1.5,1.5L449.6,356.3L449.6,356.3z"/>
<path class="st2" d="M375.6,301c-13.2,0-23.9,10.7-23.9,23.9s10.7,23.9,23.9,23.9s23.9-10.7,23.9-23.9S388.8,301,375.6,301z
	 M375.6,337c-6.7,0-12.1-5.4-12.1-12.1s5.4-12.1,12.1-12.1s12.1,5.4,12.1,12.1S382.3,337,375.6,337z"/>
</svg>
