<?xml version="1.0" encoding="utf-8"?>
<!-- Generator: Adobe Illustrator 23.1.0, SVG Export Plug-In . SVG Version: 6.00 Build 0)  -->
<svg version="1.1" id="Capa_1" xmlns="http://www.w3.org/2000/svg" xmlns:xlink="http://www.w3.org/1999/xlink" x="0px" y="0px"
	 viewBox="0 0 512 512" style="enable-background:new 0 0 512 512;" xml:space="preserve">
<style type="text/css">
	.st0{fill:#FDA216;}
	.st1{fill-rule:evenodd;clip-rule:evenodd;fill:#FFFFFF;}
	.st2{fill:#FFFFFF;}
</style>
<g>
	<path class="st2" d="M213.8,349.2h-83.4c-4.6,0-8.3,3.7-8.3,8.3c0,4.6,3.7,8.3,8.3,8.3h83.4c4.6,0,8.3-3.7,8.3-8.3
		C222,352.9,218.4,349.2,213.8,349.2L213.8,349.2z M213.8,349.2"/>
	<path class="st2" d="M338.4,349.2h-83.4c-4.6,0-8.3,3.7-8.3,8.3c0,4.6,3.7,8.3,8.3,8.3h83.4c4.6,0,8.3-3.7,8.3-8.3
		C346.7,352.9,343,349.2,338.4,349.2L338.4,349.2z M338.4,349.2"/>
	<path class="st2" d="M338.4,142.8h-208c-4.6,0-8.3,3.7-8.3,8.3c0,4.6,3.7,8.3,8.3,8.3h208c4.6,0,8.3-3.7,8.3-8.3
		C346.7,146.5,343,142.8,338.4,142.8L338.4,142.8z M338.4,142.8"/>
	<path class="st2" d="M338.4,184h-83.4c-4.6,0-8.3,3.7-8.3,8.3c0,4.6,3.7,8.3,8.3,8.3h83.4c4.6,0,8.3-3.7,8.3-8.3
		C346.7,187.7,343,184,338.4,184L338.4,184z M338.4,184"/>
	<path class="st2" d="M338.4,225.3h-83.4c-4.6,0-8.3,3.7-8.3,8.3s3.7,8.3,8.3,8.3h83.4c4.6,0,8.3-3.7,8.3-8.3S343,225.3,338.4,225.3
		L338.4,225.3z M338.4,225.3"/>
	<path class="st2" d="M338.4,266.6h-83.4c-4.6,0-8.3,3.7-8.3,8.3s3.7,8.3,8.3,8.3h83.4c4.6,0,8.3-3.7,8.3-8.3S343,266.6,338.4,266.6
		L338.4,266.6z M338.4,266.6"/>
	<path class="st2" d="M338.4,307.9h-83.4c-4.6,0-8.3,3.7-8.3,8.3s3.7,8.3,8.3,8.3h83.4c4.6,0,8.3-3.7,8.3-8.3S343,307.9,338.4,307.9
		L338.4,307.9z M338.4,307.9"/>
	<path class="st2" d="M213.8,307.9h-83.4c-4.6,0-8.3,3.7-8.3,8.3s3.7,8.3,8.3,8.3h83.4c4.6,0,8.3-3.7,8.3-8.3
		S218.4,307.9,213.8,307.9L213.8,307.9z M213.8,307.9"/>
	<path class="st2" d="M213.8,184h-83.4c-4.6,0-8.3,3.7-8.3,8.3v83.4c0,4.6,3.7,8.3,8.3,8.3h83.4c4.6,0,8.3-3.7,8.3-8.3v-83.4
		C222,187.7,218.4,184,213.8,184L213.8,184z M205.5,267.4h-66.9v-66.9h66.9V267.4z M205.5,267.4"/>
	<path class="st2" d="M421,134.5h-24.8v-24.8c0-9.1-7.4-16.5-16.5-16.5H89.1c-9.1,0-16.5,7.4-16.5,16.5v264.2
		c0,22.8,18.5,41.3,41.3,41.3h282.3c22.8,0,41.3-18.5,41.3-41.3V151C437.5,141.9,430.1,134.5,421,134.5L421,134.5z M421,373.9
		c0,13.7-11.1,24.8-24.8,24.8H113.9c-13.7,0-24.8-11.1-24.8-24.8V109.8h290.6v251.8c0,11.4,9.3,20.6,20.6,20.6
		c4.6,0,8.3-3.7,8.3-8.3c0-4.6-3.7-8.3-8.3-8.3c-2.3,0-4.1-1.9-4.1-4.1V151H421V373.9z M421,373.9"/>
</g>
</svg>
