<svg width="36" height="36" viewBox="0 0 36 36" fill="none" xmlns="http://www.w3.org/2000/svg">
<path d="M27 34.875V28.125H34.875V34.875H27ZM10.125 34.875V22.5H25.875V34.875H10.125ZM1.125 34.875V28.125H9V34.875H1.125ZM2.8125 22.5C2.8125 22.8094 3.06562 23.0625 3.375 23.0625H6.75C7.05937 23.0625 7.3125 22.8094 7.3125 22.5H9V27H1.125V22.5H2.8125ZM5.625 17.4375H12.9375V20.25C12.9375 20.5594 12.6844 20.8125 12.375 20.8125H6.1875C5.87813 20.8125 5.625 20.5594 5.625 20.25V17.4375ZM29.25 23.0625H32.625C32.9344 23.0625 33.1875 22.8094 33.1875 22.5H34.875V27H27V22.5H28.6875C28.6875 22.8094 28.9406 23.0625 29.25 23.0625ZM35.4375 21.375H24.1875V20.25H24.75C25.0594 20.25 25.3125 19.9969 25.3125 19.6875C25.3125 19.3781 25.0594 19.125 24.75 19.125H24.1875V18.5625C24.1875 17.318 25.193 16.3125 26.4375 16.3125C27.682 16.3125 28.6875 17.318 28.6875 18.5625C28.6875 18.8719 28.9406 19.125 29.25 19.125C29.5594 19.125 29.8125 18.8719 29.8125 18.5625C29.8125 16.6992 28.3008 15.1875 26.4375 15.1875C24.5742 15.1875 23.0625 16.6992 23.0625 18.5625V21.375H13.6266C13.9078 21.0656 14.0625 20.6648 14.0625 20.25V16.875C14.0625 16.5656 13.8094 16.3125 13.5 16.3125H5.0625C4.75313 16.3125 4.5 16.5656 4.5 16.875V20.25C4.5 20.6648 4.65469 21.0656 4.93594 21.375H0.5625C0.253125 21.375 0 21.6281 0 21.9375V35.4375C0 35.7469 0.253125 36 0.5625 36H35.4375C35.7469 36 36 35.7469 36 35.4375V21.9375C36 21.6281 35.7469 21.375 35.4375 21.375Z" fill="#A2A1A1"/>
<path d="M24.1875 29.8125H11.8125V25.3125H24.1875V29.8125ZM24.75 24.1875H11.25C10.9406 24.1875 10.6875 24.4406 10.6875 24.75V30.375C10.6875 30.6844 10.9406 30.9375 11.25 30.9375H24.75C25.0594 30.9375 25.3125 30.6844 25.3125 30.375V24.75C25.3125 24.4406 25.0594 24.1875 24.75 24.1875Z" fill="#A2A1A1"/>
<path d="M21.375 32.625H14.625C14.3156 32.625 14.0625 32.8781 14.0625 33.1875C14.0625 33.4969 14.3156 33.75 14.625 33.75H21.375C21.6844 33.75 21.9375 33.4969 21.9375 33.1875C21.9375 32.8781 21.6844 32.625 21.375 32.625Z" fill="#A2A1A1"/>
<path d="M6.75 1.125H17.4375V7.3125H6.75V1.125ZM29.25 7.3125H18.5625V1.125H29.25V7.3125ZM6.1875 8.4375H29.8125C30.1219 8.4375 30.375 8.18437 30.375 7.875V0.5625C30.375 0.253125 30.1219 0 29.8125 0H6.1875C5.87812 0 5.625 0.253125 5.625 0.5625V7.875C5.625 8.18437 5.87812 8.4375 6.1875 8.4375Z" fill="#A2A1A1"/>
<path d="M14.0625 3.9375H9.5625C9.25312 3.9375 9 4.19062 9 4.5C9 4.80937 9.25312 5.0625 9.5625 5.0625H14.0625C14.3719 5.0625 14.625 4.80937 14.625 4.5C14.625 4.19062 14.3719 3.9375 14.0625 3.9375Z" fill="#A2A1A1"/>
<path d="M21.9375 5.0625H26.4375C26.7469 5.0625 27 4.80937 27 4.5C27 4.19062 26.7469 3.9375 26.4375 3.9375H21.9375C21.6281 3.9375 21.375 4.19062 21.375 4.5C21.375 4.80937 21.6281 5.0625 21.9375 5.0625Z" fill="#A2A1A1"/>
<path d="M6.4125 13.8938C5.94844 14.1609 5.64609 14.6531 5.625 15.1875C5.625 15.4969 5.87812 15.75 6.1875 15.75C6.49687 15.75 6.75 15.4969 6.75 15.1875C6.75 15.068 6.80625 15.0047 7.0875 14.7937C7.55156 14.5266 7.85391 14.0344 7.875 13.5C7.85391 12.9656 7.55156 12.4734 7.0875 12.2063C6.80625 11.9953 6.75 11.932 6.75 11.8125C6.75 11.693 6.80625 11.6297 7.0875 11.4187C7.55156 11.1516 7.85391 10.6594 7.875 10.125C7.875 9.81562 7.62188 9.5625 7.3125 9.5625C7.00312 9.5625 6.75 9.81562 6.75 10.125C6.75 10.2445 6.69375 10.3078 6.4125 10.5188C5.94844 10.7859 5.64609 11.2781 5.625 11.8125C5.64609 12.3469 5.94844 12.8391 6.4125 13.1062C6.69375 13.3172 6.75 13.3805 6.75 13.5C6.75 13.6195 6.69375 13.6828 6.4125 13.8938Z" fill="#A2A1A1"/>
<path d="M9.9 11.4187C10.3641 11.1516 10.6664 10.6594 10.6875 10.125C10.6875 9.81562 10.4344 9.5625 10.125 9.5625C9.81562 9.5625 9.5625 9.81562 9.5625 10.125C9.5625 10.2445 9.50625 10.3078 9.225 10.5188C8.76094 10.7859 8.45859 11.2781 8.4375 11.8125C8.45859 12.3469 8.76094 12.8391 9.225 13.1062C9.50625 13.3172 9.5625 13.3805 9.5625 13.5C9.5625 13.6195 9.50625 13.6828 9.225 13.8938C8.76094 14.1609 8.45859 14.6531 8.4375 15.1875C8.4375 15.4969 8.69062 15.75 9 15.75C9.30937 15.75 9.5625 15.4969 9.5625 15.1875C9.5625 15.068 9.61875 15.0047 9.9 14.7937C10.3641 14.5266 10.6664 14.0344 10.6875 13.5C10.6664 12.9656 10.3641 12.4734 9.9 12.2063C9.61875 11.9953 9.5625 11.932 9.5625 11.8125C9.5625 11.693 9.61875 11.6297 9.9 11.4187Z" fill="#A2A1A1"/>
<path d="M12.7125 11.4187C13.1766 11.1516 13.4789 10.6594 13.5 10.125C13.5 9.81562 13.2469 9.5625 12.9375 9.5625C12.6281 9.5625 12.375 9.81562 12.375 10.125C12.375 10.2445 12.3187 10.3078 12.0375 10.5188C11.5734 10.7859 11.2711 11.2781 11.25 11.8125C11.2711 12.3469 11.5734 12.8391 12.0375 13.1062C12.3187 13.3172 12.375 13.3805 12.375 13.5C12.375 13.6195 12.3187 13.6828 12.0375 13.8938C11.5734 14.1609 11.2711 14.6531 11.25 15.1875C11.25 15.4969 11.5031 15.75 11.8125 15.75C12.1219 15.75 12.375 15.4969 12.375 15.1875C12.375 15.068 12.4313 15.0047 12.7125 14.7937C13.1766 14.5266 13.4789 14.0344 13.5 13.5C13.4789 12.9656 13.1766 12.4734 12.7125 12.2063C12.4313 11.9953 12.375 11.932 12.375 11.8125C12.375 11.693 12.4313 11.6297 12.7125 11.4187Z" fill="#A2A1A1"/>
</svg>
