<?xml version="1.0" encoding="utf-8"?>
<!-- Generator: Adobe Illustrator 23.1.0, SVG Export Plug-In . SVG Version: 6.00 Build 0)  -->
<svg version="1.1" id="Capa_1" xmlns="http://www.w3.org/2000/svg" xmlns:xlink="http://www.w3.org/1999/xlink" x="0px" y="0px"
	 viewBox="0 0 512 512" style="enable-background:new 0 0 512 512;" xml:space="preserve">
<style type="text/css">
	.st0{fill:#FFFFFF;}
	.st1{clip-path:url(#SVGID_2_);fill:#FFFFFF;}
	.st2{fill:#959494;}
	.st3{clip-path:url(#SVGID_4_);fill:#959494;}
	.st4{fill:#FDA216;}
	.st5{clip-path:url(#SVGID_6_);fill:#FDA216;}
</style>
<g>
	<path class="st2" d="M65,357h20.8c4.3,0,7.8-3.5,7.8-7.8c0-4.3-3.5-7.8-7.8-7.8H65c-4.3,0-7.8,3.5-7.8,7.8
		C57.2,353.5,60.7,357,65,357z"/>
	<path class="st2" d="M492.3,174.6h-12.4l17.9-17.9c3.1-3.1,3.1-8,0-11.1c-3.1-3.1-8-3.1-11.1,0l-7.5,7.5v-43.7
		c0-15.8-12.9-28.7-28.7-28.7c-15.8,0-28.7,12.9-28.7,28.7c0,4.3,3.5,7.8,7.8,7.8c4.3,0,7.8-3.5,7.8-7.8c0-7.2,5.8-13,13-13
		c7.2,0,13,5.8,13,13v43.7l-7.5-7.5c-3.1-3.1-8-3.1-11.1,0c-3.1,3.1-3.1,8,0,11.1l17.9,17.9h-95.8H246.7c2-3.9,3.3-8.3,3.3-13v-41.7
		c0-4.3-3.5-7.8-7.8-7.8h-33.9v-2.6c0-4.3-3.5-7.8-7.8-7.8c-4.3,0-7.8,3.5-7.8,7.8v2.6h-33.9c-4.3,0-7.8,3.5-7.8,7.8v41.7
		c0,4.7,1.3,9.1,3.3,13H138H94.9l9.1-64c0.3-2.2-0.3-4.5-1.8-6.2c-1.5-1.7-3.6-2.7-5.9-2.7H33.8c-2.3,0-4.4,1-5.9,2.7
		c-1.5,1.7-2.2,4-1.8,6.2l9.1,64H12.9c-4.3,0-7.8,3.5-7.8,7.8v41.7v83.4v83.4v93.8c0,4.3,3.5,7.8,7.8,7.8H138h229.3h125.1
		c4.3,0,7.8-3.5,7.8-7.8V224.1v-41.7C500.1,178.1,496.6,174.6,492.3,174.6z M87.3,117.3l-8.2,57.3H51l-8.2-57.3H87.3z M130.2,401.3
		v75.6H20.7v-78.2h109.4V401.3z M130.2,383H20.7v-67.7h109.4V383z M130.2,265.8v33.9H20.7v-67.7h109.4V265.8z M130.2,216.3H20.7
		v-26.1h23.4h41.7h44.3V216.3z M166.6,127.7h67.7v33.9c0,7.2-5.8,13-13,13h-41.7c-7.2,0-13-5.8-13-13V127.7z M359.4,476.8H145.8
		v-67.7h213.6V476.8z M359.4,393.4H255.8l-29-29c-3.1-3.1-8-3.1-11.1,0c-3.1,3.1-3.1,8,0,11.1l17.9,17.9h-87.9v-2.6v-83.4v-33.9
		h30.6l19.8,19.8c1.5,1.5,3.5,2.3,5.5,2.3c2,0,4-0.8,5.5-2.3c3.1-3,3.1-8,0-11.1l-8.8-8.8h61.3l60.2,60.2c1.5,1.5,3.5,2.3,5.5,2.3
		c2,0,4-0.8,5.5-2.3c3.1-3.1,3.1-8,0-11.1l-49.2-49.2h77.5V393.4z M359.4,224.1V258H145.8v-33.9v-33.9h33.9h41.7h138.1V224.1z
		 M484.5,476.8H375.1v-75.6V265.8v-33.9h109.4V476.8z M484.5,216.3H375.1v-26.1h109.4V216.3z"/>
	<path class="st2" d="M65,273.6h20.8c4.3,0,7.8-3.5,7.8-7.8c0-4.3-3.5-7.8-7.8-7.8H65c-4.3,0-7.8,3.5-7.8,7.8
		C57.2,270.1,60.7,273.6,65,273.6z"/>
	<path class="st2" d="M65,440.3h20.8c4.3,0,7.8-3.5,7.8-7.8c0-4.3-3.5-7.8-7.8-7.8H65c-4.3,0-7.8,3.5-7.8,7.8
		C57.2,436.8,60.7,440.3,65,440.3z"/>
	<path class="st2" d="M408.9,304.9c4.3,0,7.8-3.5,7.8-7.8v-31.3c0-4.3-3.5-7.8-7.8-7.8c-4.3,0-7.8,3.5-7.8,7.8v31.3
		C401.1,301.4,404.6,304.9,408.9,304.9z"/>
	<path class="st2" d="M231.8,450.8H263c4.3,0,7.8-3.5,7.8-7.8c0-4.3-3.5-7.8-7.8-7.8h-31.3c-4.3,0-7.8,3.5-7.8,7.8
		C224,447.3,227.5,450.8,231.8,450.8z"/>
	<path class="st2" d="M218.7,224.1c0,4.3,3.5,7.8,7.8,7.8H237c4.3,0,7.8-3.5,7.8-7.8c0-4.3-3.5-7.8-7.8-7.8h-10.4
		C222.2,216.3,218.7,219.8,218.7,224.1z"/>
	<path class="st2" d="M268.2,231.9h10.4c4.3,0,7.8-3.5,7.8-7.8c0-4.3-3.5-7.8-7.8-7.8h-10.4c-4.3,0-7.8,3.5-7.8,7.8
		C260.4,228.4,263.9,231.9,268.2,231.9z"/>
	<path class="st2" d="M309.9,231.9h10.4c4.3,0,7.8-3.5,7.8-7.8c0-4.3-3.5-7.8-7.8-7.8h-10.4c-4.3,0-7.8,3.5-7.8,7.8
		C302.1,228.4,305.6,231.9,309.9,231.9z"/>
	<path class="st2" d="M195.3,216.3h-10.4c-4.3,0-7.8,3.5-7.8,7.8c0,4.3,3.5,7.8,7.8,7.8h10.4c4.3,0,7.8-3.5,7.8-7.8
		C203.1,219.8,199.6,216.3,195.3,216.3z"/>
	<path class="st2" d="M229.4,304.5c-3.1-3.1-8-3-11.1,0c-3.1,3.1-3.1,8,0,11.1l7.4,7.4c1.5,1.5,3.5,2.3,5.5,2.3c2,0,4-0.8,5.5-2.3
		c3.1-3.1,3.1-8,0-11.1L229.4,304.5z"/>
</g>
</svg>
