<svg width="28" height="35" viewBox="0 0 28 35" fill="none" xmlns="http://www.w3.org/2000/svg">
<path d="M23.9104 12.8286H26.2432C26.5639 12.8286 26.8263 13.091 26.8263 13.4117C26.8263 13.7324 26.5639 13.9948 26.2432 13.9948H23.9104C23.5897 13.9948 23.3273 13.7324 23.3273 13.4117C23.3273 13.091 23.5897 12.8286 23.9104 12.8286ZM24.4936 18.7468C24.4936 19.0238 24.2749 19.2424 23.9979 19.2424H23.3273V15.0589C23.5168 15.1245 23.7136 15.1609 23.9104 15.1609H24.4936V18.7468ZM16.3291 20.9916H7.42098C6.61911 21.0062 5.93387 20.4086 5.83181 19.6141C5.93387 19.0529 6.42958 18.6521 6.99818 18.6593H20.9945C21.5631 18.6521 22.0588 19.0529 22.1609 19.6141C22.0588 20.4086 21.3736 20.9989 20.5717 20.9916H16.3291ZM15.7459 23.3239H12.2468V22.1578H15.7459V23.3239ZM15.6438 27.4929L20.4697 28.2946C21.1841 28.4112 21.7527 28.9652 21.8985 29.6794L22.0297 30.3208C21.5486 30.35 21.082 30.5322 20.7029 30.831L20.4041 29.592C20.3457 29.3587 20.1489 29.1838 19.9084 29.1547L15.2429 28.5716C15.0752 28.5497 14.9149 28.6007 14.7909 28.7101C14.6597 28.8194 14.5795 28.9797 14.5722 29.1474V30.3937C14.1932 30.2844 13.785 30.2844 13.4059 30.3937V29.1547C13.4059 28.987 13.333 28.8267 13.2091 28.7174C13.0851 28.608 12.9175 28.557 12.7571 28.5789L8.09164 29.1619C7.85108 29.1911 7.65426 29.366 7.59594 29.5992L7.28248 30.8456C6.90341 30.5395 6.44415 30.35 5.95574 30.3208L6.08696 29.6648C6.23275 28.9506 6.80135 28.4039 7.51575 28.28L12.3416 27.4783C12.9539 27.3763 13.4059 26.8515 13.4059 26.2393V24.4901H14.5722V26.2393C14.5795 26.8661 15.0315 27.3909 15.6438 27.4929ZM22.1609 33.8192C21.5194 33.8192 20.9945 33.2945 20.9945 32.6531C20.9945 32.0117 21.5194 31.4869 22.1609 31.4869C22.8024 31.4869 23.3273 32.0117 23.3273 32.6531C23.3273 33.3018 22.8024 33.8192 22.1609 33.8192ZM13.9964 33.8192C13.3549 33.8192 12.83 33.2945 12.83 32.6531C12.83 32.0117 13.3549 31.4869 13.9964 31.4869C14.6379 31.4869 15.1627 32.0117 15.1627 32.6531C15.1627 33.3018 14.6379 33.8192 13.9964 33.8192ZM5.83181 33.8192C5.19031 33.8192 4.66545 33.2945 4.66545 32.6531C4.66545 32.0117 5.19031 31.4869 5.83181 31.4869C6.47331 31.4869 6.99818 32.0117 6.99818 32.6531C6.99818 33.3018 6.47331 33.8192 5.83181 33.8192ZM3.49909 18.7468V15.1609H4.08227C4.27909 15.1609 4.47592 15.1245 4.66545 15.0589V19.2424H3.99479C3.71778 19.2424 3.49909 19.0238 3.49909 18.7468ZM1.16636 13.4117C1.16636 13.091 1.42879 12.8286 1.74954 12.8286H4.08227C4.40302 12.8286 4.66545 13.091 4.66545 13.4117C4.66545 13.7324 4.40302 13.9948 4.08227 13.9948H1.74954C1.42879 13.9948 1.16636 13.7324 1.16636 13.4117ZM5.83181 6.99789C5.79537 3.81285 8.34678 1.2036 11.5324 1.16716C11.5762 1.16716 11.6199 1.16716 11.6636 1.16716H16.0594C19.3543 1.10156 22.0807 3.70353 22.1609 6.99789V17.8212C21.811 17.6098 21.4028 17.4932 20.9945 17.4932H6.99818C6.58995 17.4932 6.18172 17.6098 5.83181 17.8212V6.99789ZM16.0594 0.00101349H11.6636C7.84379 -0.042717 4.70919 3.0257 4.66545 6.84483C4.66545 6.89585 4.66545 6.94687 4.66545 6.99789V11.7645C4.47592 11.6989 4.27909 11.6625 4.08227 11.6625H1.74954C0.780005 11.6625 0 12.4423 0 13.4117C0 14.381 0.780005 15.1609 1.74954 15.1609H2.33273V18.7468C2.33273 19.6651 3.07628 20.4086 3.99479 20.4086H4.74564C5.00807 21.4362 5.93387 22.1578 6.99818 22.1578H11.0804V23.907C11.0804 24.2277 11.3429 24.4901 11.6636 24.4901H12.2468V26.2393C12.2468 26.2976 12.2104 26.3413 12.152 26.3486L7.32622 27.1503C6.13069 27.3471 5.18303 28.2655 4.94975 29.4535L4.71648 30.6196C3.58657 31.2391 3.17105 32.6531 3.79068 33.7828C4.41031 34.9125 5.82452 35.3279 6.95444 34.7084C7.70529 34.293 8.17183 33.5058 8.16454 32.6458C8.16454 32.4927 8.14996 32.347 8.1208 32.1939L8.60193 30.2552L12.2177 29.8033V31.1152C11.3647 32.0846 11.4595 33.5569 12.4218 34.4096C13.384 35.2623 14.8638 35.1676 15.7167 34.2055C16.4967 33.3236 16.4967 32.0044 15.7167 31.1225V29.8179L19.3325 30.2698L19.8282 32.2085C19.8136 32.3543 19.8136 32.5073 19.8282 32.6531C19.8209 33.9431 20.8633 34.9927 22.1463 35C23.4366 35.0073 24.4863 33.965 24.4936 32.6822C24.5009 31.8222 24.0344 31.0351 23.2835 30.6269L23.0502 29.4608C22.8097 28.2728 21.862 27.3544 20.6738 27.1576L15.848 26.3559C15.7969 26.3486 15.7532 26.3049 15.7532 26.2539V24.5047H16.3364C16.6571 24.5047 16.9196 24.2423 16.9196 23.9216V22.1724H21.0018C22.0661 22.1724 22.9846 21.4508 23.2544 20.4231H24.0052C24.9237 20.4231 25.6673 19.6797 25.6673 18.7614V15.1609H26.2505C27.22 15.1609 28 14.381 28 13.4117C28 12.4423 27.22 11.6625 26.2505 11.6625H23.9177C23.7209 11.6625 23.5241 11.6989 23.3345 11.7645V6.99789C23.2471 3.06215 19.9958 -0.0645822 16.0594 0.00101349Z" fill="#A2A1A1"/>
</svg>
