<?xml version="1.0" encoding="utf-8"?>
<!-- Generator: Adobe Illustrator 23.1.0, SVG Export Plug-In . SVG Version: 6.00 Build 0)  -->
<svg version="1.1" id="Capa_1" xmlns="http://www.w3.org/2000/svg" xmlns:xlink="http://www.w3.org/1999/xlink" x="0px" y="0px"
	 viewBox="0 0 512 512" style="enable-background:new 0 0 512 512;" xml:space="preserve">
<style type="text/css">
	.st0{fill:#FFFFFF;}
	.st1{clip-path:url(#SVGID_2_);fill:#FFFFFF;}
	.st2{fill:#959494;}
	.st3{clip-path:url(#SVGID_4_);fill:#959494;}
	.st4{fill:#FDA216;}
	.st5{clip-path:url(#SVGID_6_);fill:#FDA216;}
</style>
<path class="st2" d="M407.8,49.6H129c-10.5,0-19.1,8.6-19.1,19.1v56.4c0,10.5,8.6,19.1,19.1,19.1h278.8c10.5,0,19.1-8.6,19.1-19.1
	V68.7C426.9,58.2,418.3,49.6,407.8,49.6z M414.8,125.1c0,3.9-3.2,7-7,7H129c-3.9,0-7-3.2-7-7V68.7c0-3.9,3.2-7,7-7h278.8
	c3.9,0,7,3.2,7,7V125.1z"/>
<path class="st2" d="M429.2,15.1H107.6c-17.8,0-32.2,14.4-32.2,32.2v125.5v125.5c0,17.8,14.4,32.2,32.2,32.2h34.1l-41.3,158.5
	c-1,3.8-0.2,7.8,2.2,11c2.4,3.1,6.1,4.9,10,4.9h15.8c4.9,0,9.4-2.9,11.5-7.3l77.5-167h102.1l77.5,167c2.1,4.5,6.6,7.3,11.5,7.3h15.8
	c4,0,7.6-1.8,10-4.9c2.4-3.1,3.2-7.1,2.2-11l-41.3-158.5h34.1c17.8,0,32.2-14.4,32.2-32.2V172.7V47.3
	C461.4,29.5,447,15.1,429.2,15.1z M87.4,47.3c0-11.1,9-20.1,20.1-20.1h321.7c11.1,0,20.1,9,20.1,20.1v119.4H87.4V47.3z M128.4,492.6
	h-15.8l-0.6-0.8l42.1-161.5h49.9L128.4,492.6z M424.7,492.4c-0.2,0.2-0.4,0.2-0.5,0.2l-16.3-0.4l-75.1-161.9h49.9L424.7,492.4z
	 M449.4,298.2c0,11.1-9,20.1-20.1,20.1h-41.9h-64H213.5h-64h-41.9c-11.1,0-20.1-9-20.1-20.1V178.7h361.9V298.2z"/>
<path class="st2" d="M129,295.8h278.8c10.5,0,19.1-8.6,19.1-19.1v-56.4c0-10.5-8.6-19.1-19.1-19.1H129c-10.5,0-19.1,8.6-19.1,19.1
	v56.4C109.9,287.3,118.5,295.8,129,295.8z M122,220.3c0-3.9,3.2-7,7-7h278.8c3.9,0,7,3.2,7,7v56.4c0,3.9-3.2,7-7,7H129
	c-3.9,0-7-3.2-7-7V220.3z"/>
<path class="st2" d="M277,88.3c-0.5-0.5-1.2-1-1.8-1.5c-0.6-0.5-1.3-0.9-2.1-1.1c-0.7-0.4-1.6-0.6-2.3-0.7c-4-0.7-8.1,0.5-10.9,3.3
	c-2.3,2.3-3.6,5.5-3.6,8.6c0,3.2,1.3,6.3,3.6,8.6c2.2,2.2,5.3,3.5,8.5,3.5c0.8,0,1.6-0.1,2.4-0.2c0.7-0.1,1.6-0.4,2.3-0.7
	c0.7-0.2,1.5-0.6,2.1-1.1c0.6-0.4,1.3-1,1.8-1.5c1.1-1.2,2.1-2.4,2.7-4c0.6-1.5,1-3,1-4.6c0-1.6-0.4-3.2-1-4.6
	C279,90.8,278.1,89.5,277,88.3z"/>
<path class="st2" d="M268.3,260.7c0.8,0,1.6-0.1,2.4-0.2c0.7-0.1,1.6-0.4,2.3-0.7c0.7-0.2,1.5-0.6,2.1-1.1c0.6-0.4,1.3-1,1.8-1.5
	c1.1-1.2,2.1-2.4,2.7-4c0.6-1.5,1-3,1-4.6c0-1.6-0.4-3.2-1-4.6c-0.6-1.5-1.6-2.8-2.7-4c-0.5-0.5-1.2-1-1.8-1.5
	c-0.6-0.5-1.3-0.9-2.1-1.1c-0.7-0.4-1.6-0.6-2.3-0.7c-4-0.7-8.1,0.5-10.9,3.3c-2.3,2.3-3.6,5.5-3.6,8.6c0,3.2,1.3,6.3,3.6,8.6
	C262,259.3,265.2,260.7,268.3,260.7z"/>
</svg>
