<svg width="38" height="20" viewBox="0 0 38 20" fill="none" xmlns="http://www.w3.org/2000/svg">
<path d="M37.3871 18.7826H36.7742V8.73912C36.7742 7.56231 35.814 6.60869 34.629 6.60869H34.0161C32.9538 6.60869 32.0446 7.38984 31.8914 8.43477H30.6452V7.21738C30.6452 6.8826 30.3694 6.60869 30.0323 6.60869H17.1613C16.8242 6.60869 16.5484 6.8826 16.5484 7.21738V8.43477H15.3226V6.91303C15.3226 5.73622 14.3624 4.7826 13.1774 4.7826H8.8871C7.70215 4.7826 6.74194 5.73622 6.74194 6.91303V8.43477H6.12903V2.65216C6.12903 1.47535 5.16882 0.521729 3.98387 0.521729H3.37097C2.18602 0.521729 1.22581 1.47535 1.22581 2.65216V18.7826H0.612903C0.275806 18.7826 0 19.0565 0 19.3913C0 19.7261 0.275806 20 0.612903 20H37.3871C37.7242 20 38 19.7261 38 19.3913C38 19.0565 37.7242 18.7826 37.3871 18.7826ZM4.90323 18.7826H2.45161V2.65216C2.45161 2.14492 2.86021 1.73912 3.37097 1.73912H3.98387C4.49462 1.73912 4.90323 2.14492 4.90323 2.65216V18.7826ZM17.7742 7.82608H29.4194V16.0435C29.4194 16.5507 29.0108 16.9565 28.5 16.9565H18.6935C18.1828 16.9565 17.7742 16.5507 17.7742 16.0435V7.82608ZM7.96774 6.91303C7.96774 6.40579 8.37634 5.99999 8.8871 5.99999H13.1774C13.6882 5.99999 14.0968 6.40579 14.0968 6.91303V8.43477H7.96774V6.91303ZM6.12903 9.65216H16.5484V15.7391H6.12903V9.65216ZM31.871 18.7826H6.12903V16.9565H16.7527C17.1102 17.6971 17.8661 18.1739 18.6935 18.1739H28.5C29.3274 18.1739 30.0833 17.6971 30.4409 16.9565H31.871V18.7826ZM31.871 15.7391H30.6452V9.65216H31.871V15.7391ZM35.5484 18.7826H33.0968V8.73912C33.0968 8.23187 33.5054 7.82608 34.0161 7.82608H34.629C35.1398 7.82608 35.5484 8.23187 35.5484 8.73912V18.7826Z" fill="#A2A1A1"/>
</svg>
