<svg width="42" height="28" viewBox="0 0 42 28" fill="none" xmlns="http://www.w3.org/2000/svg">
<path d="M40.4031 0.0106201H33.6766C33.3375 0.0106201 33.0641 0.279851 33.0641 0.613697C33.0641 0.947543 33.3375 1.21677 33.6766 1.21677H40.4031C40.6109 1.21677 40.775 1.37831 40.775 1.58293V3.32754C40.775 3.42447 40.7422 3.48908 40.7094 3.53216C40.6438 3.62908 40.5234 3.6937 40.4031 3.6937C40.0313 3.6937 1.96875 3.6937 1.59688 3.6937C1.38906 3.6937 1.225 3.53216 1.225 3.32754V1.58293C1.225 1.37831 1.38906 1.21677 1.59688 1.21677H30.8C31.1391 1.21677 31.4125 0.947543 31.4125 0.613697C31.4125 0.279851 31.1391 0.0106201 30.8 0.0106201H1.59688C0.721875 0.0106201 0 0.71062 0 1.58293V3.32754C0 4.19985 0.721875 4.91062 1.59688 4.91062H2.25313V7.46293C2.25313 8.5937 3.19375 9.51985 4.34219 9.51985H5.6875V16.6706C5.6875 17.0045 5.96094 17.2737 6.3 17.2737C6.63906 17.2737 6.9125 17.0045 6.9125 16.6706V9.51985H9.275L8.21406 26.1799C8.19219 26.5137 7.90781 26.7829 7.55781 26.7829C7.19688 26.7829 6.90156 26.4922 6.90156 26.1368V19.4922C6.90156 19.1583 6.62813 18.8891 6.28906 18.8891C5.95 18.8891 5.67656 19.1583 5.67656 19.4922V26.1368C5.67656 27.1599 6.51875 27.9891 7.55781 27.9891C8.55313 27.9891 9.37344 27.2245 9.43906 26.2552L10.5 9.51985H31.4563L32.5172 26.2552C32.5828 27.2352 33.4031 27.9891 34.3984 27.9891C35.4375 27.9891 36.2797 27.1599 36.2797 26.1368V9.51985H37.625C38.7734 9.51985 39.7141 8.5937 39.7141 7.46293V4.91062H40.3703C40.8953 4.91062 41.3875 4.65216 41.6828 4.23216C41.8688 3.9737 41.9672 3.66139 41.9672 3.33831V1.58293C42 0.71062 41.2781 0.0106201 40.4031 0.0106201ZM35.0766 26.1368C35.0766 26.4922 34.7813 26.7829 34.4203 26.7829C34.0813 26.7829 33.7859 26.5137 33.7641 26.1799L32.7031 9.51985H35.0656V26.1368H35.0766ZM38.5109 7.45216C38.5109 7.91524 38.1281 8.30293 37.6469 8.30293C37.1328 8.30293 5.18438 8.30293 4.34219 8.30293C3.87188 8.30293 3.47813 7.926 3.47813 7.45216V4.91062H38.5109V7.45216Z" fill="#A2A1A1"/>
</svg>
