<?xml version="1.0" encoding="utf-8"?>
<!-- Generator: Adobe Illustrator 23.1.0, SVG Export Plug-In . SVG Version: 6.00 Build 0)  -->
<svg version="1.1" id="Capa_1" xmlns="http://www.w3.org/2000/svg" xmlns:xlink="http://www.w3.org/1999/xlink" x="0px" y="0px"
	 viewBox="0 0 512 512" style="enable-background:new 0 0 512 512;" xml:space="preserve">
<style type="text/css">
	.st0{fill:#FFFFFF;}
	.st1{clip-path:url(#SVGID_2_);fill:#FFFFFF;}
	.st2{fill:#959494;}
	.st3{clip-path:url(#SVGID_4_);fill:#959494;}
	.st4{fill:#FDA216;}
	.st5{clip-path:url(#SVGID_6_);fill:#FDA216;}
</style>
<path class="st2" d="M483.1,130.7H38.4c-9.5,0-17.3,7.7-17.3,17.3v251.6c0,9.5,7.7,17.3,17.3,17.3h444.6c9.5,0,17.3-7.7,17.3-17.3
	V148C500.3,138.4,492.6,130.7,483.1,130.7z M485.3,399.6c0,1.3-1,2.3-2.3,2.3H38.4c-1.2,0-2.3-1-2.3-2.3V148c0-1.2,1-2.3,2.3-2.3
	h444.6c1.2,0,2.3,1,2.3,2.3V399.6z"/>
<polygon class="st2" points="129.5,308.4 114.5,308.4 114.5,325.6 97.3,325.6 97.3,340.6 114.5,340.6 114.5,357.8 129.5,357.8 
	129.5,340.6 146.7,340.6 146.7,325.6 129.5,325.6 "/>
<polygon class="st2" points="391.9,308.4 376.9,308.4 376.9,325.6 359.6,325.6 359.6,340.6 376.9,340.6 376.9,357.8 391.9,357.8 
	391.9,340.6 409.1,340.6 409.1,325.6 391.9,325.6 "/>
<polygon class="st2" points="129.5,192.6 114.5,192.6 114.5,209.8 97.3,209.8 97.3,224.8 114.5,224.8 114.5,242 129.5,242 
	129.5,224.8 146.7,224.8 146.7,209.8 129.5,209.8 "/>
<polygon class="st2" points="391.9,192.6 376.9,192.6 376.9,209.8 359.6,209.8 359.6,224.8 376.9,224.8 376.9,242 391.9,242 
	391.9,224.8 409.1,224.8 409.1,209.8 391.9,209.8 "/>
</svg>
