<?xml version="1.0" encoding="utf-8"?>
<!-- Generator: Adobe Illustrator 23.1.0, SVG Export Plug-In . SVG Version: 6.00 Build 0)  -->
<svg version="1.1" id="Capa_1" xmlns="http://www.w3.org/2000/svg" xmlns:xlink="http://www.w3.org/1999/xlink" x="0px" y="0px"
	 viewBox="0 0 512 512" style="enable-background:new 0 0 512 512;" xml:space="preserve">
<style type="text/css">
	.st0{fill:#FFFFFF;}
	.st1{clip-path:url(#SVGID_2_);fill:#FFFFFF;}
	.st2{fill:#959494;}
	.st3{clip-path:url(#SVGID_4_);fill:#959494;}
	.st4{fill:#FDA216;}
	.st5{clip-path:url(#SVGID_6_);fill:#FDA216;}
</style>
<g>
	<path class="st2" d="M122.1,440.1V210h11.6c14.8,0,26.9-12.1,26.9-26.9v-9.8c0-4.1-3.3-7.3-7.3-7.3c-4.1,0-7.3,3.3-7.3,7.3v9.8
		c0,6.7-5.5,12.2-12.2,12.2h-11.6v-53.8h11.6c14.8,0,26.9-12.1,26.9-26.9v-9.8c0-4.1-3.3-7.3-7.3-7.3c-4.1,0-7.3,3.3-7.3,7.3v9.8
		c0,6.7-5.5,12.2-12.2,12.2h-11.6V73.1h11.6c14.8,0,26.9-12.1,26.9-26.9v-9.8c0-4.1-3.3-7.3-7.3-7.3c-4.1,0-7.3,3.3-7.3,7.3v9.8
		c0,6.7-5.5,12.2-12.2,12.2h-11.6V56c0-14.8-12.1-26.9-26.9-26.9c-14.8,0-26.9,12.1-26.9,26.9v2.4H56.1c-6.7,0-12.2-5.5-12.2-12.2
		v-9.8c0-4.1-3.3-7.3-7.3-7.3c-4.1,0-7.3,3.3-7.3,7.3v9.8c0,14.8,12.1,26.9,26.9,26.9h12.2v53.8H56.1c-6.7,0-12.2-5.5-12.2-12.2
		v-9.8c0-4.1-3.3-7.3-7.3-7.3c-4.1,0-7.3,3.3-7.3,7.3v9.8c0,14.8,12.1,26.9,26.9,26.9h12.2v53.8H56.1c-6.7,0-12.2-5.5-12.2-12.2
		v-9.8c0-4.1-3.3-7.3-7.3-7.3c-4.1,0-7.3,3.3-7.3,7.3v9.8c0,14.8,12.1,26.9,26.9,26.9h12.2v230.1c-24.5,1.3-44,21.4-44,46.2
		c0,4.1,3.3,7.3,7.3,7.3h127.2c4,0,7.3-3.3,7.3-7.3C166.1,461.5,146.6,441.4,122.1,440.1z M83,56c0-6.7,5.5-12.2,12.2-12.2
		c6.7,0,12.2,5.5,12.2,12.2v9.8v68.5v68.5v237.2H83V56z M39.9,479c3.3-14,15.9-24.5,30.9-24.5h4.9h39.1h4.9
		c15,0,27.6,10.5,30.9,24.5H39.9z"/>
	<path class="st2" d="M383.8,356.7h29.3c4.1,0,7.3-3.3,7.3-7.3s-3.3-7.3-7.3-7.3h-29.3c-4.1,0-7.3,3.3-7.3,7.3
		S379.7,356.7,383.8,356.7z"/>
	<path class="st2" d="M476.7,224.7H320.2c-4.1,0-7.3,3.3-7.3,7.3v78.2v78.2v78.2c0,4.1,3.3,7.3,7.3,7.3h2.4v12.2
		c0,4.1,3.3,7.3,7.3,7.3c4,0,7.3-3.3,7.3-7.3v-12.2h122.3v12.2c0,4.1,3.3,7.3,7.3,7.3c4.1,0,7.3-3.3,7.3-7.3v-12.2h2.4
		c4,0,7.3-3.3,7.3-7.3v-78.2v-78.2V232C484,228,480.7,224.7,476.7,224.7z M469.3,459.4h-2.4H330h-2.4v-63.6h141.8V459.4z
		 M469.3,381.2H327.5v-63.6h141.8V381.2z M469.3,302.9H327.5v-63.6h141.8V302.9z"/>
	<path class="st2" d="M383.8,278.5h29.3c4.1,0,7.3-3.3,7.3-7.3c0-4.1-3.3-7.3-7.3-7.3h-29.3c-4.1,0-7.3,3.3-7.3,7.3
		C376.4,275.2,379.7,278.5,383.8,278.5z"/>
	<path class="st2" d="M383.8,435h29.3c4.1,0,7.3-3.3,7.3-7.3c0-4.1-3.3-7.3-7.3-7.3h-29.3c-4.1,0-7.3,3.3-7.3,7.3
		C376.4,431.7,379.7,435,383.8,435z"/>
	<path class="st2" d="M466.9,29.1H232.2c-9.4,0-17.1,7.7-17.1,17.1v29.3c0,9.4,7.7,17.1,17.1,17.1h22v22c0,1.3-1.1,2.4-2.4,2.4h-9.8
		c-4.1,0-7.3,3.3-7.3,7.3s3.3,7.3,7.3,7.3h9.8c9.4,0,17.1-7.7,17.1-17.1v-22h44v22c0,1.3-1.1,2.4-2.4,2.4h-9.8
		c-4.1,0-7.3,3.3-7.3,7.3s3.3,7.3,7.3,7.3h9.8c9.4,0,17.1-7.7,17.1-17.1v-22h44v22c0,1.3-1.1,2.4-2.4,2.4h-9.8
		c-4.1,0-7.3,3.3-7.3,7.3s3.3,7.3,7.3,7.3h9.8c9.4,0,17.1-7.7,17.1-17.1v-22h44v22c0,1.3-1.1,2.4-2.4,2.4H418
		c-4.1,0-7.3,3.3-7.3,7.3s3.3,7.3,7.3,7.3h9.8c9.4,0,17.1-7.7,17.1-17.1v-22h22c9.4,0,17.1-7.7,17.1-17.1V46.2
		C484,36.7,476.3,29.1,466.9,29.1z M469.3,75.5c0,1.3-1.1,2.4-2.4,2.4h-22v-2.4c0-4.1-3.3-7.3-7.3-7.3c-4.1,0-7.3,3.3-7.3,7.3V78
		h-44v-2.4c0-4.1-3.3-7.3-7.3-7.3c-4.1,0-7.3,3.3-7.3,7.3V78h-44v-2.4c0-4.1-3.3-7.3-7.3-7.3c-4.1,0-7.3,3.3-7.3,7.3V78h-44v-2.4
		c0-4.1-3.3-7.3-7.3-7.3c-4.1,0-7.3,3.3-7.3,7.3V78h-22c-1.3,0-2.4-1.1-2.4-2.4V46.2c0-1.3,1.1-2.4,2.4-2.4h234.7
		c1.3,0,2.4,1.1,2.4,2.4V75.5z"/>
	<path class="st2" d="M281.1,371.4h-15.8l8.4-50.1c0.3-2.1-0.2-4.3-1.6-5.9c-1.4-1.6-3.4-2.6-5.6-2.6h-17.1v-41.6
		c0-14.8-12.1-26.9-26.9-26.9s-26.9,12.1-26.9,26.9c0,4.1,3.3,7.3,7.3,7.3c4.1,0,7.3-3.3,7.3-7.3c0-6.7,5.5-12.2,12.2-12.2
		c6.7,0,12.2,5.5,12.2,12.2v41.6h-17.1c-2.2,0-4.2,0.9-5.6,2.6c-1.4,1.6-2,3.8-1.6,5.9l8.4,50.1h-15.8c-2.1,0-4,0.9-5.4,2.4
		c-1.4,1.5-2.1,3.6-1.9,5.6l9.8,107.6c0.3,3.8,3.5,6.7,7.3,6.7h58.7c3.8,0,7-2.9,7.3-6.7l9.8-107.6c0.2-2.1-0.5-4.1-1.9-5.6
		C285.1,372.3,283.1,371.4,281.1,371.4z M241.9,327.4h15.8l-7.3,44h-16.9l-7.3-44H241.9z M264.6,479h-45.3l-8.5-92.9h16.4h29.3H273
		L264.6,479z"/>
</g>
</svg>
