<?xml version="1.0" encoding="utf-8"?>
<!-- Generator: Adobe Illustrator 23.1.0, SVG Export Plug-In . SVG Version: 6.00 Build 0)  -->
<svg version="1.1" id="Capa_1" xmlns="http://www.w3.org/2000/svg" xmlns:xlink="http://www.w3.org/1999/xlink" x="0px" y="0px"
	 viewBox="0 0 512 512" style="enable-background:new 0 0 512 512;" xml:space="preserve">
<style type="text/css">
	.st0{fill:#FFFFFF;}
	.st1{clip-path:url(#SVGID_2_);fill:#FFFFFF;}
	.st2{fill:#959494;}
	.st3{clip-path:url(#SVGID_4_);fill:#959494;}
	.st4{fill:#FDA216;}
	.st5{clip-path:url(#SVGID_6_);fill:#FDA216;}
</style>
<path class="st2" d="M452.7,256.7v-80.1c0-24.3-19.8-44.1-44.1-44.1H113c-24.3,0-44.1,19.8-44.1,44.1v80.1
	c-30.6,2.8-54.7,28.5-54.7,59.8v41.1v23.7c0,12.3,10,22.3,22.3,22.3h7.2v10.1c0,16.2,13.2,29.3,29.3,29.3h8
	c16.2,0,29.3-13.2,29.3-29.3v-10.1h300.8v10.1c0,16.2,13.2,29.3,29.3,29.3h8c16.2,0,29.3-13.2,29.3-29.3v-10.1h7.2
	c12.3,0,22.3-10,22.3-22.3v-23.7v-41.1C507.4,285.3,483.3,259.5,452.7,256.7z M80.9,176.7c0-17.7,14.4-32.1,32.1-32.1h295.6
	c17.7,0,32.1,14.4,32.1,32.1v79.8h-23.8L417,232c0,0,0,0,0,0c0-12.3-6.5-23.5-16.9-29.2c-4.9-2.7-10.8-5.1-17.5-7.1
	c-24.1-7.3-49.7-7.3-73.8,0c-6.8,2-12.7,4.4-17.6,7.1c-10.4,5.7-16.9,16.8-16.9,29.2v24.5h-26.8l0.1-24.5c0,0,0,0,0,0
	c0-12.3-6.5-23.5-16.9-29.2c-4.9-2.7-10.8-5.1-17.5-7.1c-24.1-7.3-49.7-7.3-73.8,0c-6.8,2-12.7,4.4-17.6,7.1
	c-10.4,5.7-16.9,16.8-16.9,29.2v24.5H80.9V176.7z M404.9,256.5H286.2v-24.5c0-7.8,4.2-15.1,10.7-18.6c4.2-2.3,9.3-4.3,15.3-6.2
	c21.9-6.6,45-6.6,66.9,0c6,1.8,11.1,3.9,15.3,6.2c6.5,3.5,10.6,10.8,10.6,18.6L404.9,256.5z M235.4,256.5H116.7v-24.5
	c0-7.8,4.2-15.1,10.7-18.6c4.2-2.3,9.3-4.3,15.3-6.2c21.9-6.6,45-6.6,66.9,0c6,1.8,11.1,3.9,15.3,6.2c6.5,3.5,10.6,10.8,10.6,18.6
	L235.4,256.5z M98.4,413.8c0,9.5-7.8,17.3-17.3,17.3h-8c-9.5,0-17.3-7.8-17.3-17.3v-10.1h42.6V413.8z M465.8,413.8
	c0,9.5-7.8,17.3-17.3,17.3h-8c-9.5,0-17.3-7.8-17.3-17.3v-10.1h42.6V413.8z M495.4,381.4c0,5.7-4.6,10.3-10.3,10.3h-13.2h-54.6
	H104.4H49.8H36.6c-5.7,0-10.3-4.6-10.3-10.3v-17.7h469.1V381.4z M495.4,351.7H26.3v-35.1c0-26.5,21.6-48.1,48.1-48.1h0.6h35.7h130.7
	h38.8h130.7h35.8h0.6c26.5,0,48.1,21.6,48.1,48.1V351.7z"/>
</svg>
