<svg width="18" height="30" viewBox="0 0 18 30" fill="none" xmlns="http://www.w3.org/2000/svg">
<path d="M15.6044 12.5272C15.1661 12.6034 14.7278 12.6679 14.3011 12.7265L13.9213 8.7245C16.4868 7.08388 17.2466 4.19521 17.4511 2.2206C17.5154 1.58193 17.2583 0.954972 16.7674 0.550675C16.1771 0.0526285 15.3765 -0.123153 14.6284 0.0819254C12.7817 0.562394 10.8881 0.831925 8.98295 0.88466C7.07776 0.831925 5.18425 0.562394 3.3375 0.0819254C2.58945 -0.123153 1.7888 0.0584879 1.19854 0.556535C0.707628 0.960832 0.450485 1.58778 0.514771 2.22646C0.719317 4.20107 1.47906 7.08388 4.0388 8.73036L3.65893 12.7323C3.2323 12.6737 2.79399 12.6093 2.35568 12.5331C1.59594 12.3983 0.830355 12.7089 0.380356 13.33C-0.0579562 13.9276 -0.110554 14.7245 0.234252 15.3749C0.859576 16.4413 1.80049 17.2968 2.92841 17.8124L0.701784 28.4765C0.567369 29.1386 0.970615 29.789 1.61932 29.9589C2.26802 30.1288 2.9401 29.7538 3.1388 29.1093L4.92711 23.496H13.033L14.8154 29.1093C15.0141 29.7538 15.6862 30.1288 16.3407 29.9589C16.9953 29.789 17.3985 29.1327 17.2583 28.4706L15.0375 17.8065C16.1654 17.2909 17.1005 16.4413 17.7317 15.369C18.0765 14.7186 18.0239 13.9218 17.5856 13.3241C17.1297 12.703 16.3583 12.3925 15.6044 12.5272ZM13.3135 12.8495C12.9687 12.8847 12.6414 12.9198 12.32 12.9491L12.0044 9.59169C12.3317 9.49208 12.6589 9.37489 12.9687 9.24013L13.3135 12.8495ZM8.98295 10.0018C9.66672 10.0018 10.3505 9.94325 11.0226 9.82607L11.3265 13.0253C9.94139 13.119 9.00048 13.119 8.98295 13.119C8.96542 13.119 8.02451 13.1132 6.63945 13.0253L6.94334 9.82607C7.61542 9.94325 8.29334 10.0018 8.98295 10.0018ZM1.50828 2.12099C1.47906 1.81044 1.60763 1.50575 1.85308 1.31239C2.09269 1.10732 2.40243 0.995988 2.71802 1.00185C2.84075 1.00185 2.96932 1.01943 3.09204 1.04872C5.02062 1.55263 6.99594 1.83388 8.9888 1.88075C10.9817 1.83388 12.957 1.55263 14.8855 1.04872C15.318 0.931535 15.7797 1.02528 16.1245 1.31239C16.3641 1.50575 16.4927 1.81044 16.4635 2.12099C16.142 5.25575 14.5817 8.99989 8.9888 8.99989C7.5336 9.05263 6.08425 8.70693 4.80438 8.00966C4.79854 8.0038 4.79269 7.99794 4.78685 7.99794C2.52516 6.67372 1.72451 4.25966 1.50828 2.12099ZM4.99724 9.24013C5.31282 9.38075 5.63425 9.49794 5.96152 9.59169L5.64594 12.9491C5.32451 12.9198 4.99724 12.8905 4.65243 12.8495L4.99724 9.24013ZM2.19204 28.8104C2.15698 28.9218 2.05763 28.9979 1.94075 28.9921C1.86477 28.9921 1.7888 28.9569 1.7362 28.8983C1.6836 28.8397 1.66607 28.7577 1.67776 28.6757L3.85178 18.2343C4.35438 18.4393 4.86282 18.6151 5.37711 18.7616L2.19204 28.8104ZM11.6128 19.0077L12.0862 20.496H5.87971L6.35308 19.0077C8.08295 19.3768 9.87711 19.3768 11.6128 19.0077ZM5.24269 22.494L5.55828 21.4921H12.4018L12.7174 22.494H5.24269ZM16.2765 28.6698C16.294 28.7518 16.2706 28.8339 16.218 28.8925C16.1713 28.9569 16.0953 28.9921 16.0135 28.9862C15.8966 28.9862 15.7972 28.91 15.7622 28.7987L12.5771 18.7499C13.0972 18.5975 13.6057 18.4218 14.1024 18.2225L16.2765 28.6698ZM16.8433 14.9061C16.183 16.1542 14.57 17.1679 12.168 17.8475C10.0817 18.4335 7.87841 18.4335 5.79204 17.8475C3.3901 17.1679 1.77126 16.1542 1.11672 14.9061C0.947239 14.5897 0.976459 14.203 1.18685 13.9159C1.41477 13.5995 1.80049 13.4413 2.1862 13.5175C4.43036 13.8925 6.70373 14.0975 8.98295 14.121C11.2622 14.0917 13.5297 13.8925 15.7797 13.5175C16.1596 13.4472 16.5511 13.5995 16.7791 13.9159C16.9836 14.203 17.0128 14.5897 16.8433 14.9061Z" fill="#A2A1A1"/>
</svg>
