<?xml version="1.0" encoding="utf-8"?>
<!-- Generator: Adobe Illustrator 23.1.0, SVG Export Plug-In . SVG Version: 6.00 Build 0)  -->
<svg version="1.1" id="Capa_1" xmlns="http://www.w3.org/2000/svg" xmlns:xlink="http://www.w3.org/1999/xlink" x="0px" y="0px"
	 viewBox="0 0 512 512" style="enable-background:new 0 0 512 512;" xml:space="preserve">
<style type="text/css">
	.st0{fill:#FFFFFF;}
	.st1{clip-path:url(#SVGID_2_);fill:#FFFFFF;}
	.st2{fill:#959494;}
	.st3{clip-path:url(#SVGID_4_);fill:#959494;}
	.st4{fill:#FDA216;}
	.st5{clip-path:url(#SVGID_6_);fill:#FDA216;}
</style>
<path class="st2" d="M497.5,200.3h-66.4c0.8-2.1,1.3-4.4,1.3-6.8v-78.2V74.2c0-10.4-8.5-18.9-18.9-18.9h-43.7
	c-10.4,0-18.9,8.5-18.9,18.9v41.1v78.2c0,2.4,0.5,4.7,1.3,6.8H229.6v-38.1h50.1c11.5,0,20.8-9.3,20.8-20.8v-13.1V41.7
	c0-11.5-9.3-20.8-20.8-20.8H117.4c-11.5,0-20.8,9.3-20.8,20.8v86.7v13.1c0,11.5,9.3,20.8,20.8,20.8h50.1v38.1H10.9c-3.3,0-6,2.7-6,6
	v42.8c0,3.3,2.7,6,6,6h20.5v204.7c0,8,6.5,14.6,14.6,14.6h12c8,0,14.6-6.5,14.6-14.6v-88.2h241.5v51.4c0,3.3,2.7,6,6,6h11.5v30.7
	c0,7.1,5.7,12.8,12.8,12.8h17.3c7.1,0,12.8-5.7,12.8-12.8v-30.7h62.5v30.7c0,7.1,5.7,12.8,12.8,12.8h17.3c7.1,0,12.8-5.7,12.8-12.8
	v-30.7h11.5c3.3,0,6-2.7,6-6v-70.7v-70.7c0-3.3-2.7-6-6-6H480v-20.5h17.5c3.3,0,6-2.7,6-6v-42.8C503.6,203,500.9,200.3,497.5,200.3z
	 M117.4,32.9h162.3c4.9,0,8.8,3.9,8.8,8.8v80.6H108.6V41.7C108.6,36.8,112.5,32.9,117.4,32.9z M108.6,141.4v-7h179.9v7
	c0,4.9-3.9,8.8-8.8,8.8H117.4C112.5,150.2,108.6,146.3,108.6,141.4z M363.1,74.2c0-3.8,3.1-6.8,6.8-6.8h43.7c3.8,0,6.8,3.1,6.8,6.8
	v35.1h-57.3V74.2z M363.1,193.5v-72.2h57.3v72.2c0,3.5-2.7,6.4-6.1,6.8h-45.1C365.8,200,363.1,197.1,363.1,193.5z M179.5,162.2h38.1
	v38.1h-38.1V162.2z M60.6,459.9c0,1.4-1.1,2.5-2.5,2.5h-12c-1.4,0-2.5-1.1-2.5-2.5V255.2h17.1v80.5v30V459.9z M331.7,255.2v20.5
	h-11.5c-3.3,0-6,2.7-6,6v47.9H72.6v-74.5H331.7z M72.6,359.7v-17.9h241.5v10.7v7.3H72.6z M362.6,459.8c0,0.4-0.3,0.8-0.8,0.8h-17.3
	c-0.4,0-0.8-0.3-0.8-0.8v-30.7h18.8V459.8z M468,459.8c0,0.4-0.3,0.8-0.8,0.8h-17.3c-0.4,0-0.8-0.3-0.8-0.8v-30.7H468V459.8z
	 M485.5,417.1H474h-30.8h-74.5h-30.8h-11.5v-51.4v-7.3h159.3V417.1z M485.5,346.4H326.2v-10.7v-47.9h11.5H474h11.5V346.4z
	 M468,275.7H343.8v-20.5H468V275.7z M491.5,243.2H474H337.8H66.6H37.5H17v-30.8h156.5h50.1h145.6c0.2,0,0.5,0,0.7,0h43.7
	c0.2,0,0.5,0,0.7,0h77.2V243.2z"/>
<path class="st2" d="M398.5,135.4c-0.4-0.4-1-0.8-1.5-1.2c-0.5-0.4-1.1-0.7-1.6-0.9c-0.6-0.3-1.3-0.5-1.8-0.6
	c-3.2-0.6-6.5,0.4-8.7,2.6c-1.8,1.8-2.9,4.3-2.9,6.9c0,2.5,1.1,5,2.9,6.9c1.7,1.7,4.2,2.8,6.8,2.8c0.7,0,1.3-0.1,1.9-0.2
	c0.6-0.1,1.3-0.3,1.8-0.6c0.6-0.2,1.2-0.5,1.6-0.9c0.5-0.3,1.1-0.8,1.5-1.2c0.9-1,1.6-1.9,2.1-3.2c0.5-1.2,0.8-2.4,0.8-3.7
	c0-1.3-0.3-2.5-0.8-3.7C400.2,137.4,399.4,136.4,398.5,135.4z"/>
<path class="st2" d="M398.5,171.1c-0.4-0.4-1-0.8-1.5-1.2c-0.5-0.4-1.1-0.7-1.6-0.9c-0.6-0.3-1.3-0.5-1.8-0.6
	c-3.2-0.6-6.5,0.4-8.7,2.6c-1.8,1.8-2.9,4.3-2.9,6.9c0,2.5,1.1,5,2.9,6.9c1.7,1.7,4.2,2.8,6.8,2.8c0.7,0,1.3-0.1,1.9-0.2
	c0.6-0.1,1.3-0.3,1.8-0.6c0.6-0.2,1.2-0.5,1.6-0.9c0.5-0.3,1.1-0.8,1.5-1.2c0.9-1,1.6-1.9,2.1-3.2c0.5-1.2,0.8-2.4,0.8-3.7
	c0-1.3-0.3-2.5-0.8-3.7C400.2,173.1,399.4,172.1,398.5,171.1z"/>
<path class="st2" d="M412.7,310.2c-0.4-0.4-1-0.8-1.5-1.2c-0.5-0.4-1.1-0.7-1.6-0.9c-0.6-0.3-1.3-0.5-1.8-0.6
	c-3.2-0.6-6.5,0.4-8.7,2.6c-1.8,1.8-2.9,4.3-2.9,6.9c0,2.5,1.1,5,2.9,6.9c1.7,1.7,4.2,2.8,6.8,2.8c0.7,0,1.3-0.1,1.9-0.2
	c0.6-0.1,1.3-0.3,1.8-0.6c0.6-0.2,1.2-0.5,1.6-0.9c0.5-0.3,1.1-0.8,1.5-1.2c0.9-1,1.6-1.9,2.1-3.2c0.5-1.2,0.8-2.4,0.8-3.7
	c0-1.3-0.3-2.5-0.8-3.7C414.3,312.2,413.5,311.2,412.7,310.2z"/>
<path class="st2" d="M405.8,397.4c0.7,0,1.3-0.1,1.9-0.2c0.6-0.1,1.3-0.3,1.8-0.6c0.6-0.2,1.2-0.5,1.6-0.9c0.5-0.3,1.1-0.8,1.5-1.2
	c0.9-1,1.6-1.9,2.1-3.2c0.5-1.2,0.8-2.4,0.8-3.7c0-1.3-0.3-2.5-0.8-3.7c-0.5-1.2-1.3-2.2-2.1-3.2c-0.4-0.4-1-0.8-1.5-1.2
	c-0.5-0.4-1.1-0.7-1.6-0.9c-0.6-0.3-1.3-0.5-1.8-0.6c-3.2-0.6-6.5,0.4-8.7,2.6c-1.8,1.8-2.9,4.3-2.9,6.9c0,2.5,1.1,5,2.9,6.9
	C400.8,396.3,403.3,397.4,405.8,397.4z"/>
</svg>
